<svg id="ec30bb27-f007-4543-8257-a4742ec0fbd4" data-name="Layer 1" 
    xmlns="http://www.w3.org/2000/svg" viewBox="0 0 720.19 540.19">
    <title>after_effects_cc</title>
    <path d="M9,269c-1.72-1.85-.9-4.13-.9-6.2Q8,136,8.05,9.16l1-.07c1.75.8,3.6.4,5.4.41,25.87,0,51.73,0,77.6,0,3.11,4,.09,6.08-2.53,8.32-2.25.76-4.59.53-6.91.53q-27.86,0-55.73,0a19.39,19.39,0,0,0-5.43.29c-.44.34-.88.68-1.3,1.05A11.66,11.66,0,0,0,19,21c-.92,2.08-.57,4.28-.58,6.43,0,16.66,0,33.33,0,50,0,2.31.34,4.7-1,6.81-1.85,1.81-4.06,2.47-6.4,1.37s-1.35-3.52-1.4-5.37c-.12-4.82-.06-9.63-.18-14.43Q11.17,102,10.52,138.1c-.26,30.51.38,61,.08,91.53-.45,11.51.3,23-.12,34.55a23.15,23.15,0,0,1-.29,2.61,4.55,4.55,0,0,1-.61,1.58Z" transform="translate(218.09 121.09)" fill="#cf98fb"/>
    <path d="M276,13q0,94.67-.08,189.33,0,30.23,0,60.45c0,1.77.59,3.68-.75,5.28a2.68,2.68,0,0,1-2.49.43c-1.09-.57-2.22-1.12-1.77-2.71a15.67,15.67,0,0,0,1.54-7.23q0-30.41,0-60.8c0-36.16-.2-72.32.07-108.48-.2-22.71,0-45.42-.08-68.13,0-9.52,0-9.52-9.54-9.52a22.83,22.83,0,0,1-3-.09c-27.43,0-54.86.22-82.28.07-4-.66-8.24.82-12.17-1A1.15,1.15,0,0,1,165,9c35.54,0,71.08,0,106.62-.17C274.87,8.78,276.28,9.78,276,13Z" transform="translate(218.09 121.09)" fill="#c78afd"/>
    <path d="M165,9v1c-1.87,1.85-4.29,1.6-6.58,1.6q-29.43.09-58.85,0c-2.28,0-4.71.28-6.57-1.6q-39.12,0-78.23,0c-1.91,0-4,.74-5.71-.87,17-.06,34-.17,51-.18Q112.51,8.9,165,9Z" transform="translate(218.09 121.09)" fill="#cb8efb"/>
    <path d="M274.74,269,15.17,269c-2,0-4-.05-6-.08A2.37,2.37,0,0,1,9,268c1.79-1.65,4-1.4,6.17-1.4q125.24,0,250.48,0A22,22,0,0,1,273,268l2.17.1C275,268.38,274.87,268.71,274.74,269Z" transform="translate(218.09 121.09)" fill="#ad90c7"/>
    <path d="M260,10c4.42.32,10-1.87,13,.93s.95,8.5,1,12.9c.11,21.72.05,43.45.05,65.17-4.84,7.15-5.63,15.07-5.55,23.55q.39,44.3,0,88.61c.28,17.15.15,34.31,0,51.46,0,2.29.47,5.26-3.18,5.7a3,3,0,0,1-1.29-1.46c-.74-2.62-.45-5.3-.45-8q0-110.41,0-220.83c0-7.65,0-7.66-7.74-7.66q-113.67,0-227.33-.05c-2.87,0-6.06,1-8.52-1.57,0-.26,0-.53,0-.79,1.21-.81,2.58-.47,3.89-.48,4.49,0,9-.1,13.49,0,30.79.68,61.54-1.27,92.32-1,43.21.39,86.43-.93,129.63,1.06-5.77-.17-11.53-.13-17.29-.15-2.67-3.47.67-4.41,2.61-5.17,3-1.19,6.39-1.14,9.66-1.3C256.26,10.92,258.27,11.3,260,10Z" transform="translate(218.09 121.09)" fill="#c88ffb"/>
    <path d="M9,266V230c.74-.16,1.52.13,1.53.79,0,4.65,2.64,6.78,7,7.34,1.68,4.18.49,8.56.87,12.83.17,1.93-.57,4,1.16,5.66a7,7,0,0,0,1.56.75c18.61.48,37.21.1,55.81.2,12.13.06,24.26,0,36.38,0,2.13,0,4.34-.32,6.32.88,1.89,3.37-1.36,4.14-3.13,6,26.43,0,52.64,0,78.86,0a29.35,29.35,0,0,1,6.95.32c1.2.29,3.28.19,2.41,2.59-43.33.1-86.65,0-130,0-19.82,0-39.62-.87-59.43-.43C13.18,267,10.93,267.48,9,266Z" transform="translate(218.09 121.09)" fill="#c88ffb"/>
    <path d="M20,18.8q47,.06,93.94.1,72.94,0,145.9-.06c3.56,0,5.27.41,5.27,4.76Q264.89,138.77,265,254c0,1-.13,2-.21,3a1.41,1.41,0,0,1-1.58-.86c-1-2.75-.6-5.61-.6-8.42q0-109.17,0-218.34c0-2.42.7-5.07-1.52-7-1.82-1.21-3.87-.85-5.84-.85q-113.26,0-226.54,0c-2,0-4-.35-5.78.94-2.14,2-1.44,4.69-1.44,7.11q0,109.44-.05,218.9c0,2.79.57,5.69-.94,8.32a1.14,1.14,0,0,1-1.72.18C17.6,255,18.06,253,18,251c-.85-45-.25-90-.45-135,.08-30.27.68-60.55.46-90.83,0-2.08-.63-4.38,1.18-6.15A1.23,1.23,0,0,0,20,18.8Z" transform="translate(218.09 121.09)" fill="#5c3580"/>
    <path d="M9,138V65.16h1V78.72c0,7.07.05,7.1,7,5.28,1.09,1,1,2.43,1,3.75,0,25.32.06,50.65,0,76a6.88,6.88,0,0,1-.33,2,5.92,5.92,0,0,1-3.44,2.65c-3.17,1.12-4.61.19-4.65-3.25-.09-7.41,0-14.82,0-22.23C9.48,141.23,9.93,139.55,9,138Z" transform="translate(218.09 121.09)" fill="#cd94fb"/>
    <path d="M9,138c2.11,4.06.68,8.4.93,12.6a126.15,126.15,0,0,1,0,12.9c-.16,3.84.77,5.52,4.7,3.21A9.81,9.81,0,0,1,17,166c1.66,2,.93,4.45,1,6.7.1,6.78,0,13.56,0,20.35,0,13.08,0,26.16,0,39.24,0,1.93.54,4-1,5.71a8.08,8.08,0,0,0-2.39.28c-4,1.79-4.81-.24-4.65-3.73C10,233,10.51,231.27,9,230Q9,184,9,138Z" transform="translate(218.09 121.09)" fill="#ca91fb"/>
    <path d="M93,10h84c-1.24,3.34-2.45,6.69-6.59,7.49H129.9c-11.67,0-23.34,0-35,0-1.63,0-3.34.43-4.9-.46Z" transform="translate(218.09 121.09)" fill="#cc94fa"/>

    <path d="M17,193V84c0-19.93,0-39.87.06-59.81,0-1.83-1.36-4.61,2.15-5.12Q19.11,56.12,19,93.18c0,7.62-.1,15.25-.16,22.87-.75,4.3-.31,8.63-.32,13-.06,19.83,0,39.66-.1,59.49C18.4,190,19.78,192.25,17,193Z" transform="translate(218.09 121.09)" fill="#d49bfd"/>
    <path d="M271,267H253c-8.1-1.15-16.24-.25-24.36-.49-4.16-.13-8.33,0-12.49,0-5,0-5.82-1.46-3.27-5.88a6.46,6.46,0,0,1,2-2.19c1.68-.9,3.53-.8,5.34-.8,14.21,0,28.43-.07,42.65,0,.62.06,1.25.15,1.86.26,3.3-.25,2.22-2.82,2.23-4.55.07-17.45,0-34.89,0-52.34,2.2-1.31,4.17-3.17,7-3,0,21,0,42.05.05,63.07C274.06,263.74,273.75,265.91,271,267Z" transform="translate(218.09 121.09)" fill="#c58cfb"/>
    <path d="M274,198c-2.15,1.42-3.92,3.73-7,3,0-32.47.22-64.95-.18-97.41C266.74,97,270.18,93.15,274,89Z" transform="translate(218.09 121.09)" fill="#c68dfb"/>
    <path d="M172,17c1.23-2.64,2.43-5.3,5-7h83c-3.26,3.72-7.93,1.92-11.87,2.76-3.16.67-5.55,1.45-7.13,4.24Q206.5,18.2,172,17Z" transform="translate(218.09 121.09)" fill="#ca91fb"/>
    <path d="M264.73,257.89a1.84,1.84,0,0,0-.79.22c-13,.86-26-.2-38.92.44-30.77,1.51-61.58,1.41-92.33.65-36.78-.9-73.55-.35-110.32-.73-1.14,0-2.36.3-3.36-.57l.13,0q-.45-.37-.27-.69c.12-.2.24-.3.35-.3.3,0,.6,0,.9,0a4.91,4.91,0,0,1,1.71-1,26,26,0,0,1,6-.33H256.2a26,26,0,0,1,6,.32,4.81,4.81,0,0,1,1.71,1,6.61,6.61,0,0,0,.89,0A2,2,0,0,1,264.73,257.89Z" transform="translate(218.09 121.09)" fill="#764a9f"/>
    <path d="M215,259c-2.84,7-2.84,7,4.87,7,9.32,0,18.64,0,27.95,0,1.75,0,3.71-.66,5.18,1H205c-1.65-1.72-3.78-1-5.68-1q-41.22-.09-82.43,0h-5.36c1.62-4.31,7.85-2.29,8.47-7,1-.72,2.25-.48,3.39-.48h88.22C212.75,258.52,214,258.28,215,259Z" transform="translate(218.09 121.09)" fill="#c68dfb"/>
    <path d="M19.22,256.94a5.52,5.52,0,0,0-.09,1c-2.51-.16-2.11-2.06-2.12-3.64,0-5.43,0-10.86,0-16.29V193c1.73-1.65,1-3.78,1-5.69.06-22,0-44,.07-66,0-1.77-.61-3.69.8-5.27Q18.92,168,19,220C19,232.3,19.14,244.62,19.22,256.94Z" transform="translate(218.09 121.09)" fill="#d197fd"/>
    <path d="M21,19.94l242,0a1.25,1.25,0,0,1-.56,1.67c-2.33,1.21-4.86,1-7.34,1q-113.13,0-226.25,0c-2.47,0-5,.24-7.34-1A1.23,1.23,0,0,1,21,19.94Z" transform="translate(218.09 121.09)" fill="#0e002c"/>
    <path d="M21,19.94V21c1.73,1.92,1.59,4.31,1.59,6.62q.06,111.3,0,222.61a15.28,15.28,0,0,1-.53,4.94,5.33,5.33,0,0,1-1.1,1.67l-.43.11-.44-.06q-.06-33.23-.12-66.46,0-82.47.05-164.93C20.05,23.68,19.08,21.52,21,19.94Z" transform="translate(218.09 121.09)" fill="#0c0028"/>
    <path d="M263,21,263,20c1.53.86,1,2.34,1,3.58q0,116.43,0,232.87a4.45,4.45,0,0,1-.05.5l-.44.05-.44-.1a5.75,5.75,0,0,1-1.08-1.68c-.73-2.27-.56-4.61-.56-6.93q0-109.32,0-218.62C261.39,26.71,260.82,23.6,263,21Z" transform="translate(218.09 121.09)" fill="#0c0028"/>
    <path d="M263,256l0,.89c-16.3,0-32.6.11-48.9.11q-93.32,0-186.64,0c-2.16,0-4.32-.08-6.48-.12l0-.88c1.92-1.73,4.31-1.61,6.62-1.61q114.36,0,228.72,0C258.67,254.38,261.06,254.26,263,256Z" transform="translate(218.09 121.09)" fill="#1a0138"/>
    <path d="M263,256H21V21H263Z" transform="translate(218.09 121.09)" fill="#1f033e"/>
    <path d="M170.56,184.18c-6.18-3.7-9.49-9.52-11.79-16.08-1.38-7.26-3.61-14.3-3.28-21.93.33-7.85.65-15.54,4-22.78a5.44,5.44,0,0,0,.55-3.37c2.81-7.84,8.49-13.27,15.06-18,6.73-6.21,25.27-7.08,32.48-.87,9.11,5.59,14.51,13.53,15.53,24.31a8.09,8.09,0,0,0,.93,2.21,74.93,74.93,0,0,1,0,16.67.34.34,0,0,1-.07.59A4.7,4.7,0,0,1,221,148l-1.59.1c-2.05,1.45-4.42,1.26-6.74,1.27-10.66,0-21.31-.05-32,0-2,0-4.64-.8-4.94,2.6.69,3.36,2.18,6.56,1.93,10.1l3.39,5.69c-1.59,2.66-3,.5-3.62-.53-1.79-2.9-3.31-2.45-5.29-.28-.88,1-2.28,1.34-3.45,2-5.33,2.86-5.46,3.74-1.21,8.3,1.46,1.58,3.24,2.9,4.24,4.85C172.3,183.21,172.71,184.52,170.56,184.18Z" transform="translate(218.09 121.09)" fill="#c98efb"/>
    <path d="M131.08,126.75a281.55,281.55,0,0,1,8,27c.4,1.1.94,2.61-.28,3.1s-2-1-2.27-2.09c-1-3.63-3-3.32-5.47-1.51a9.59,9.59,0,0,1-1.81.83c-5.85,2.54-5.87,2.55-4,8.88a38.78,38.78,0,0,1,1.62,7.8c.11,1.45.68,3.59-2.13,3.38-1.5-5-3-10-4.49-15-.73-2.39-2-3.62-4.9-3.55-9.32.24-18.65.18-28,0-2.84-.05-4.12.82-4.71,3.71-.88,4.31-2.31,8.51-3.51,12.77-2.85-4.69-7.27-5.43-12.25-5.07a2.7,2.7,0,0,1-2.63-2c1.26-9.34,5.12-18,7.11-27.17.33-1.49,1.78-1.87,3.1-2.13,3.9-.75,7.79-1.67,11.79-.66a5.2,5.2,0,0,1,2.11,1.3,9.83,9.83,0,0,1,1,1.2c1.81,1.71,4.09,1.12,6.15,1,6-.24,12.17.88,18.16-.72.33-.34.66-.67,1-1,.95-4.11-.83-7.81-1.83-11.59-.77-2.87-.49-4.85,2.8-5.67,2.64-.66,4.49-2.8,6.85-4s4-1.25,4.72,1.94a67.92,67.92,0,0,0,2.95,9.48c.15.36.21.48.15.37A1.43,1.43,0,0,0,131.08,126.75Z" transform="translate(218.09 121.09)" fill="#cb90fb"/>
    <path d="M87.86,137,87,136c-1.57-1.85-.59-3.8-.16-5.68,1.34-5.81,3.2-11.48,4.74-17.25.28-1.08.85-2.35-.12-3.28s-2.19-.19-3.25.18c-4.66,1.6-8.07,4.28-9.17,9.47a58.31,58.31,0,0,1-3.58,11.36c-.43,1-.87,2.61-2.25,2s-.69-2-.29-3.06c2.36-11.81,6.49-23.13,9.6-34.72,2.2-8.17,5.55-16.07,6-24.66.12-2.14,1.1-2.82,3.15-2.79,6.49.08,13,.15,19.46,0,3.12-.08,3.59,2,3.89,4.13,1,7.32,4,14.08,6,21.11.51,1.1.92,2.48-.26,3.07-1,.5-1.59-.83-2.06-1.68-.24-.43-.34-1-.6-1.36-1.29-2.06-.38-5.5-3.53-6.29-1.1-.28-6.7,8.9-6.55,10.41.18,1.8.85,3.55.87,5.36,0,1.65.51,3.84-2.4,3.7-3.45-4.86-3.69-10.67-4.82-16.21-.21-.52.34-1.19-.33-1.62a11.59,11.59,0,0,0-.07,2.43c-.69,10.56-5.51,20.07-7.74,30.24-.85,3.87-2.13,7.66-3.23,11.47a9.74,9.74,0,0,1-.43,1.49C89.42,135,89.07,136.28,87.86,137Z" transform="translate(218.09 121.09)" fill="#ce96fa"/>
    <path d="M170.56,184.18c.71-.31,1.07-.84.52-1.49-.86-1-1.82-1.91-2.74-2.85-9.31-9.55-6.8-8.42,1.67-12.75,2.21-1.12,3.24-3.07,4.86-4.82,2.64,1.33,2.1,6.15,6.21,5.56,3.36,2.32,6.53,5,10.91,5.23,5.34-.08,10.69-.16,16,0a6.21,6.21,0,0,0,4.26-1,2.63,2.63,0,0,1,3.11-.66c2.46,1,2.71,3.1,2.59,5.33-.17,3.42.63,6.93-.91,10.23-6.26,4.66-13.68,4.51-20.87,4.69C187,191.94,178,190.41,170.56,184.18Z" transform="translate(218.09 121.09)" fill="#c689fb"/>
    <path d="M124.71,174.14c2.07-1.43,1-3.15.54-4.89-.52-1.9-.71-3.89-1.28-5.77-2.35-7.68-2.38-7.67,5.12-10.62a1.9,1.9,0,0,1,.46-.18c2.49-.05,3.58-4.45,6.13-2.63,1.56,1.12,1.86,4,3.06,6.89.18-1.61.26-2.4.35-3.19,3.37,11.06,6.67,22.15,10.15,33.19.81,2.6,0,3.33-2.44,3.15-.66,0-1.33,0-2,0-5.11-.2-11.43,2-15-.79C125.81,186.19,126.27,179.33,124.71,174.14Z" transform="translate(218.09 121.09)" fill="#c88dfa"/>
    <path d="M107.06,106c2.45-3.06-.08-6-.39-9-.24-2.22-.42-3.57,1.6-5,2.35-1.61,3.47-4.34,5.06-6.64,1.47-2.12,2.8-3,3.8.44.91,3.14,2.09,6.2,3.53,10.37.22-1.87.31-2.64.4-3.42,4.31,11,6.32,22.72,10,33.92-.05.66-.11,1.32-.17,2l-.65.23c-1.2-3.51-2.55-7-3.54-10.54-.84-3-2-3-4.4-1.4s-4.23,4.24-7.7,4.15c-1.84,0-1.09,1.52-.81,2.63,1,3.84,1.89,7.7,2.87,11.55.27,1.05.31,2-.71,2.64a23.25,23.25,0,0,1-2-2,7.32,7.32,0,0,1-1-2c-2.39-7.38-3.94-15-6.13-22.43C106.27,109.78,105.39,107.79,107.06,106Z" transform="translate(218.09 121.09)" fill="#cd93fa"/>
    <path d="M72.92,129.78c.06.66.12,1.32.26,3,3-5.79,3.65-11.43,5.63-16.6,1.29-3.37,9.47-9.17,12.9-8.78,2.8.32,2.12,2.18,1.65,4.12-2,8.21-5.09,16.13-6.36,24.52H84c-11.36,0-11.29,0-14,10.88C68.46,153,66.67,159,65,165c-.6,1,.25,3.26-1.81,2.79-1.24-.28-.68-1.93-.27-3C65.43,152.88,69.13,141.32,72.92,129.78Z" transform="translate(218.09 121.09)" fill="#cc93fb"/>
    <path d="M62.92,164.78c.12.78.25,1.56.38,2.34L65,165c2.15,1.91,4.89,1.33,7.06.83,4.37-1,6.28.1,6.08,4.65,0,.51.64,1.06,1,1.59-.46,5.58-3,10.64-4.11,16.08a2.28,2.28,0,0,1-3,1.77,44.66,44.66,0,0,0-14,0c-2.82.61-1.93-1.58-2.19-2.91-.66-1.91.31-3.42,1.22-4.95C60,176.65,60.4,170.35,62.92,164.78Z" transform="translate(218.09 121.09)" fill="#c98dfa"/>
    <path d="M177.69,162.14c-1.83-2.78-1.73-6.14-2.77-9.16-.46-2.14-1.38-4.51,2.34-4.46,13.81.2,27.63-.44,41.44.33l4.32.37c-10.93,2.92-22,1.32-33,1.78-.5,0-1,0-1.5,0-3.46.09-7.78-1.05-10.18.6-2.71,1.86.56,5.89.47,9C178.75,161.14,178.07,161.63,177.69,162.14Z" transform="translate(218.09 121.09)" fill="#1d033b"/>
    <path d="M160.09,120c1.37,1.26.88,2.65.34,4.1-4.68,12.66-4.43,25.52-1.78,38.54.33,1.66,2.29,3.62.12,5.44q-1.32-3.21-2.62-6.42c-3.47-11.89-3.48-23.69,1-35.36C158.63,124.45,158.28,121.73,160.09,120Z" transform="translate(218.09 121.09)" fill="#cc90f7"/>
    <path d="M157.15,126.32a82.71,82.71,0,0,0-1,35.36c-.1.78-.19,1.56-.29,2.34-3.63-12.59-4.37-25.11-.12-37.6C156.15,125.21,156.48,123.61,157.15,126.32Z" transform="translate(218.09 121.09)" fill="#1d083b"/>
    <path d="M207.63,101.2a38.19,38.19,0,0,0-32.48.87c-1.06-.89-.28-1.46.43-1.84,10.51-5.54,21.18-5.78,32-.86C208.46,99.79,208.64,100.54,207.63,101.2Z" transform="translate(218.09 121.09)" fill="#1c063b"/>
    <path d="M218.7,148.85c-13.39,0-26.78.21-40.17,0-3.56-.06-3.7,1.65-3.61,4.15-2-3.64-.8-5,3.18-5,13.77.11,27.53.11,41.3.16Z" transform="translate(218.09 121.09)" fill="#c68af9"/>
    <path d="M217.07,187c0-3.33-.19-6.67,0-10A6,6,0,0,0,215,171.9c.4-2.17,1.69-1.65,3-1C218.61,176.34,220.29,181.83,217.07,187Z" transform="translate(218.09 121.09)" fill="#d393fa"/>

    <path d="M224.13,144.39q0-8.32,0-16.67c1.69,4.67.36,9.54.92,14.28a1.23,1.23,0,0,1-.13,2A3.44,3.44,0,0,0,224.13,144.39Z" transform="translate(218.09 121.09)" fill="#c68af9"/>
    <path d="M218,170.91c-1.05.21-2.21.08-3,1l-2.7.23-2.35-.26C212.64,171.42,215,166.85,218,170.91Z" transform="translate(218.09 121.09)" fill="#1d073c"/>
    <path d="M224.88,144l.13-2c2.23-3.41.11-7.42,1.75-10.92C225.76,135.33,229.39,140.17,224.88,144Z" transform="translate(218.09 121.09)" fill="#170035"/>
    <path d="M58,189.94a22.89,22.89,0,0,1,14,0Z" transform="translate(218.09 121.09)" fill="#b980e2"/>
    <path d="M57,182.08c.43,1.85-1,3.26-1.22,4.95-.4.66-.81,1.32-1.81,2.94a20.62,20.62,0,0,1,2.43-9c.13.06.33.1.37.2A7.43,7.43,0,0,1,57,182.08Z" transform="translate(218.09 121.09)" fill="#1d073c"/>
    <path d="M221,148q1.55-1.51,3.07-3.05C224.3,147.27,223.4,148.41,221,148Z" transform="translate(218.09 121.09)" fill="#c68af9"/>
    <path d="M219.24,117.66c1.37,7.37,4.43,14.06,3.76,21.35-.38,4.17-1.07,8-6.54,8-5.82,0-11.64,0-17.45,0-1,0-2.25.24-2.5-1-.11-.6.54-1.56,1.11-2.06,2.74-2.35,4.55-5.78,8.21-7.07.59-.21,1.54-.73,1.54-1.09C207.26,127.07,218.47,126,219.24,117.66Z" transform="translate(218.09 121.09)" fill="#c68af9"/>
    <path d="M183.59,116.79A5.48,5.48,0,0,1,188,115a46.87,46.87,0,0,0,7,0,5.06,5.06,0,0,1,4.23,1.88,3.37,3.37,0,0,0,2.89,2.87A9.1,9.1,0,0,1,205,126c-.12,5.69-.61,6.25-6.15,6.36-5,.09-9.9.06-14.85,0-6.65-.07-7.07-.58-6.12-7a5.67,5.67,0,0,0-.13-1.48,6.41,6.41,0,0,1,2-3.31A6.37,6.37,0,0,0,183.59,116.79Z" transform="translate(218.09 121.09)" fill="#1f033e"/>
    <path d="M177.74,123.88c.34.35,1,.82,1,1-2.23,6.67,2.06,6.29,6.41,6.12a115,115,0,0,1,11.89,0c4,.26,7.38-.1,8-5l1,2c.68,1.81,1,3.6-.2,5.35-9.14,1.39-18.33.36-27.5.57-2.08.05-2.84-1.3-3-3.14a3.61,3.61,0,0,1,.54-1.81Z" transform="translate(218.09 121.09)" fill="#1b0439"/>
    <path d="M175.87,129.9c-.18,2.23.62,3.22,3.08,3.17,8.92-.18,17.84-.16,26.76-.22.73.28.77.65.14,1.1l.14-.06a153.36,153.36,0,0,1-31-.08l-.24-1.89C174.47,130.88,174.34,129.94,175.87,129.9Z" transform="translate(218.09 121.09)" fill="#6c4192"/>
    <path d="M175,133.81l31,.08c-.89,1.35-2.3,1.1-3.59,1.1q-11.93,0-23.84,0C177.26,135,175.85,135.25,175,133.81Z" transform="translate(218.09 121.09)" fill="#d597fe"/>
    <path d="M183.59,116.79c.12,2.83-1,3.94-3.82,3.79C180.17,118.43,181.88,117.61,183.59,116.79Z" transform="translate(218.09 121.09)" fill="#1b0939"/>
    <path d="M195,115a5.75,5.75,0,0,1-7,0A8.49,8.49,0,0,1,195,115Z" transform="translate(218.09 121.09)" fill="#130030"/>
    <path d="M202.12,119.75c-2.37.46-3.32-.51-2.89-2.87A5,5,0,0,1,202.12,119.75Z" transform="translate(218.09 121.09)" fill="#11002e"/>
    <path d="M205.85,134c0-.37-.1-.73-.14-1.1L206,128C207.46,130,207.67,132,205.85,134Z" transform="translate(218.09 121.09)" fill="#c68af9"/>
    <path d="M175.87,129.9c-.89.39-.85,1.28-1.09,2a3.65,3.65,0,0,1-.46-4l1.47,1.07A.94.94,0,0,1,175.87,129.9Z" transform="translate(218.09 121.09)" fill="#d496fe"/>
    <path d="M115,138.11c-.24,1.75-1.5,1.89-2.91,1.89q-10.62,0-21.23,0c-1.45,0-2.64-.25-2.86-2a5.87,5.87,0,0,1,4.13-1.4c6.28-.07,12.55-.09,18.83,0C112.45,136.67,114,136.79,115,138.11Z" transform="translate(218.09 121.09)" fill="#cc93fb"/>
    <ellipse cx="320.18" cy="275.59" rx="23.81" ry="0.26" fill="#da9dfe"/>
    <path d="M115,138.11,88,138c0-.35-.08-.7-.13-1,.18-1.08,0-2.31,1.16-3,2,1.5,4.24,1.6,6.59,1.64,6.47.1,12.94-.4,19.39.36a2,2,0,0,1,1,2A5.47,5.47,0,0,0,115,138.11Z" transform="translate(218.09 121.09)" fill="#ba83e4"/>
    <path d="M107.06,106c2,7.91,3.94,15.82,5.87,23.74.43,1.74.7,3.51,1,5.27-.81,1.72-2.39,1.46-3.85,1.47-5.26,0-10.54-.19-15.8.08-2.88.15-4.25-1.07-5-3.54,2.11-8.31,3.82-16.73,6.44-24.87a114.06,114.06,0,0,0,4.35-17.75c.92-1.36-.37-3.35,1.26-4.52,1.83.54.64,2.42,1.56,3.33A63.6,63.6,0,0,0,107.06,106Z" transform="translate(218.09 121.09)" fill="#1f033e"/>
    <path d="M89.32,133c2.06,3.2,5.21,3.28,8.5,3,5.38-.49,10.88,1.07,16.15-1l1,1c-.66,1.67-2.13,1.29-3.39,1.3-6.46,0-12.92-.12-19.38.07-2.67.08-3.56-.88-3.21-3.37Z" transform="translate(218.09 121.09)" fill="#150333"/>
    <path d="M102.93,89.21l-1.46-2.67-1.36,3.85a10.06,10.06,0,0,1-.07-1.45c.14-1.35-.64-3.58,1.36-3.58C103.85,85.37,102.7,87.77,102.93,89.21Z" transform="translate(218.09 121.09)" fill="#cd93fa"/>
</svg>