<svg id="aee89429-5646-49d3-9292-a195fa0b5aa2" data-name="Layer 1" 
    xmlns="http://www.w3.org/2000/svg" viewBox="0 0 512.22 512.17">
    <title>asp.net</title>

    <path d="M208.81,87l1,4c-7.52.79-14.26,6.28-22.35,3.73-2-1.24-2.54-3.42-3.22-5.45-2.17-6.46-4-13-6-19.54a3.53,3.53,0,0,1,.93-3.17c3.63-1.61,7.36-1.1,11.09-.53a4.45,4.45,0,0,1,2.46,2.09,32.36,32.36,0,0,1,1.6,4.28c.36,1.16.74,2.31,1,3.5.3,1.42.78,2.78,1.12,4.19.6,3.31,2.63,4.62,5.93,4.64C204.64,84.75,207.38,84.1,208.81,87Z" transform="translate(88.11 165.09)" fill="#00aae4"/>
    <path d="M45,149.11c-6,1.36-12.09.62-18.15.54-2.36-5.33-.8-10.24,1.64-15.05,6.42-3.08,13.46-3.36,20.32-4.44a3.35,3.35,0,0,1,3.66,2.05C52.24,138.85,48.56,144,45,149.11Z" transform="translate(88.11 165.09)" fill="#015596"/>
    <path d="M218.08,122.9c1.1-.07,1.53-1,2.09-1.7,1.8-4.57,6.13-7,9-10.63a63.41,63.41,0,0,1,4.08-5c.83-1,1.47-2.17,2.33-3.16,1.55-1.13,2-3.72,4.64-3.39a2.87,2.87,0,0,1,.6,2,17.29,17.29,0,0,1-.86,3.4q-1,3-1.94,5.91c-.63,1.72-1.18,3.48-1.91,5.16-.84,1.85-1.42,3.82-2.28,5.66-.65,1.42-1.11,2.92-1.77,4.34-.8,1.58-1.56,3.19-2.42,4.75-1.21,1.62-2.12,3.44-3.18,5.16a3.75,3.75,0,0,1-1.72,1.24,2.69,2.69,0,0,1-2.1-.42,40.25,40.25,0,0,1-5.24-12A2.13,2.13,0,0,1,218.08,122.9Z" transform="translate(88.11 165.09)" fill="#0199dd"/>
    <path d="M99,25.06l6.88.07c5.4.67,10.52,1.85,13.45,7.15a1.25,1.25,0,0,1-.86,1.19c-9.53-1-18.52,2.37-27.79,3.45-3.16.37-6.43,2-9.52-.36-1.28-3,1.27-4.13,3-5.38C88.58,27.92,93.71,26.22,99,25.06Z" transform="translate(88.11 165.09)" fill="#0181c4"/>
    <path d="M136,95a107.6,107.6,0,0,1-4.91-20c3.41-2.21,6.79-1.8,10.15.14,3.18,5.85,5.61,11.92,5.64,18.73C143.6,97.82,139.84,97,136,95Z" transform="translate(88.11 165.09)" fill="#40c7f3"/>
    <path d="M101,75l-2.8,5.13c-1.41,2.12-1.63,5.19-4.75,6-4.1.23-8.28,1.31-12.13-1.15-1.66-3,.62-4.94,1.84-7.18,2.63-2.56,3.69-6.44,7-8.4a5.58,5.58,0,0,1,1.58,0c3.26,1,7.28-1.1,9.9,2.45A3.45,3.45,0,0,1,101,75Z" transform="translate(88.11 165.09)" fill="#03abe2"/>
    <path d="M78,133.83c-7.1,10-17.31,14-29.06,15.07-.15-1.47,1-2,2-2.47,6.65-2.9,11-8,14.08-14.38.48-.76,1-1.52,1.4-2.3.7-1.16,1.28-2.42,2.57-3.09a2.61,2.61,0,0,1,1.36,0C72.79,129.13,77,129.69,78,133.83Z" transform="translate(88.11 165.09)" fill="#05a2e3"/>
    <path d="M66.07,132c-3,8.42-9.42,13.32-17.17,16.88l-3.92.22L52,133c.6-1.23-.2-3.55,2.47-3.18C58.12,131.72,62.6,129.19,66.07,132Z" transform="translate(88.11 165.09)" fill="#005da4"/>
    <path d="M187,94c4.49-.1,8.8.34,13.1-2.54,2.29-1.53,6.37-.39,9.64-.46l1,4a4.72,4.72,0,0,1-4.26,2.16c-3.91-.1-5.47,1.66-4.81,5.5a2.52,2.52,0,0,1-.64,1.84c-2.89,2.28-6.12,2.1-9.44,1.36-2.2-1-2.76-3-3.45-5-.35-1.15-.69-2.31-1-3.46S186.32,95.13,187,94Z" transform="translate(88.11 165.09)" fill="#00a6e2"/>
    <path d="M148.17,25l10.83.12c-.41,2.86-3.09,2.61-4.87,3.6-3.87.9-7.16,3-10.62,4.84a27.77,27.77,0,0,0-6.11,4.2c-1.68,1.38-3.27,3-5.72,2.71-2.5-1.49-4.39-3.39-4.36-6.56,1.86-3.37,5.61-4.07,8.48-6C139.64,25.76,144.05,26,148.17,25Z" transform="translate(88.11 165.09)" fill="#015b9a"/>
    <path d="M254.91,32.82c7.76-7.59,17.73-9.4,27.91-10.65a2,2,0,0,1,.85,1.12,2.76,2.76,0,0,1-.51,2.06c-4,2.89-9.2,3.69-12.67,7.47-1.57,1.34-3,3-5.37,2.7s-4.57.09-6.83-.25C256.83,35.05,254.8,35.33,254.91,32.82Z" transform="translate(88.11 165.09)" fill="#04a6e4"/>
    <path d="M29,135a50.49,50.49,0,0,0-2.15,14.65l-9.68.24c-2-2.27-.41-4.18.6-6.15,1.66-1.69,2.16-4,3.37-6a29.89,29.89,0,0,0,2.24-4.13c1.46-2.33,2.62-4.83,3.94-7.24,1.25-1.19,1.26-4,4.05-3.21,1.07,1.75.06,3.5,0,5.26C30.88,130.75,30.68,133.15,29,135Z" transform="translate(88.11 165.09)" fill="#03a0e2"/>
    <path d="M238.16,146.13c-1.9.93-3.92.47-5.87.48-18.89,0-37.79.06-56.68,0-6.19,0-12.23-.83-17-5.42,2.86-2.69,6.55-1.11,9.77-1.93a5.93,5.93,0,0,1,4.6,1.39c2.84,2.2,6.16,3,9.62,3.53,3.92.83,7.88.36,11.83.33,4.84,0,9.68-.07,14.52,0,4.25.2,8.51.08,12.76.06,3.27-.18,6.53.1,9.8,0a20.05,20.05,0,0,1,3.55.06A4.09,4.09,0,0,1,238.16,146.13Z" transform="translate(88.11 165.09)" fill="#0589cd"/>
    <path d="M276.2,115.09c-.7,1-.65,2.48-2.07,3-2.32.59-4.21,2.2-6.51,2.86a3.77,3.77,0,0,1-4.15-2.28,3.94,3.94,0,0,1-.09-1.45,61.16,61.16,0,0,1,2.89-6.4c1.18-2,1.69-4.31,3-6.23a4.51,4.51,0,0,1,2.78-2.16c2.46.13,4.85.51,6.86,2.09a2.38,2.38,0,0,1,.53,1.29C279,109.08,275.19,111.25,276.2,115.09Z" transform="translate(88.11 165.09)" fill="#0094d6"/>
    <path d="M154.05,28,159,25.16l1.95-.1c3.21.68,6.41,1.4,9.2,3.28,1.39,1.06,2.77,2.14,3.27,3.94a2.2,2.2,0,0,1-.47,1.41c-2.78,2.49-6.3,1.2-9.44,1.85a5.42,5.42,0,0,1-3.88-1.78C158.05,31.56,154.89,30.88,154.05,28Z" transform="translate(88.11 165.09)" fill="#0178bd"/>
    <path d="M78,133.83c-2.08-3-6.39-3.43-8-7-1.1-1.5-.17-2.8.39-4.14a4,4,0,0,1,2.77-2.32c4,.73,7.25,3,10.2,5.66C82,129,80.74,131.94,78,133.83Z" transform="translate(88.11 165.09)" fill="#0da5e4"/>
    <path d="M212.81,104l2,8c-3.73.89-7.67-.11-11.36,1.27-2.54-2-2.59-4.89-2.54-7.78C203.39,100.61,208.29,100,212.81,104Z" transform="translate(88.11 165.09)" fill="#0193d4"/>
    <path d="M169,140c-3.25,2.28-7,.35-10.42,1.22a17.47,17.47,0,0,1-6.87-7.08c3.47-2.7,7.42-1.27,11.21-1.32C166.47,133.87,168.75,136.06,169,140Z" transform="translate(88.11 165.09)" fill="#028ed0"/>
    <path d="M212.81,104c-2.7-1.65-5.68-.8-8.55-.93-2.06-.09-2.26,1.39-2.26,3-1.67,0-1.67-.84-1-2-1.88-7.13-1.68-7.38,5.46-8a34.27,34.27,0,0,0,4.28-1Z" transform="translate(88.11 165.09)" fill="#029cdb"/>
    <path d="M238.16,146.13l-3.13-.35c3.88-4.05,9.37-5.84,13.47-9.59a27.47,27.47,0,0,1,2.75-1,9.46,9.46,0,0,1,2.25-.38c1.66.25,3.8-.56,4.43,2C252.15,141.61,246.28,146.25,238.16,146.13Z" transform="translate(88.11 165.09)" fill="#036fb1"/>
    <path d="M215.88,116l1.9,6c-2.7,3.32-6.92,1.89-10.26,3.25-2.76-2.83-4.63-5.86-2.19-9.85C208.92,114.23,212.48,113.74,215.88,116Z" transform="translate(88.11 165.09)" fill="#0183c8"/>
    <path d="M233.92,78.9a14,14,0,0,1,1.92-6.11c4.13-.25,8.3-1,12.27.94,1.5,3.11.59,5.46-2.25,7.21a21.24,21.24,0,0,1-8.36.42C236,81.22,234,81.27,233.92,78.9Z" transform="translate(88.11 165.09)" fill="#5fc7ed"/>
    <path d="M83.3,126.08c-4-.58-6.64-3.89-10.33-5.09a1.8,1.8,0,0,1-.5-1.86,31.53,31.53,0,0,1,2-3.55c.67-.93,1.24-2,2.67-1.8,2.76,2.32,6.63,3.07,8.81,6.22C85.06,122,84.91,124.37,83.3,126.08Z" transform="translate(88.11 165.09)" fill="#17a9e5"/>
    <path d="M136,28.86,128,34a1.93,1.93,0,0,1-1.28.6c-2.2-.63-4.14-1.6-5-3.9,1.59-5.28,6.48-4.49,10.33-5.62h6C138.69,27,137,27.76,136,28.86Z" transform="translate(88.11 165.09)" fill="#79ccec"/>
    <path d="M146.92,126.15A14.17,14.17,0,0,1,144,120c.62-3.06,3.18-2.19,5.09-2.38a15.23,15.23,0,0,1,5.85.4c2.67,1.42,3.81,3.85,4.33,6.68a2.3,2.3,0,0,1-1.14,1.12A35.14,35.14,0,0,1,146.92,126.15Z" transform="translate(88.11 165.09)" fill="#079fdb"/>
    <path d="M241.82,53.72A10.83,10.83,0,0,1,244,48a18.52,18.52,0,0,1,8.41,0,4.27,4.27,0,0,1,3.67,4.15A3.71,3.71,0,0,1,253.81,56a21.11,21.11,0,0,1-8.7.39C243.61,56.17,241.7,56.1,241.82,53.72Z" transform="translate(88.11 165.09)" fill="#2db5e8"/>
    <path d="M146.92,126.15c3.82-2.42,8.06-.55,12.06-1.15,2,1.9,4.87,3.5,2.1,6.85-3.86.81-7.69,1.36-11.35-.76A9.53,9.53,0,0,1,146.92,126.15Z" transform="translate(88.11 165.09)" fill="#0798d7"/>
    <path d="M156,119c-4,.5-8.13-1.08-12,1a12.16,12.16,0,0,1-2.19-5.67c-.14-2.88,2.24-2.42,3.82-2.66A15.43,15.43,0,0,1,152,112C154.9,113.44,156.55,115.61,156,119Z" transform="translate(88.11 165.09)" fill="#08a6df"/>
    <path d="M123.89,49.11l-6,4.88c-3.56,1.87-6.91,2.36-9.61-1.46a5.07,5.07,0,0,1-.07-3.58,3.33,3.33,0,0,1,1.88-1.84c4-.88,8.06-.61,12.12-.27a4.32,4.32,0,0,1,1.56.74A1.07,1.07,0,0,1,123.89,49.11Z" transform="translate(88.11 165.09)" fill="#57cff5"/>
    <path d="M255,52c-.21-2.56-1.92-2.92-4.07-3.07-2.33-.15-4.86.95-6.95-1a12.13,12.13,0,0,1,3-5.86c3.72,1.11,8-.8,11.39,2.22.73,1.62.15,3.11-.46,4.61C257.17,50.16,257.16,52.13,255,52Z" transform="translate(88.11 165.09)" fill="#23b1e8"/>
    <path d="M328,30l-2.93,5.08c-4,.41-8,.93-11.95-.64a3.29,3.29,0,0,1-.86-3.34,4.45,4.45,0,0,1,2.21-2.87c3.23-1.15,6.57-.8,9.86-.59C325.87,27.74,327.83,27.63,328,30Z" transform="translate(88.11 165.09)" fill="#b6eafa"/>
    <path d="M233.92,78.9c3.9,2.37,8.2.5,12.26,1.12,1.49,3.06,1,5.55-2.09,7.3-3.85-1.64-8.39.26-12.06-2.32A12,12,0,0,1,233.92,78.9Z" transform="translate(88.11 165.09)" fill="#6ccbef"/>
    <path d="M237,69a12.5,12.5,0,0,1,1.89-6.14c4.07-.37,8.15-1,12.09.77,1.56,3.05,1,5.62-1.76,7.67C245.31,69.76,240.75,71.57,237,69Z" transform="translate(88.11 165.09)" fill="#4dc0eb"/>
    <path d="M316.1,51.11a19,19,0,0,1-3.93,7c-2.44,1.33-4.7.34-7-.55a2.6,2.6,0,0,1-.9-2.15c.5-2.33,1-4.69,2.58-6.6a3.43,3.43,0,0,1,1.58-.37C311,49.25,314.66,47.12,316.1,51.11Z" transform="translate(88.11 165.09)" fill="#8adef8"/>
    <path d="M99,25.06c-6.41,3-13.6,4.74-18.11,10.91a2.74,2.74,0,0,1-1.73,1.91c-1.45.48-2.66,1.76-4.39,1.35C74,38.64,73.45,38,74,36.92,81.26,30.73,89,25.39,99,25.06Z" transform="translate(88.11 165.09)" fill="#20abe4"/>
    <path d="M251.08,64c-4-.62-8.31,1.3-12.18-1.15A6.33,6.33,0,0,1,240.07,59c5.36-2.53,9.74-2.08,12.81,1.32C253,61.91,253.3,63.57,251.08,64Z" transform="translate(88.11 165.09)" fill="#41bcea"/>
    <path d="M85.93,120c-3-1.93-7.16-2.22-8.94-6-1.29-2.29.44-3.6,1.65-5.07a2.11,2.11,0,0,1,1.37-.23c2.42,2.1,5.79,2.79,7.93,5.31A13.34,13.34,0,0,1,85.93,120Z" transform="translate(88.11 165.09)" fill="#23ade7"/>
    <path d="M237,69c2.77,0,5.53,0,8.29,0,1.59,0,3.41-.33,3.72,2,.79,1.34,1.14,2.54-.94,3-4.06-.66-8.38,1.37-12.24-1.22A6.19,6.19,0,0,1,237,69Z" transform="translate(88.11 165.09)" fill="#55c3ec"/>
    <path d="M30,101a23.94,23.94,0,0,1,3.86-8.18c2.23-.23,4.46-.43,6.4,1.09.79,3.75-.16,6.85-3.45,9.06C34.3,103.05,31.35,104.75,30,101Z" transform="translate(88.11 165.09)" fill="#75cbef"/>
    <path d="M200.89,59a15.35,15.35,0,0,1,2,6c-4.45.57-8.89,1.15-13.09-1.15a4.55,4.55,0,0,1-1.48-2.17,2.93,2.93,0,0,1,1-3.27C193.27,57.25,197.16,56.67,200.89,59Z" transform="translate(88.11 165.09)" fill="#4ccef5"/>
    <path d="M30,101c2.11,2,4.71.63,7.05,1,1.53,3.86.26,6.86-2.83,9.31-2.3-1.37-6,.3-7.25-3.38C27.63,105.47,28.18,103,30,101Z" transform="translate(88.11 165.09)" fill="#7fcef0"/>
    <path d="M240,99l-3.9,4.2c-3.14-.36-7,2.18-9.13-2.19a11.33,11.33,0,0,1,2-6.11c3.65,1.49,8.11-.61,11.38,2.57A1.78,1.78,0,0,1,240,99Z" transform="translate(88.11 165.09)" fill="#8dd7f2"/>
    <path d="M328,30c-4.52-2.14-9.33-.49-14-1a2.17,2.17,0,0,1-.51-1.46c.38-1.73-.19-3.87,2.05-4.82,3.18,1.37,6.56.55,9.83.93,1.8.2,4.17-.42,4.66,2.42A6,6,0,0,1,328,30Z" transform="translate(88.11 165.09)" fill="#c0edfb"/>
    <path d="M190.07,63c4,2.42,8.81-.38,12.82,2a6.62,6.62,0,0,1,1.1,4,11.31,11.31,0,0,1-12,0L191,67C189.93,65.83,188.71,64.7,190.07,63Z" transform="translate(88.11 165.09)" fill="#3ccaf4"/>
    <path d="M208.81,87c-1.93-1.34-4.18-1.2-6.26-.92-4.8.65-7.14-1.43-7.54-6.07,4.13-.75,8.24-1.16,12.15.94A16.38,16.38,0,0,1,208.81,87Z" transform="translate(88.11 165.09)" fill="#05b5ed"/>
    <path d="M316.1,51.11c-2.21-2.59-5.86.33-8.11-2.13-1.26-2.11-.32-3.8,1-5.43a4.93,4.93,0,0,1,1.61-.7c3.23-.21,6.55-1.13,9.46,1.16C318.87,46.45,318.13,49.14,316.1,51.11Z" transform="translate(88.11 165.09)" fill="#96e1f9"/>
    <path d="M232,85c2.77,0,5.53,0,8.29,0,1.61,0,3.41-.29,3.71,2.06,1.14,1.67.59,2.87-1,3.78-4.27.83-8.5,1.36-12.14-1.88A6.53,6.53,0,0,1,232,85Z" transform="translate(88.11 165.09)" fill="#76cfef"/>
    <path d="M136,95c3.27-1.1,7.43,2.28,10-2,3.25,1.11,2.78,3.76,2.6,6.28-2.87,3.52-7.26,1.5-10.7,2.94A17.36,17.36,0,0,1,136,95Z" transform="translate(88.11 165.09)" fill="#38c1ef"/>
    <path d="M207.16,80.93c-4-.25-8.23,1-12.15-.94l-1-4A11.54,11.54,0,0,1,206,76,9,9,0,0,1,207.16,80.93Z" transform="translate(88.11 165.09)" fill="#19bff2"/>
    <path d="M21.89,121c.05-2.23,1.09-4.11,2.15-6,2.67-2,5.53-1.6,8.45-.73a2.64,2.64,0,0,1,1.38,2.14,5.49,5.49,0,0,1-.12,1.76c-.56,1.74-1.29,3.34-3.32,3.79C27.48,122.48,24.52,123.14,21.89,121Z" transform="translate(88.11 165.09)" fill="#8fd5f2"/>
    <path d="M123.89,49.11,124,48a4.79,4.79,0,0,1,3.44-3.59c4.09.78,4,4.81,5.79,7.41.41,1.36.81,2.71-.62,3.76-2.3,1-4.52,1-6.57-.61Z" transform="translate(88.11 165.09)" fill="#029fdf"/>
    <path d="M137.91,102.19c.37-2.6,2.39-2,4.1-2.21,2-.21,4.24.8,6-1,3.27,1.53,3.33,3.84,1.62,6.59-3.7,1.31-7.35,1.54-10.89-.51C137.86,104.29,137.93,103.22,137.91,102.19Z" transform="translate(88.11 165.09)" fill="#29b9eb"/>
    <path d="M119,32a40.19,40.19,0,0,0-13.08-6.9L124,25.06c0,2.4-3.29,3.37-2.68,6.06C120.73,31.9,120.07,32.51,119,32Z" transform="translate(88.11 165.09)" fill="#80cdec"/>
    <path d="M252,61.06c-.56-3-2.93-1.93-4.68-2-2.42-.13-4.86,0-7.29,0a10.81,10.81,0,0,1,1.75-5.28c3.82,2.73,8.15.6,12.19,1.28C255.4,57.69,255.19,59.86,252,61.06Z" transform="translate(88.11 165.09)" fill="#38b9e9"/>
    <path d="M215.88,116H205a.91.91,0,0,1-1.35-.15A2.25,2.25,0,0,1,204,113c3.27-3.85,7.1-1.9,10.82-1C215.18,113.31,215.53,114.66,215.88,116Z" transform="translate(88.11 165.09)" fill="#018acd"/>
    <path d="M169.77,29.1l-8.82-4c7.24,0,14.72-1.19,21,4C177.9,31.51,173.84,30.75,169.77,29.1Z" transform="translate(88.11 165.09)" fill="#bfebf9"/>
    <path d="M94,85l4.11-4.92a87.12,87.12,0,0,1-5,17.1A5.45,5.45,0,0,1,89.21,93,8.79,8.79,0,0,1,94,85Z" transform="translate(88.11 165.09)" fill="#65c6ee"/>
    <path d="M128.76,66.1c-1.22-1.86-.95-4.09-1.54-6.1,2.24-1.89,4.81-1.4,7.36-1a3.83,3.83,0,0,1,2.06,1.42c.82,2.19,3.09,4.19,1,6.81C134.58,67.61,131.54,67.84,128.76,66.1Z" transform="translate(88.11 165.09)" fill="#03b0e7"/>
    <path d="M33,115H24c.56-2.52,1.17-5,2.91-7.07,1.63,2.7,6.16-1.05,7.11,3.19C35.24,112.84,34.83,114.12,33,115Z" transform="translate(88.11 165.09)" fill="#89d2f1"/>
    <path d="M28,127a24.42,24.42,0,0,1-3.87,7.26c-1.79-1.43-4.88-1.3-5.26-4.4a12.65,12.65,0,0,1,2-6C23.68,123.92,27.18,122.44,28,127Z" transform="translate(88.11 165.09)" fill="#9ddaf3"/>
    <path d="M197.87,51a11.73,11.73,0,0,1,2,5,32.3,32.3,0,0,1-12.43-.17,5.59,5.59,0,0,1-3-4,2,2,0,0,1,1-2.2C189.58,49.76,193.92,48.63,197.87,51Z" transform="translate(88.11 165.09)" fill="#69d5f6"/>
    <path d="M258,45c-2.13-1.92-4.71-.66-7.07-1-1.51-.22-3.47.58-3.89-1.87a5.48,5.48,0,0,1,2-3c3.92-.72,7.82-1.1,11.68.35C262.39,42.6,261.08,44.24,258,45Z" transform="translate(88.11 165.09)" fill="#18aee6"/>
    <path d="M240.05,98.1c-2.05-2-4.63-.77-7-1.08-1.68-.22-3.77.51-4.16-2.15,0-1.09,0-2.2,1-3,3.94-.41,7.87-.76,11.74.5a2.56,2.56,0,0,1,1.18,2.16C242.57,96.24,242.31,98,240.05,98.1Z" transform="translate(88.11 165.09)" fill="#84d4f1"/>
    <path d="M190,37l2.86,4c-3.91,2.46-8.09,1.4-12.24.93a5.09,5.09,0,0,1-3.16-3.15,2.21,2.21,0,0,1,.95-2.42C182.36,35.21,186.24,35.11,190,37Z" transform="translate(88.11 165.09)" fill="#94e1f8"/>
    <path d="M49.8,65a55.24,55.24,0,0,1,9.05-12.26A3.74,3.74,0,0,1,60.69,56c-1.31,4.07-2.78,8-7.09,10C52.19,66.19,50.83,66.15,49.8,65Z" transform="translate(88.11 165.09)" fill="#44b9e9"/>
    <path d="M153,113c-3.71.6-7.72-1.36-11.19,1.32-1.12-1.6-2.11-3.24-1.82-5.32,3.34-2.43,7.21-1.1,10.84-1.54C153.44,108.56,154.18,110.41,153,113Z" transform="translate(88.11 165.09)" fill="#11ace3"/>
    <path d="M109,52c2.3,3.63,5.92,1.4,8.9,2-.86,2-2.49,3.46-4,4.95a7.43,7.43,0,0,1-7.35.77,2.12,2.12,0,0,1-1.06-1.25C105.61,55.75,105.38,52.81,109,52Z" transform="translate(88.11 165.09)" fill="#64d3f5"/>
    <path d="M195,45c.75,1.28,2,2.34,2,4-4.16.91-8.31.49-12.45-.17a4.13,4.13,0,0,1-2.06-1.55c-.58-1.33-1.56-2.67.1-3.94C186.87,42.56,191.29,41.06,195,45Z" transform="translate(88.11 165.09)" fill="#7edbf7"/>
    <path d="M330.07,26.06c-2.95-2.1-6.3-.79-9.45-1-2.17-.14-4.21-.09-5.63-2.06-.87.28-1.13-.12-1-.92,5,0,10-.06,14.94,0,1.1,0,2.5-.31,2.86,1.25C332.06,24.66,331.09,25.41,330.07,26.06Z" transform="translate(88.11 165.09)" fill="#cdf0fb"/>
    <path d="M141,76c-3.15-1.82-6.6-.72-9.91-1-.45-1.63-.9-3.25-1.34-4.88,2.55-2.3,5.49-1.53,8.39-1,2.42,1,3.29,3,3.52,5.45A2.39,2.39,0,0,1,141,76Z" transform="translate(88.11 165.09)" fill="#26beef"/>
    <path d="M187.15,55c4.23.46,8.61-1,12.72,1l1,3-12,0c-2,.05-1.9-1.62-2.31-2.86A1.52,1.52,0,0,1,187.15,55Z" transform="translate(88.11 165.09)" fill="#5dd2f6"/>
    <path d="M208,125c.29-2.37,2.12-2.1,3.67-2a18.9,18.9,0,0,0,6.12-1,1.32,1.32,0,0,1,.3.89c-.06.4-.12.79-.17,1.19-1.95,3.3-3.78,6.78-8.51,6.4C207.49,129,206.42,127.37,208,125Z" transform="translate(88.11 165.09)" fill="#007bc1"/>
    <path d="M324.05,37a8.1,8.1,0,0,1-2.93,5.13c-3.58.15-7.3,1.17-10.36-1.76a2.9,2.9,0,0,1-.16-2.55,3.81,3.81,0,0,1,2-1.74C316.5,35.59,320.42,34.52,324.05,37Z" transform="translate(88.11 165.09)" fill="#a6e6f9"/>
    <path d="M192,69h12a6.05,6.05,0,0,1,1.1,4c-4,2.46-8,2-12.05,0C192.71,71.66,192.37,70.32,192,69Z" transform="translate(88.11 165.09)" fill="#2ec6f3"/>
    <path d="M49.8,65l4.29.06a2.34,2.34,0,0,1,.39,2.21C52.62,70,52.09,73.77,48.31,75c-1.58-.13-3.57.36-3.5-2.28A24.12,24.12,0,0,1,49.8,65Z" transform="translate(88.11 165.09)" fill="#52beeb"/>
    <path d="M229.91,110.87a49.46,49.46,0,0,1-9.74,10.33c.24-4.08,2.08-7.62,3.78-11.21C226.16,108.73,228.36,107.63,229.91,110.87Z" transform="translate(88.11 165.09)" fill="#aae1f5"/>
    <path d="M151,108c-3.51,2.14-7.36.47-11,1-1.11-1.08-1-2.55-1.26-3.92L150,105c.93-.31,1.33.25,1.64,1A2.14,2.14,0,0,1,151,108Z" transform="translate(88.11 165.09)" fill="#1db2e7"/>
    <path d="M40,94c-2.07-.33-4.43.88-6.15-1.21a16.82,16.82,0,0,1,2.91-5.87c2.46-1.41,4.65-1.66,6.09,1.4C42.92,90.72,43.07,93.18,40,94Z" transform="translate(88.11 165.09)" fill="#6cc7ee"/>
    <path d="M106,59l7.85,0c-1.73,3.18-4.69,5.3-6.94,8-1.35,1-2.33.33-3.26-.67a4,4,0,0,1-.44-2.84,16.26,16.26,0,0,1,1.16-3.31A2.28,2.28,0,0,1,106,59Z" transform="translate(88.11 165.09)" fill="#74d7f6"/>
    <path d="M314,22.09l1,.92c-.21,1.69.66,3.59-1,5A3.79,3.79,0,0,1,310,26c-1.44-1.92-3.54-1.49-5.47-1.51-5.13,0-10.25,0-15.37,0-2.13,0-4.34.19-6.08-1.48-.07-.27-.14-.53-.22-.79Z" transform="translate(88.11 165.09)" fill="#a3def3"/>
    <path d="M304.92,57c2.51-.31,4.87.46,7.25,1.07a10.28,10.28,0,0,1-2.87,5c-2.2,1.39-4.37,1.67-6.51-.12a3.5,3.5,0,0,1-.59-2.43C302.68,59,302.68,57.15,304.92,57Z" transform="translate(88.11 165.09)" fill="#7ddaf7"/>
    <path d="M269.94,123.81c-2.45,2.55-3.58,6.26-7,7.95-1.67-.07-3.45.84-5-.55.38-5.17,5.38-6.06,8.27-8.9C267.75,122.09,269.45,121.45,269.94,123.81Z" transform="translate(88.11 165.09)" fill="#0584c2"/>
    <path d="M229.91,110.87c-1.79-1.63-4-.55-6-.88a10.31,10.31,0,0,1,2-6c2.85-.06,6.12-1.82,8,2Z" transform="translate(88.11 165.09)" fill="#9dddf4"/>
    <path d="M44.81,72.71c1,1.72,2.75,1.18,4.27,1.3.87,3.84-.9,6.44-4,8.45-1.84,0-3.71,0-5.15-1.47C41.29,78.06,42.59,75.12,44.81,72.71Z" transform="translate(88.11 165.09)" fill="#5bc1ec"/>
    <path d="M242.12,93c-4.05-.64-8.34,1.29-12.22-1.15.06-1.05,0-2.14.95-2.9a46.28,46.28,0,0,0,12.25,1C243.88,91.38,244.13,92.57,242.12,93Z" transform="translate(88.11 165.09)" fill="#7ed2f0"/>
    <path d="M135,60h-7.8c-.4-1.67-.79-3.34-1.19-5h7c2.15-.18,2.3,1.52,2.76,2.93A2.61,2.61,0,0,1,135,60Z" transform="translate(88.11 165.09)" fill="#02a8e3"/>
    <path d="M28,127c-1.29-3.52-5.4-.68-7.15-3.17.13-1,0-2.15,1-2.86l9.35.09a1.26,1.26,0,0,1-.33,1.72C29.94,124.2,29,125.6,28,127Z" transform="translate(88.11 165.09)" fill="#96d7f3"/>
    <path d="M261,40c-4-.44-8.07.94-11.94-.86a6.51,6.51,0,0,1,2.81-3.35c3.86.15,8-1.52,11.42,1.56C263.55,39.11,263,40.16,261,40Z" transform="translate(88.11 165.09)" fill="#10abe6"/>
    <path d="M40,81c1.72.26,3.69-.68,5.08,1.1,1.28,2.75-.61,4.71-1.69,6.88A1,1,0,0,1,42,89c-.71-3.32-3.47-1.51-5.26-2.1A15.67,15.67,0,0,1,40,81Z" transform="translate(88.11 165.09)" fill="#64c5ed"/>
    <path d="M195,45c-4.17-2-8.6-.58-12.89-1a2.37,2.37,0,0,1-1.67-.83c-.41-.7-1.11-1.38-.15-2.18l12.6,0C193.68,42.29,195,43.3,195,45Z" transform="translate(88.11 165.09)" fill="#8bdff8"/>
    <path d="M263,38c-1.8-1.8-4.06-.71-6.1-1-1.72-.24-3.69.61-5-1.22a6.12,6.12,0,0,1,3-3c1.68,2,4,.88,6,1.17,1.72.25,3.65-.62,5.1,1a5.43,5.43,0,0,1-1.87,3.23A1,1,0,0,1,263,38Z" transform="translate(88.11 165.09)" fill="#06a7e5"/>
    <path d="M173.31,32.86a7.08,7.08,0,0,1-.16-.9c4-2.4,8-1.79,12,0,1.81.2,2.23,1.8,3,3-3.56,2.13-7.49.55-11.21,1.14C175,35.81,173.57,35,173.31,32.86Z" transform="translate(88.11 165.09)" fill="#a6e5f9"/>
    <path d="M324.05,37H312a2.08,2.08,0,0,1-.63-2c.28-.73.68-1.28,1.6-1,4,.56,8.24-1.19,12.1,1.09Z" transform="translate(88.11 165.09)" fill="#ace7fa"/>
    <path d="M18.88,129.87c1.39,1.89,5.05,1.09,5.26,4.4a7.92,7.92,0,0,1-2.08,3.84c-1.92-.23-4.57,1.24-5.12-2.19A11.2,11.2,0,0,1,18.88,129.87Z" transform="translate(88.11 165.09)" fill="#a9def4"/>
    <path d="M185.12,31.93l-12,0-3.38-2.86L182,29A6.69,6.69,0,0,1,185.12,31.93Z" transform="translate(88.11 165.09)" fill="#b1e8f9"/>
    <path d="M19,143.71c-.77,2-2.4,3.78-1.82,6.18-3.81.53-4.91-.92-3.42-4.5.88-2.1,1.49-4.31,2.23-6.47C17.65,140.09,20.12,140.76,19,143.71Z" transform="translate(88.11 165.09)" fill="#b6e3f6"/>
    <path d="M149.73,131.09,162,131c1.45.48,2.55,1.19,2,3l-12.28.09A3.85,3.85,0,0,1,149.73,131.09Z" transform="translate(88.11 165.09)" fill="#0393d3"/>
    <path d="M139,70l-9.24.11c-1.25-1.12-.48-2.71-1-4,3.1.05,6.29-.76,9.24.9l.61.22a2,2,0,0,1,.78,2.29C139.25,69.68,139.11,69.84,139,70Z" transform="translate(88.11 165.09)" fill="#11b6ea"/>
    <path d="M193,73l12.05,0a3.44,3.44,0,0,1,.86,3H194C193.7,75,193.37,74,193,73Z" transform="translate(88.11 165.09)" fill="#24c3f3"/>
    <path d="M60,56.05c-.4-1.12-.79-2.24-1.18-3.36a22.47,22.47,0,0,1,5.93-6.76,1.65,1.65,0,0,1,2.62.6A10.77,10.77,0,0,1,60,56.05Z" transform="translate(88.11 165.09)" fill="#37b4e8"/>
    <path d="M303,61.9c1.81,2,4.25.69,6.35,1.19-.88,2-1.5,4.25-3.4,5.69-2.28.08-4.92,1.08-5.8-2.32a5.42,5.42,0,0,1,1.41-4.37A1.23,1.23,0,0,1,303,61.9Z" transform="translate(88.11 165.09)" fill="#70d7f7"/>
    <path d="M184.13,48c4.27.43,8.68-1,12.83,1,.3.68.61,1.35.91,2-4.25-.45-8.66,1-12.79-1C184.15,49.62,183.52,49.1,184.13,48Z" transform="translate(88.11 165.09)" fill="#74d8f7"/>
    <path d="M276.2,115.09c-1.7-.82-2.65-1.81-1.14-3.69s2.63-3.59,3.94-5.4c1.6-.51,2.72-.2,2.91,1.7C279.71,109.93,279.66,113.83,276.2,115.09Z" transform="translate(88.11 165.09)" fill="#089ed6"/>
    <path d="M301,66c.28,3.31,3.72,1,4.9,2.78-1.19,1.55-.86,4-3,5-1.67,0-3.41.8-5-.46-1-1.44-.35-2.81.18-4.18a12.79,12.79,0,0,1,1.64-3.18A1,1,0,0,1,301,66Z" transform="translate(88.11 165.09)" fill="#68d4f6"/>
    <path d="M87.94,114c-3-1.19-6.53-1.44-8-5a1.88,1.88,0,0,1-.37-2A2.3,2.3,0,0,1,82,105.75C84,108,87.52,108.07,88.92,111Z" transform="translate(88.11 165.09)" fill="#2cb0e8"/>
    <path d="M311,40c3,2.31,7.15-.48,10.12,2.14l-1,1.87-10.14,0C308.86,42.27,309.1,40.91,311,40Z" transform="translate(88.11 165.09)" fill="#9fe4f9"/>
    <path d="M67,47.05a2.43,2.43,0,0,0-2.25-1.12,45.84,45.84,0,0,1,9.18-9L75,39A10.12,10.12,0,0,1,67,47.05Z" transform="translate(88.11 165.09)" fill="#2bafe7"/>
    <path d="M258,131c1.65.21,3.45-.55,4.93.76-2.05,1.29-2.55,4.12-5,5-1.47-1.36-3.28-.57-4.94-.8-.69-1.67.69-2.47,1.48-3.52C255.51,131.66,256.34,130.32,258,131Z" transform="translate(88.11 165.09)" fill="#0579b9"/>
    <path d="M234,106c-2.25-2.34-5.78.46-8-2,0-1.1-.05-2.23,1-3,2.6,2.59,6.58-.62,9.13,2.19Z" transform="translate(88.11 165.09)" fill="#96daf3"/>
    <path d="M299,80.7c-1.22,1.61-1.2,3.94-3,5.22-2.22,0-3.39-1.21-3.77-3.32.1-2.12.93-3.73,3-4.49C297.12,78,299.41,77.4,299,80.7Z" transform="translate(88.11 165.09)" fill="#4bc9f1"/>
    <path d="M90.07,107.17a4,4,0,0,1-1,3.06c-2.29-2.1-5.64-3.06-6.83-6.36,0-1.81.71-3,2.6-3.24C87.71,101.94,90.91,103,90.07,107.17Z" transform="translate(88.11 165.09)" fill="#3bb6e9"/>
    <path d="M19,143.71c.19-2.34-3.11-2.5-3-4.79,0-1.09-.06-2.23,1-3,1.16,2,4,.14,5.12,2.19C20.8,139.85,20.92,142.35,19,143.71Z" transform="translate(88.11 165.09)" fill="#acdff5"/>
    <path d="M281.91,107.7,279,106c0-.33,0-.67,0-1,.63-2.25,1.39-4.4,3.82-5.38,1.29.3,2.95.07,3.07,2.09C284.63,103.74,284.1,106.27,281.91,107.7Z" transform="translate(88.11 165.09)" fill="#0aa7dc"/>
    <path d="M90.07,107.17c0-3.52-4-3.72-5.14-6.27a2.17,2.17,0,0,1-.42-2.1c.59-1.12,1.11-2.35,2.78-1.88,1.6,2.21,5.42,3.26,3.75,7.17A3.94,3.94,0,0,1,90.07,107.17Z" transform="translate(88.11 165.09)" fill="#46baea"/>
    <path d="M175.91,35l12.26-.1L190,37l-12.27.11C176.37,37.08,175.63,36.5,175.91,35Z" transform="translate(88.11 165.09)" fill="#9ee3f9"/>
    <path d="M121,31c-1.5-3.24,1.18-4.36,3-5.91l8,0c-3.36,1.9-7.86,1.92-10,5.93A.78.78,0,0,1,121,31Z" transform="translate(88.11 165.09)" fill="#67cced"/>
    <path d="M269.94,123.81c-1.12-1.23-2.6-.68-3.94-.81-.7-1.91,1.14-2.13,2-3,1.87-1.18,3.42-3.39,6.13-2C272.88,120.08,272.44,122.69,269.94,123.81Z" transform="translate(88.11 165.09)" fill="#098eca"/>
    <path d="M293,82.93c.42,1.58,2.18,1.81,3,3a11,11,0,0,1-2.73,4.4c-1.52-.07-3-.31-3.69-1.9a5.31,5.31,0,0,1,.72-3.52C290.93,83.94,291.39,82.66,293,82.93Z" transform="translate(88.11 165.09)" fill="#3ec4ee"/>
    <path d="M297.92,73c1.66.25,3.48-.55,5,.77l-1.71,3.31a4.76,4.76,0,0,1-4.77.54c-1.78-1.48-.94-2.94,0-4.4A1.15,1.15,0,0,1,297.92,73Z" transform="translate(88.11 165.09)" fill="#5bd0f5"/>
    <path d="M103.94,66l3,1a21.68,21.68,0,0,1-6,8c0-1,.07-2,.1-3,.35-2,.1-4.25,1.61-6A1.05,1.05,0,0,1,103.94,66Z" transform="translate(88.11 165.09)" fill="#84dcf7"/>
    <path d="M83,104c1.82,2.32,5.28,3,6.14,6.28a.74.74,0,0,1-.19.76c-2-2.08-6.47-.87-7-5.07a1.52,1.52,0,0,1-.21-1.91A1,1,0,0,1,83,104Z" transform="translate(88.11 165.09)" fill="#32b3e8"/>
    <path d="M136,28.86c0-1.66,1.46-2.49,2-3.82h10.16Z" transform="translate(88.11 165.09)" fill="#5ac4ea"/>
    <path d="M285.9,101.71,283,100c-.46-2.61.23-4.54,3.06-5.23,1.27.86,2.68,1.64,2.14,3.59A5.77,5.77,0,0,1,285.9,101.71Z" transform="translate(88.11 165.09)" fill="#11aee2"/>
    <path d="M290,88l3.22,2.3c-.5,1.33-.92,2.71-2.32,3.44-1.55,0-3.17.1-3.64-1.94C287.4,90,287.41,88.06,290,88Z" transform="translate(88.11 165.09)" fill="#2ebcea"/>
    <path d="M89.9,92.84Q91.52,95,93.13,97.2c-.07,1.09,0,2.22-.95,3.06a6.4,6.4,0,0,1-4.9-4.34C87.26,94.13,87.83,92.85,89.9,92.84Z" transform="translate(88.11 165.09)" fill="#58c1ed"/>
    <path d="M288,92l2.93,1.78c-1,1.48-1.09,3.49-2.71,4.6-.51-1.27-2.32-1.69-2.21-3.37a1.29,1.29,0,0,1-.35-1.21C286.13,92.81,286.43,91.58,288,92Z" transform="translate(88.11 165.09)" fill="#1cb5e6"/>
    <path d="M88,95.9c.7,2.14,3.58,2.17,4.23,4.36-.18,1.34,0,2.78-1.14,3.83.71-3.53-4.3-3.8-4-7.08C86.73,96.13,87.13,95.84,88,95.9Z" transform="translate(88.11 165.09)" fill="#4ebdeb"/>
    <path d="M295.92,77l5.26.08c-.43,1.4-.85,2.81-2.22,3.64-.55-2.48-2.57-1.44-4-1.71C294.36,77.87,294.37,77,295.92,77Z" transform="translate(88.11 165.09)" fill="#57cdf3"/>
    <path d="M187,94c.32,1,.63,2,.94,3-6.54,1.18-13.14.22-19.71.47-3.13.12-6.27.11-9.4.11-2.72,0-3.44-2.16-4.24-4.12-2.42-5.92-4.53-12-6.85-17.92-.35-2-2.86-4,.11-5.91,10.38,0,20.77-.59,31.14.35C182.76,77.63,184.15,86.06,187,94Z" transform="translate(88.11 165.09)" fill="#0087c7"/>
    <path d="M179,70c-1.11,1.4-2.68,1-4.11,1-7.72,0-15.44,0-23.16,0A9.08,9.08,0,0,1,147,70l-.74-.51c-.64-.91-.57-1.67.44-2.24,6-1.53,12.14-.52,18.22-.72,4.11-.14,8.24-.11,12.37-.09A2.74,2.74,0,0,1,179,67C179,68,179,69,179,70Z" transform="translate(88.11 165.09)" fill="#0084c3"/>
    <path d="M179,67l-1,0a3,3,0,0,1-.62-3.32c3.47-3.4,7.67-1.93,11.68-1.76l1,1.09c.31,1.33.61,2.67.92,4Z" transform="translate(88.11 165.09)" fill="#01a5e0"/>
    <path d="M29,135l1.17-7a3.75,3.75,0,0,1,2.56-2.18C40.4,124,48.07,122,56.06,122.14a2.64,2.64,0,0,1,1.22.94c.43,1.87-.43,3.4-1.3,4.93a5.4,5.4,0,0,1-2,2l-2,3c-.65-1.3-1.57-2.11-3.16-1.8Z" transform="translate(88.11 165.09)" fill="#005899"/>
    <path d="M270,105c-1.22,1.88-1,4.47-3,6a7.4,7.4,0,0,1-5.08,1.52c-6.08.06-12.16.16-18.23-.06-2.46-.08-5-.29-6.7-2.47.67-2,1.33-4,2-6a6.64,6.64,0,0,1,4.59-1.55c7.26-.11,14.52-.18,21.77.05C267.2,102.57,269.56,102.23,270,105Z" transform="translate(88.11 165.09)" fill="#0072b2"/>
    <path d="M210,130c3.71-.54,4.85-4.51,7.91-5.91a61.73,61.73,0,0,1,5.16,11.78c1.85,1.45,1.18,2.87-.13,4.19a15.05,15.05,0,0,1-5.79,3.78,6.08,6.08,0,0,1-2.25,0c-4.47-1.85-8.25-4.4-9.48-9.51A7.49,7.49,0,0,1,210,130Z" transform="translate(88.11 165.09)" fill="#0062a7"/>
    <path d="M249,137a45.3,45.3,0,0,1-14,8.78h-3.08c-6.23-2.1-8.06-4.69-7-9.85l.88-1c6.74-2.81,13.69-1.4,20.58-1A2.61,2.61,0,0,1,249,137Z" transform="translate(88.11 165.09)" fill="#005897"/>
    <path d="M270,105c-1.45-1.65-3.4-1-5.14-1-8.62-.06-17.24,0-25.86,0,.33-1,.66-2,1-3a4.32,4.32,0,0,1,4.3-3.4c8.23-.25,16.47-.35,24.71.07,1.68.09,3.26.68,3.76,2.63A2.93,2.93,0,0,1,272,103Z" transform="translate(88.11 165.09)" fill="#0078b7"/>
    <path d="M237,110c9.95,2,20,.58,30,1a11.51,11.51,0,0,1-3,6c-8.23,1.09-16.48.51-24.72.3a4.79,4.79,0,0,1-4.19-2.26Z" transform="translate(88.11 165.09)" fill="#006dad"/>
    <path d="M235.08,115c7.68,2,15.5.51,23.24,1,1.91.12,4-.74,5.67,1,0,.33,0,.67,0,1-.67,2.72-1,5.79-5.05,5.26-6.26-1.39-12.61-.46-18.91-.76-2.44-.12-5.05.49-7.1-1.51Z" transform="translate(88.11 165.09)" fill="#0068a8"/>
    <path d="M249,137c-1.08-2.36-3.21-2-5.19-2l-18-.08c.65-1.88,1.16-3.85,3-5,2-1.55,4.3-1.53,6.6-1.46,6.07.18,12.18-.58,18.22.5,1.81.64,1.94,1.82,1.08,3.33A11.63,11.63,0,0,1,251,136,2.08,2.08,0,0,1,249,137Z" transform="translate(88.11 165.09)" fill="#005c9c"/>
    <path d="M272,101c-.25-2.1-1.81-2-3.34-2-8.14,0-16.27.07-24.4,0a5.53,5.53,0,0,0-4.26,2V99c0-.29,0-.58,0-.87L242.11,95a5.81,5.81,0,0,1,1.57-1c10.21-.78,20.43-1.13,30.63.2C276.88,97.59,275.43,99.64,272,101Z" transform="translate(88.11 165.09)" fill="#007cbc"/>
    <path d="M232.92,121l22,0c2,0,4.09-.32,5.14,2,.5,2.3-.77,3.43-2.74,4.08-7,.8-14.06.38-21.09.27-2,0-3.92-.48-5.11-2.38Z" transform="translate(88.11 165.09)" fill="#0064a3"/>
    <path d="M231.07,125c8.93,2,18,.52,27,1,.38,2.35-.22,4-3,4l-26.22-.09Z" transform="translate(88.11 165.09)" fill="#0060a0"/>
    <path d="M224.94,135.94c-.43,5.25,3.92,7.1,7,9.85h-10.1c-1.6-1-4.86,1-4.85-2.79,2-2.38,7-2.22,6.07-7.13Z" transform="translate(88.11 165.09)" fill="#006bb5"/>
    <path d="M79,37l1.89-1c7.19,1.27,13.92-1.51,20.86-2.42a113.26,113.26,0,0,0,12.14-2.11c2.2-.53,3.12,1.83,5,1.56a4.94,4.94,0,0,1,3.62,3.22,2.65,2.65,0,0,1-1.43,3c-3.14-3.14-5.29,1-8,1.09-10.42,0-20.36,3.27-30.6,4.49-2.64.32-5.26.93-7.88-.09-2-1.58-.53-2.91.41-4.13A15.06,15.06,0,0,1,79,37Z" transform="translate(88.11 165.09)" fill="#007dc0"/>
    <path d="M122,36.07,118.92,33a3.53,3.53,0,0,0,.07-1L121,31h1l5,3c.34,2.24-1.47,2.28-2.84,2.77A3,3,0,0,1,122,36.07Z" transform="translate(88.11 165.09)" fill="#45bfe9"/>
    <path d="M149,75c3.18,7.27,4.87,15.15,9,22,1.12.77,1.48,2,2.06,3.15.56,2.18,2.71,4.32.2,6.6-3.17.81-6.3,1.28-9.22-.8l-1-1c-.66-2-.51-4.27-2-6-.66-2-.53-4.28-2-6l-5-17c0-.34.05-.68.07-1C143.69,72.87,146.33,73.44,149,75Z" transform="translate(88.11 165.09)" fill="#00aae4"/>
    <path d="M90.9,70c-.31,0-.62,0-.93,0-9.06,1.73-18.16,3.25-27.25,4.86-2.11.37-4.23.83-6.31-.17-2.36-2.46,0-4.59.48-6.86.72-1.51,1.41-3,3.36-3.31,9.13-.43,18-2.87,26.94-4.18,3.2-.47,6.39-2,9.7-.49a2.36,2.36,0,0,1,.66,1.38c0,1.36-.94,2.27-1.69,3.26C94.11,66.18,93.58,69.05,90.9,70Z" transform="translate(88.11 165.09)" fill="#0070b2"/>
    <path d="M55.94,74c9.82-.28,19.22-3.29,28.9-4.47,1.8-.22,3.53-1.14,5.13.43-1.72,2.87-3.26,5.87-5.87,8.1a146.28,146.28,0,0,1-32.51,5.52C50.16,80,51.73,76.54,55.94,74Z" transform="translate(88.11 165.09)" fill="#006daf"/>
    <path d="M51,83C62,81.6,72.84,78.3,84.1,78L80.94,84a4.67,4.67,0,0,1-3.61,4.12c-7.71.87-15.26,2.67-22.92,3.8-2.29.34-4.56.77-6.83-.12a2.47,2.47,0,0,1-1.15-1.15C46.3,87.11,47.33,84.28,51,83Z" transform="translate(88.11 165.09)" fill="#0069aa"/>
    <path d="M78.06,87l2.88-3c4.23,2,8.74.6,13.1,1-1.61,2.48-3.44,4.85-4.14,7.82a3.78,3.78,0,0,0-2,3.07c-.32.36-.63.73-1,1.1l-1.94,2c-4.57,2-9.08,2.7-13.44-.53A14.92,14.92,0,0,1,78.06,87Z" transform="translate(88.11 165.09)" fill="#00a3e2"/>
    <path d="M90.9,70l4.07-6c2.59,1.07,5.74,0,8.07,2.08a10.44,10.44,0,0,1-2,6C98.05,69.43,93.88,72.61,90.9,70Z" transform="translate(88.11 165.09)" fill="#3fb3e2"/>
    <path d="M55,128c.66-1.34,1.33-2.67,2-4a24.4,24.4,0,0,1,9.21-.21c1.59.22,3.94.35,2.8,3.21-.64,1-1.28,2.07-1.91,3.11a28.39,28.39,0,0,1-8.43.22C57.16,130.21,55.16,130.44,55,128Z" transform="translate(88.11 165.09)" fill="#0069ae"/>
    <path d="M69,127c-.36-2.47-2.3-1.8-3.86-2-2.71-.37-5.64,1-8.15-1,0-.33,0-.66,0-1a2.44,2.44,0,0,1,2.71-2.52c2.61.11,5.22-.07,7.81.24C69,120.89,71,120.58,71,123c-.37,1.28-.73,2.56-1.1,3.84C69.63,126.93,69.31,127,69,127Z" transform="translate(88.11 165.09)" fill="#006fb4"/>
    <path d="M55,128c2.13,1.91,4.7.65,7,1,1.71.25,3.65-.59,5,1.11l-1,1.91h-8.8c-1.51,0-3,.06-3.27-2A2.07,2.07,0,0,1,55,128Z" transform="translate(88.11 165.09)" fill="#0061a7"/>
    <path d="M160.91,106,159,100a4.74,4.74,0,0,1,3.58-1.45q11.4-.39,22.81,0A5.59,5.59,0,0,1,189,100c.69,1.66,1.37,3.33,2,5a1.11,1.11,0,0,1-.43,1.55c-4.44,1.77-9.07.78-13.62.91-4.74.14-9.5.13-14.25.07C161.76,107.44,160.9,107.23,160.91,106Z" transform="translate(88.11 165.09)" fill="#007ebe"/>
    <path d="M189,100H159c-1.13-.71-.95-1.87-1-3,1.42-1.66,3.37-1.1,5.08-1,8.31.44,16.69-1.19,24.93,1Z" transform="translate(88.11 165.09)" fill="#0084c4"/>
    <path d="M191,106c0-.34,0-.67,0-1,3.37,0,6.74.19,10-1a2.06,2.06,0,0,0,1,2,15.11,15.11,0,0,0,2,7c0,1,0,2,0,3-1.84,3.15-4.77,2.25-7.52,2a4.67,4.67,0,0,1-3-2.49c-.78-1.77-1.33-3.64-2.2-5.38C190.91,108.8,190.23,107.46,191,106Z" transform="translate(88.11 165.09)" fill="#00a2e0"/>
    <path d="M160,33,163,35.05c1.7,1,2.21,2.23.44,3.69-7.87,1.49-15.79.62-23.68.5-1.22,0-2.72-.4-2.72-2.24a10.1,10.1,0,0,1,6-4A75.09,75.09,0,0,1,160,33Z" transform="translate(88.11 165.09)" fill="#005890"/>
    <path d="M137,37c3,2,6.43.82,9.65.94,5.8.21,11.62.05,17.43,0,2.41.44,3.16,1.55,1.49,3.65-4.65,1.67-9.46.72-14.19.84-5.76.15-11.53.09-17.29.05a2.33,2.33,0,0,1-2.35-.89A1.63,1.63,0,0,1,132,40Z" transform="translate(88.11 165.09)" fill="#005c94"/>
    <path d="M160,33a30.23,30.23,0,0,1-17,0c3.32-2.46,6.69-4.84,11.05-5C156.07,29.6,158.72,30.48,160,33Z" transform="translate(88.11 165.09)" fill="#00538a"/>
    <path d="M132,40l0,1c-.88,1.84-1.76,3.66-4.36,3-2.45-2.11-5.42-4-3.59-8L127,34l1-.06C128.28,36.65,130.63,38,132,40Z" transform="translate(88.11 165.09)" fill="#005f9c"/>
    <path d="M283,23c8.44,0,16.87.11,25.31.06,2.11,0,3.73,0,2.53,2.8a12.25,12.25,0,0,1-2.17,5.36c-.76,1.31-1.38,2.68-2,4s-1.39,2.79-2.06,4.2c-.83,1.5-1.39,3.16-2.63,4.42a6.09,6.09,0,0,1-3,1.4c-8.31.25-16.62.81-24.91-.31-1.75-.73-1.53-2.07-1.09-3.49,1-2.25,2.24-4.4,3.25-6.66,2.09-3.37,2.9-7.63,6.75-9.79C283,24.31,283,23.63,283,23Z" transform="translate(88.11 165.09)" fill="#008bcd"/>
    <path d="M277,35a11.36,11.36,0,0,1-3,6c-3.33-1-7.61,1.08-10-3a3,3,0,0,1,2-3l4-3C272.39,32.86,275.77,31.44,277,35Z" transform="translate(88.11 165.09)" fill="#009ada"/>
    <path d="M277,35c-1.81-2.24-5.73.44-7-3,3.37-4.12,8.31-5.34,13-7Z" transform="translate(88.11 165.09)" fill="#0097d6"/>
    <path d="M59,121l-2,2c-9.07,1-18.1,2.2-26.85,5,.25-1.72.51-3.44.76-5.17l.33-1.72,1.53-3.16c8-3,16.64-3.37,25-4.88a3.29,3.29,0,0,1,3.33,1.7,3.75,3.75,0,0,1-.15,3.09A6.69,6.69,0,0,1,59,121Z" transform="translate(88.11 165.09)" fill="#005b9c"/>
    <path d="M164,134l-2-3c-.58-2.2-2.78-3.61-3-6h0c2.52-3,6.07-2.19,9.31-2.49,2,.63,2.75,2.55,4,3.92.73,1.11,1.43,2.24,2.21,3.33a21,21,0,0,0,4.23,4.88c2.48,3.3,6.54,5.09,8.46,8.92-1.3,2-3.06,2.29-5.16,1.51-5.36.85-8.8-3.23-13.09-5.12C167.3,138,166.21,135.53,164,134Z" transform="translate(88.11 165.09)" fill="#00aceb"/>
    <path d="M206,134c1.67,4.31,5.08,6.89,9,9-.59,3.77-3.93,1.79-5.84,2.79H193.87c-1.52-.72-4.21.25-4.1-2.83,3.63-3.23,8.64-4.28,12.17-7.67.91-.66,1.68-1.55,2.86-1.78A1.78,1.78,0,0,1,206,134Z" transform="translate(88.11 165.09)" fill="#006bb5"/>
    <path d="M190,143c.52,2,2.77,1.58,3.86,2.78-3.93-.13-7.94,1.06-11.77-.73,1.89-.14,3.73-.4,5-2.09A2,2,0,0,1,190,143Z" transform="translate(88.11 165.09)" fill="#0163b0"/>
    <path d="M209.15,145.79c1.72-1.4,4.51-.57,5.84-2.79h2c.7,2.52,3.51,1.39,4.85,2.79Z" transform="translate(88.11 165.09)" fill="#0061ae"/>
    <path d="M272,101a11.52,11.52,0,0,0,3-6,5.08,5.08,0,0,1,2.08-4.37,4.33,4.33,0,0,1,1.48-.18c2.63.84,6.23-.31,7.41,3.55,0,.33,0,.66,0,1-1.58,1.32-2,3.34-3,5-1.86,1.25-1.67,4.13-4,5l-7-2C272,102.34,272,101.68,272,101Z" transform="translate(88.11 165.09)" fill="#0098d8"/>
    <path d="M255.07,130c1.72-.8,2.15-2.55,3-4,.66-1,1.32-2,2-3,2.25-1,2.15-3.77,4-5.06.76,1.82,2.29,2.12,4,2l-2,3c-1.71,3.62-6.29,4.38-8,8l-3,2a.66.66,0,0,1-1.14,0Z" transform="translate(88.11 165.09)" fill="#008ed1"/>
    <path d="M166.09,41a3.35,3.35,0,0,0-2-3c-.37-1-.74-1.95-1.12-2.93,3.1-2.39,7.25.21,10.35-2.19l2.6,2.17,1.83,2.07.61,1.8c-3.16,2.64-7.35.68-10.72,2.39A2,2,0,0,1,166.09,41Z" transform="translate(88.11 165.09)" fill="#0080c3"/>
    <path d="M59,121c.07-1.08-.16-2.27,1-3,4.43-.47,8.91-1.55,13.11,1L73,121c-.64.69-1.29,1.37-1.93,2.05-2.1-2-4.67-.68-7-1C62.33,121.75,60.41,122.62,59,121Z" transform="translate(88.11 165.09)" fill="#0075b9"/>
    <path d="M253.87,133l1.14,0c-.67,1-1.34,2-2,3h-2A6.44,6.44,0,0,1,253.87,133Z" transform="translate(88.11 165.09)" fill="#0086cb"/>
    <path d="M206,134l-1,0c-1.79-.62-2.7-2.14-3.67-3.59-1.12-1.58-1.88-3.37-3-5a13.52,13.52,0,0,1-1.26-2.3c-.55-1.67-2-3-1.78-5a2.51,2.51,0,0,1,.65-1.17c2.72-.2,5.55.54,8.09-1h1a20.4,20.4,0,0,0,3,9,5.83,5.83,0,0,0,2,5A11.12,11.12,0,0,1,206,134Z" transform="translate(88.11 165.09)" fill="#009ddd"/>
    <path d="M243,95l-.86,0c0-.67,0-1.33,0-2,1-.79.89-1.92,1-3,1-.77.91-1.87.93-3,1.53-2.1,1.9-4.55,2.15-7a12.07,12.07,0,0,0,1.9-6c1-.75.92-1.88.94-3a16.92,16.92,0,0,0,2.06-7c1.07-.74.91-1.88,1-3A10.37,10.37,0,0,0,254,55c1.15-.72,1-1.89,1-3l2-3c4-.37,8.07-1.29,11.8,1.16,1.48,2.3-.14,4.13-1,6a241.76,241.76,0,0,1-17.69,29.91C249,87.52,248,89,247,90.57S244.8,94,243,95Z" transform="translate(88.11 165.09)" fill="#00a0e3"/>
    <path d="M79,109c-.67,1.66-1.35,3.32-2,5l-2,2c-2.87.77-5.78.44-8.68.29-1.8-.09-3.6-.45-4.09-2.67.16-2.82.9-5.27,4-6.18C70.49,108.09,75,106.33,79,109Z" transform="translate(88.11 165.09)" fill="#0085c8"/>
    <path d="M63,113c.48,2.79,2.71,1.73,4.36,2,2.54.4,5.32-1,7.65,1a3.31,3.31,0,0,1-1.9,3c-4.35-.61-8.88,1.17-13.11-1a2.2,2.2,0,0,1,1-2C61.78,115.06,60.51,112.75,63,113Z" transform="translate(88.11 165.09)" fill="#007bbf"/>
    <path d="M168.9,123c-3.08,1.76-6.77.45-9.89,2-1.13-1.93-2.88-3.56-3-6l-3-6c-.43-1.76-.64-3.61-2-5,0-.67,0-1.33,0-2h9.91l1,1.07c1,.62,1.3,1.73,1.79,2.71.86,2,1.83,3.87,2.82,5.77.38.75.74,1.51,1.11,2.27a26.87,26.87,0,0,1,1.72,4.06A1.39,1.39,0,0,1,168.9,123Z" transform="translate(88.11 165.09)" fill="#00abe7"/>
    <path d="M110.12,48l-1.07,1.05c-1,1.36-1.9,2.79-3.77,3.06C94.39,53.92,83.54,56,72.66,57.83c-2.43.42-4.88,1-7.26-.26-1.75-4,1.15-5.65,3.67-7.53,12.14-2.67,24.42-4.57,36.66-6.69,2.15-.37,4.37-.67,5.65,1.81C111.78,46.48,111.08,47.32,110.12,48Z" transform="translate(88.11 165.09)" fill="#0077ba"/>
    <path d="M110.12,48l1-1.86a4.08,4.08,0,0,1,.94-1.85c1.75-1.22,3.22-2.89,5.45-3.33a5.34,5.34,0,0,1,3.69.63c1.57,1.78,3.41,3.48,2.08,6.23Z" transform="translate(88.11 165.09)" fill="#4acbf3"/>
    <path d="M123.27,47.86c.18-2.34-2.16-3.66-2.35-5.85a2.4,2.4,0,0,1-.64-1.88A2.4,2.4,0,0,1,121,39l1-2.94,2,0c-.21,3.41,2.69,5.26,4,7.91-.11.56-.66.71-1,1.06a6.87,6.87,0,0,1-3,3A2.52,2.52,0,0,0,123.27,47.86Z" transform="translate(88.11 165.09)" fill="#0179af"/>
    <path d="M106.23,51.08l2.82-2L109,52c-2,1.51-1.79,4.12-3,6a3.89,3.89,0,0,1-4.53.6C99.94,54.13,103.36,52.78,106.23,51.08Z" transform="translate(88.11 165.09)" fill="#69b9e1"/>
    <path d="M269,51c-3.71-2.43-8.31.52-12-2,.34-1.33.67-2.66,1-4,1.32-1.49,2.76-2.89,3-5a3.44,3.44,0,0,0,2-2h1c2.92,2.39,7.45-.59,10,3l-1,3C273.18,47.2,272.52,49.91,269,51Z" transform="translate(88.11 165.09)" fill="#009edf"/>
    <path d="M305.91,34.88A7,7,0,0,1,308,31c1.67-.12,3.35-.78,5,0l0,3-1,1C308.94,37.82,307.91,37.8,305.91,34.88Z" transform="translate(88.11 165.09)" fill="#84d2ef"/>
    <path d="M313,31c-1.67.7-3.35,1.91-5,0,.11-2.19,1.74-3.54,2.89-5.16L314,28c0,.32,0,.64,0,1A2.21,2.21,0,0,1,313,31Z" transform="translate(88.11 165.09)" fill="#95d8f1"/>
    <path d="M300.27,44.1l1.46-1.17c2.68-1.36,5.35-2.68,7.27,1.07-.33,1.66-.67,3.32-1,5-.31,0-.63,0-.95,0-2.82,1.84-5.6,2-8.31-.23A3.81,3.81,0,0,1,300.27,44.1Z" transform="translate(88.11 165.09)" fill="#61c6eb"/>
    <path d="M299,48c2.48,2,5.37.54,8,1a10.32,10.32,0,0,1-2,6c-3,.52-6,.81-8.93-.62C294.91,51.28,295.55,49,299,48Z" transform="translate(88.11 165.09)" fill="#4ebfe9"/>
    <path d="M296,54c3,.45,6.21-1,9,1l-.09,2L303,60c-3-.86-6.28-.1-9.11-1.78C293.07,56.07,293.33,54.44,296,54Z" transform="translate(88.11 165.09)" fill="#3fbae7"/>
    <path d="M69,51a20.18,20.18,0,0,0-4,6c0,3.71-2.15,6.1-5,8-.66,1-1.33,2-2,3-1.76,1.14-3,.39-4.14-1,.07-.65.14-1.3.22-1.95,2.73-2.49,4-5.94,5.94-9,2.55-2.83,5.31-5.5,7-9a41.81,41.81,0,0,0,8-8c1.39-.57,2.26-2.18,4-2-1.5,2.46-4.14,4.09-5,7A12,12,0,0,1,69,51Z" transform="translate(88.11 165.09)" fill="#01a0dc"/>
    <path d="M79,109c-4.32-.58-8.83,1.22-13-1a1.48,1.48,0,0,1-.25-1.47,2.94,2.94,0,0,1,3.14-2c2.41.08,4.83-.07,7.22.21,1.57.18,3.77-.29,4,2.36,0,.63-.06,1.27-.08,1.9Z" transform="translate(88.11 165.09)" fill="#008fd1"/>
    <path d="M46.93,90l.1,1c.67,3.41-2,5.64-2.94,8.49-1.6,3.11-3.76,5.92-5.08,9.19-2.09,2.7-1.87,7.06-5.95,8.34,0-.67-.05-1.35-.08-2a6.12,6.12,0,0,0,1.08-3.88A26.43,26.43,0,0,0,37,102a26.87,26.87,0,0,0,3-8c1.28-1.42,1.62-3.21,2-5a5.43,5.43,0,0,1,.81-.09C44.59,87.75,45.77,88.8,46.93,90Z" transform="translate(88.11 165.09)" fill="#0798d6"/>
    <path d="M189.08,61.9c-1.73,1.91-4,.81-6,1.09-1.71.25-3.65-.62-5.07,1-2.25,0-2.2-2-2.83-3.37a5.16,5.16,0,0,1,0-2.5c3.28-4.35,7.74-2.28,11.85-2.18L188.91,59C189,60,189,61,189.08,61.9Z" transform="translate(88.11 165.09)" fill="#009edb"/>
    <path d="M309,44c-2.18-2-4.87-.54-7.27-1.07q1-2,2.06-4A7.73,7.73,0,0,1,311,38v2a7,7,0,0,0-1.06,4Z" transform="translate(88.11 165.09)" fill="#72cded"/>
    <path d="M33.06,117l5-9c7.56-2,15.32-2.93,23-4.14,1.85-.29,5.51-1.45,4.88,3.08v1c-1.57,1.33-2,3.34-3,5l-2,3c-1.16-2.27-2.93-1.9-5-1.52-7.68,1.41-15.27,3.48-23.16,3.46A5.78,5.78,0,0,1,33.06,117Z" transform="translate(88.11 165.09)" fill="#005fa0"/>
    <path d="M127,45.05,128,44l4-2.94,1,1c1.53.26,2.25,1.45,3,2.61.78,1.69,2.13,3.07,2.63,4.91a2.59,2.59,0,0,1-.73,2.08c-1.87,1.4-3.79,1.86-5.84.37C130.25,49.76,130.47,46.07,127,45.05Z" transform="translate(88.11 165.09)" fill="#0079ba"/>
    <path d="M132.05,52c2.09.39,3.95-.66,5.93-1a3.91,3.91,0,0,1,2.58,1.87,19.07,19.07,0,0,1,1.5,3,3.28,3.28,0,0,1,.13,2.14,3,3,0,0,1-1.27.83c-2.08.47-4.13.67-5.91-.89l-2-3Z" transform="translate(88.11 165.09)" fill="#0084c3"/>
    <path d="M138,67q-1-3-2-6c2-1.74,4.18-1.4,6.44-.85A5.39,5.39,0,0,1,145,62.37c.62,1.7,2.51,3.31.43,5.24A7.19,7.19,0,0,1,138,67Z" transform="translate(88.11 165.09)" fill="#0092d0"/>
    <path d="M143,61h-7l-1-1c0-.66,0-1.33,0-2h7C143.05,58.75,143.6,59.68,143,61Z" transform="translate(88.11 165.09)" fill="#008bca"/>
    <path d="M187,56c-2.16,2-4.78.69-7.18,1-1.57.21-3.51-.43-3.85,2a1,1,0,0,1-1.35-.08,7.91,7.91,0,0,1-1.44-3.62,3.77,3.77,0,0,1,.56-2.42c3.6-3.07,7.49-3,11.54-1,.61,1,1.23,2.06,1.85,3.09C187.1,55.31,187.06,55.65,187,56Z" transform="translate(88.11 165.09)" fill="#0096d5"/>
    <path d="M185.3,51.89c-3.77.72-8.06-1.34-11.31,2.14-1.78.22-2.17-1.14-2.69-2.35a3.92,3.92,0,0,1,.22-2.39C174.76,45.58,179,46.66,183,47l1.1,1c.31.67.63,1.33,1,2C185.15,50.63,185.23,51.26,185.3,51.89Z" transform="translate(88.11 165.09)" fill="#0191d1"/>
    <path d="M167,41c3.2-3.87,7.61-1.09,11.34-2.07L180.27,41c.23.69.47,1.37.7,2.06-.07,2.54-2.16,2-3.59,2.2-2.27.27-4.58.15-6.77,1-1.57.39-2.37-.6-3.12-1.72C167,43.37,166.28,42.26,167,41Z" transform="translate(88.11 165.09)" fill="#0086c8"/>
    <path d="M100.83,57.94,106,58c0,.33,0,.67,0,1l-1,1c-1.82,1.32-3.59,1.58-5.25-.27C99.55,58.8,99.68,58.07,100.83,57.94Z" transform="translate(88.11 165.09)" fill="#67bbe4"/>
    <path d="M170,46c.35-2.46,2.28-1.8,3.84-2,2.37-.31,5,.92,7.13-.94l1.12,1c.31,1,.63,2,.94,3-1.79,1.88-4.08.85-6.15,1-1.89.15-3.6.51-4.88,2-2.11.25-2-1.53-2.46-2.73A1.57,1.57,0,0,1,170,46Z" transform="translate(88.11 165.09)" fill="#018ccd"/>
    <path d="M149,75,141,75,139,70h.09c2.64-2,5.28-1.62,7.93,0h0Z" transform="translate(88.11 165.09)" fill="#00a2dd"/>
    <path d="M311,38c-2.26,1.4-4.76,1-7.21.93a7.71,7.71,0,0,1,2.13-4c2,2.07,4,1,6.06.13l0,2Z" transform="translate(88.11 165.09)" fill="#7cd0ee"/>
    <path d="M46.93,90l-4.11-1.06c-.12-2.56,2-4.4,2.23-6.84a25.73,25.73,0,0,0,4-8.08c2.18-2,2.19-5.38,4.79-7.05L58,68l-2.07,6a43.27,43.27,0,0,0-5,9A27.44,27.44,0,0,0,46.93,90Z" transform="translate(88.11 165.09)" fill="#029dda"/>
    <path d="M103,66c-2.64-.89-6.26,2-8.07-2.08l2.09-1.85c2.42-.5,4.83-.92,7,.92,0,1-.05,2-.07,3Z" transform="translate(88.11 165.09)" fill="#4eb6e2"/>
    <path d="M104,63c-2.31-.37-4.83.87-7-.92,0-.31,0-.61,0-.92.48-1.35,1-2.64,2.83-2.29,1.37,1.84,3.36.88,5.08,1.13C105,61.1,105.17,62.28,104,63Z" transform="translate(88.11 165.09)" fill="#5ab7e2"/>
    <path d="M294,58c3,.89,6.75-2,9,2,0,.63,0,1.26-.05,1.9-.31,0-.63.07-.94.09-3.09,2.11-6.34,1.76-9.63.59C290.69,60.29,291.15,58.73,294,58Z" transform="translate(88.11 165.09)" fill="#32b5e5"/>
    <path d="M147,70h-7.93l-1-3L146,67c.26.2.36.42.29.64s-.15.34-.23.34C146.35,68.66,146.66,69.34,147,70Z" transform="translate(88.11 165.09)" fill="#009ad7"/>
    <path d="M292,62h10c-.34,1.34-.67,2.67-1,4a5.92,5.92,0,0,1-.84,0c-3.61,1.66-7.15,3-9.93-1.37C290.23,63.41,290.12,62.06,292,62Z" transform="translate(88.11 165.09)" fill="#25b0e4"/>
    <path d="M297.92,73c-.29,0-.58,0-.87.08-3.34.44-6.68.86-9.88-.7-1.1-2.27-.43-3.87,1.86-4.86,3.34.38,6.92-.85,10,1.5Z" transform="translate(88.11 165.09)" fill="#0ea7e0"/>
    <path d="M299,69c-3.32-.45-6.83,1-10-1-1-2.18-.54-3.61,2-4,2.3,4,6.17,1.09,9.16,2.07C300,67.11,300.1,68.29,299,69Z" transform="translate(88.11 165.09)" fill="#19ace2"/>
    <path d="M80.06,107.06c-2.1-2-4.69-.7-7-1-1.71-.26-3.65.61-5.06-1.08-.8-1.55.11-2.3,1.36-2.89,3-.85,6.11-.63,9.16-.39,1.5.12,3.39.06,3.54,2.38,0,.63,0,1.26-.07,1.89Z" transform="translate(88.11 165.09)" fill="#0094d6"/>
    <path d="M287,72c3.33.48,6.88-1.1,10,1.06-.38,1.3-.75,2.61-1.13,3.92l-1,2a6.18,6.18,0,0,0-2,4L291,85.05c-2.77-1.58-6.59-.86-8.68-4C282.69,77.45,283.22,73.89,287,72Z" transform="translate(88.11 165.09)" fill="#01a0dd"/>
    <path d="M82,104c-4.2-2.25-8.72-.45-13-1-1.15-2.77.64-4.42,2.32-6.11l.69.2c.42,2.35,2.28,1.88,3.83,1.9,3.08.05,6.17,0,9.25,0,0,.63-.08,1.25-.13,1.88a3.48,3.48,0,0,0-2,3Z" transform="translate(88.11 165.09)" fill="#009adc"/>
    <path d="M283,81c2.22,2.28,6.8-.14,8,4.07-.33,1-.67,2-1,3a5.65,5.65,0,0,0-2,4l-2,2c-2.13-2.43-5.68-1.08-8-3-1.21-1.46-.29-2.8.21-4.17C279.82,84.89,279.58,81.44,283,81Z" transform="translate(88.11 165.09)" fill="#009cdb"/>
    <path d="M146,68,146,67,144,63c1.88-1.86,4.31-1.46,6.59-1.51,8.47-.19,16.95.35,25.4-.5.66,1,1.31,2,2,3.05,0,1,0,2,0,3-1.46,1.65-3.41,1-5.15,1C163.93,68,155,68,146,68Z" transform="translate(88.11 165.09)" fill="#007ebc"/>
    <path d="M243,95,246,90a10.06,10.06,0,0,1,5.65-1.57c6.44,0,12.89-.1,19.33,0,2.27,0,4.75-.06,6,2.53a5.66,5.66,0,0,1-2,4Z" transform="translate(88.11 165.09)" fill="#0080c0"/>
    <path d="M69,51c1.4-2.52,2.55-5.22,5-7,10.68.09,20.86-3.22,31.33-4.51,2.82-.35,6-2.36,8.69.52,1,2.34-1,3.6-1.89,5.26l-1,.92c-1-2.07-2.39-2-4.51-1.62C94.09,46.85,81.53,48.88,69,51Z" transform="translate(88.11 165.09)" fill="#007abd"/>
    <path d="M112.11,45.26c-.2-2,1.22-3.52,1.89-5.26.25-.22.62-.39.72-.65,1.82-5.23,4-3.84,6.27-.35,0,.36,0,.73,0,1.09-1.09,1.13-2.86.83-4,1.88Z" transform="translate(88.11 165.09)" fill="#0181c4"/>
    <path d="M99.94,58.87l-2.83,2.29c-4.74-1.8-9.13.67-13.65,1.26-6.31.83-12.54,2.35-18.82,3.44-1.55.27-3.31.67-4.63-.84l5-8c11.67-.38,22.89-3.69,34.37-5.38a40.2,40.2,0,0,1,6.82-.54q-2.68,3.44-5.39,6.86Z" transform="translate(88.11 165.09)" fill="#0074b6"/>
    <path d="M43,99q2-4,4-8c7.91.1,15.52-2,23.23-3.35a58.85,58.85,0,0,1,7.8-.63L72,97.08l0-.29c-7.15-.19-14,1.88-21,2.92C48.33,100.11,45.53,101.14,43,99Z" transform="translate(88.11 165.09)" fill="#0066a7"/>
    <path d="M163,110c-1.13-.69-1-1.85-1.07-2.92,1.6-1.8,3.73-1,5.63-1,7.8-.09,15.6,0,23.4,0a6.79,6.79,0,0,1,1.09,4A5.31,5.31,0,0,1,188,111.5q-10.42.28-20.86,0A6.25,6.25,0,0,1,163,110Z" transform="translate(88.11 165.09)" fill="#0078b8"/>
    <path d="M163,110l29.05,0a6.48,6.48,0,0,1,2,5,4.43,4.43,0,0,1-3.54,1.44c-8.21,0-16.42.5-24.61-.31A12.94,12.94,0,0,1,163,110Z" transform="translate(88.11 165.09)" fill="#0073b2"/>
    <path d="M165.92,116.1c1.39-1.7,3.33-1.06,5.05-1.07,7.7-.07,15.4,0,23.1-.06l1.86,2c0,.33,0,.66-.05,1a5.07,5.07,0,0,1-3.59,1.45q-10.89.38-21.78,0a6.31,6.31,0,0,1-3.63-1.42Z" transform="translate(88.11 165.09)" fill="#006eae"/>
    <path d="M167,41c.35,1,.69,2,1,3-.05,2.11-1.77,2.32-3.15,2.39a258.85,258.85,0,0,1-26.72,0A7.54,7.54,0,0,1,135,45c-.67-1-1.34-2-2-3,1.46-1.65,3.42-1,5.16-1,9.31-.07,18.62-.05,27.93-.06Z" transform="translate(88.11 165.09)" fill="#00609a"/>
    <path d="M283,81l-4,6c-9.3,1.08-18.61.63-27.92.16A3.16,3.16,0,0,1,249,86c7-11.49,14.4-22.73,20-35,2-2,2.6-4.71,4-7l27.25.1L299,48a12.28,12.28,0,0,0-3,6,6,6,0,0,0-2,4,5.82,5.82,0,0,0-2,4,2.07,2.07,0,0,0-1,2,5.82,5.82,0,0,0-2,4l-2,4A38.49,38.49,0,0,0,283,81Z" transform="translate(88.11 165.09)" fill="#0088c8"/>
    <path d="M202,130l3,4-2,2c-6.44.88-12.92.49-19.39.54a11.5,11.5,0,0,1-5.73-1.49c-1.69-1.38-3.61-2.58-4-5a4.77,4.77,0,0,1,3.58-1.48c6.79-.27,13.58-.22,20.37,0A9,9,0,0,1,202,130Z" transform="translate(88.11 165.09)" fill="#005d9e"/>
    <path d="M177.87,135c7,0,14,0,20.94,0,1.44,0,3-.43,4.18,1a37.68,37.68,0,0,1-13,7l-2.95,0A24.29,24.29,0,0,1,177.87,135Z" transform="translate(88.11 165.09)" fill="#00589a"/>
    <path d="M202,130l-28.12,0a3.55,3.55,0,0,1-2-2.93c-.11-1.54,1-2.11,2.15-2.18,8.3-.52,16.62-1.14,24.92.09C200.55,126.34,201.06,128.3,202,130Z" transform="translate(88.11 165.09)" fill="#0062a3"/>
    <path d="M199,125c-7.09,2-14.35.55-21.51,1-1.88.12-4-.73-5.56,1.07-1.43-1-2.72-2.2-3-4.09a8.19,8.19,0,0,0,0-1c1.24-1.36,2.92-1.49,4.57-1.52,6.29-.13,12.59-.12,18.88,0,2.2,0,4.31.39,5.61,2.52Z" transform="translate(88.11 165.09)" fill="#0065a6"/>
    <path d="M249,86q12.13,0,24.27,0c2,0,4-.09,5.75,1-.33,1.33-.67,2.66-1,4h-1c-3.76-1.9-7.78-.86-11.68-1-6.43-.18-12.87,0-19.3,0Q247.51,88,249,86Z" transform="translate(88.11 165.09)" fill="#0084c4"/>
    <path d="M198,123c-4.45-2-9.13-.76-13.7-1-5.11-.21-10.24,0-15.36,0a6.69,6.69,0,0,1-2.05-4l29,0C196.58,119.67,197.29,121.33,198,123Z" transform="translate(88.11 165.09)" fill="#006aaa"/>
    <path d="M116.94,42a3.4,3.4,0,0,1,4-1.88c0,.64,0,1.28,0,1.92Z" transform="translate(88.11 165.09)" fill="#3fc6f1"/>
    <path d="M43,99c8.2.1,16-2.62,24-3.54,1.87-.21,4-1.56,5,1.33q-1.53,3.1-3,6.21a2.11,2.11,0,0,0-1,1.93l-2,2c-1.52-3.68-4.43-1.88-6.74-1.51-6.14,1-12.23,2.3-18.36,3.34C40,109,39,108.32,38.1,108Z" transform="translate(88.11 165.09)" fill="#0062a4"/>
    <path d="M176,61c-.46,2.75-2.65,2-4.3,2-9.23.06-18.46,0-27.69,0l-1-2-1-3h0c9.95-1,19.92-.34,29.87-.36A5,5,0,0,1,175,59q.48,0,1,0C176,59.67,176,60.33,176,61Z" transform="translate(88.11 165.09)" fill="#0078b5"/>
    <path d="M170,47l2,3,.06,2c-.06,2.1-1.77,2.33-3.16,2.38-8.76.25-17.53.32-26.28,0A4.79,4.79,0,0,1,140,53l-2-2V49c1.88-1.86,4.31-1.48,6.59-1.53C153.05,47.27,161.54,47.84,170,47Z" transform="translate(88.11 165.09)" fill="#006aa4"/>
    <path d="M170,47c-.47,2.76-2.67,2-4.32,2-9.23.06-18.47,0-27.7,0-1.77-.76-2.17-2.54-3-4,9.3,0,18.6,0,27.9,0,1.75,0,3.7.65,5.15-1L170,46Z" transform="translate(88.11 165.09)" fill="#00659f"/>
    <path d="M140,53c9,0,17.95,0,26.93-.05,1.75,0,3.71.65,5.16-1L174,54c0,.65,0,1.31,0,2-.59.29.27.21-.37.31C162.74,58.08,151.86,58.6,141,56Z" transform="translate(88.11 165.09)" fill="#0070ab"/>
    <path d="M141,56h33c1.16.72,1,1.9,1,3q-13.64,0-27.26,0c-2,0-4,.1-5.77-1Z" transform="translate(88.11 165.09)" fill="#0074af"/>
</svg>