<svg id="b3f85c1f-ddcd-47c0-aab6-9f8585b2846c" data-name="Layer 1" 
    xmlns="http://www.w3.org/2000/svg" viewBox="0 0 720.19 720.19">
    <title>audacity</title>
    <path d="M578.12,468.5c0-55.83.73-111.68-.24-167.49-.72-41.33-8.27-81.32-32-116.63-27.12-40.32-64.9-66.1-110.95-79.56-68.29-20-134.74-14.89-197.14,20.42-56,31.71-86.93,80.89-93.89,144.88a409.66,409.66,0,0,0-2.4,44.74q.13,160.25.16,320.49c0,4.69-.93,6-5.89,6.08-34.85.23-62.19-15.22-84.68-40.43-24.5-27.47-38.35-60.24-44.46-96.14-8.6-50.62-4.28-99.95,18.5-146.67,14-28.77,33.61-52.71,62.43-68,6.35-3.37,12.94-6.32,20-7.75,4.25-.88,5.09-3,5.33-6.75,1.83-28.69,8.48-56.2,20.92-82.19,24.34-50.87,63.45-86.67,115.11-107.74,83.94-34.23,167.23-31.59,247,12.5,63.82,35.27,99.52,91,109.29,163.3.73,5.44,1.28,10.92,1.62,16.4.13,2.18.75,3.25,2.91,3.81,32.3,8.37,55.28,29.06,73.21,56.07,19,28.58,28.94,60.47,32.75,94.33,5,44-1,86.37-19.65,126.7-11,23.77-26,44.5-47.1,60.46-19.47,14.76-41.27,22.63-65.94,22.09-3.85-.09-5-.92-5-4.91Q578.23,552.51,578.12,468.5Z" transform="translate(-0.91 -0.91)" fill="#204a86"/>
    <path d="M198,405.93l1.26-1a16.52,16.52,0,0,1,5.56-3.19c5-1.57,10.06-3.14,15.06-4.81,2.32-.78,4.14-1.94,5.11-4.24,2-3.78,3.29-7.85,4.92-11.79.42-1.12.91-2.21,1.41-3.29,2.14-4.56,3.84-9.31,5.67-14,.45-1.2.93-2.38,1.45-3.55,2.78-8,2.42-16.49,3.2-24.78A18.75,18.75,0,0,1,242,332c1-2.87.48-5.85.62-8.79a18.07,18.07,0,0,1,.4-3.2c1.44-7.84,5.67-14.43,9.54-21.17.81-1.39,1.47-3.29,3.46-3.13s2.28,2.22,2.69,3.74c3.66,13.43,7.53,26.8,10.77,40.33.37.54.16,1.61,1.31,1.44,4.43-11.1,8.34-22.35,12.68-33.44.3-.77.53-1.58.9-2.31.51-1,.74-2.47,2.15-2.39s1.43,1.6,1.73,2.66c.18.64.3,1.29.5,1.92a11,11,0,0,1,.39,2.2,20.61,20.61,0,0,1,.1,2.22,14.48,14.48,0,0,0,.61,5.06,14.63,14.63,0,0,1,.41,3,16.61,16.61,0,0,0,.76,5.42c.45,6.33,1.26,12.62,2.25,18.88a20.51,20.51,0,0,0,.6,5.57c.12,1.78.08,3.57.09,5.35.11,1.47-.26,3,.14,4.05-.53-.37.05-1.43-.12-2.32.06-12.2,3-23.91,5.72-35.68a11.9,11.9,0,0,0,.93-4.45,21.26,21.26,0,0,1,.43-4.43,22,22,0,0,0,1.94-6.75,10.88,10.88,0,0,1,.32-1.37c.52-1.6.49-3.29.91-4.9.69-3.15,1.32-6.31,1.84-9.49.63-2.73,1.14-5.49,1.64-8.26.69-2.3.84-4.71,1.44-7,.75-1.19,1.43-2.54,3.22-1.5,2.11,6.73,2.09,13.82,3.56,20.66.63,5.15,1.22,10.31,2.2,15.41.25,1.78,0,3.62.64,5.37a11.74,11.74,0,0,1,.38,2.21,18.72,18.72,0,0,0,.62,5,11,11,0,0,1,.37,2.13,17.63,17.63,0,0,0,.64,4.9,11.85,11.85,0,0,1,.36,2.13,17.86,17.86,0,0,0,.66,4.93,12.77,12.77,0,0,1,.37,2.14,18.1,18.1,0,0,0,.65,4.91,10.87,10.87,0,0,1,.13,4.88,50.15,50.15,0,0,1,2.18-6.43,138.57,138.57,0,0,0,5-18.32c1.78-2.91,1.16-6.69,3.39-9.44,5-2.27,3,2.69,4.34,4.21a17.09,17.09,0,0,1,.45,2.35c.88,6.48,2.57,12.81,3.48,19.28.46,1.67.4,3.44.95,5.1a11.28,11.28,0,0,1,.37,2.06c.09.76.08,1.55.19,2.31.09.61.09,1.55.72,1.56.87,0,.91-1.11,1.35-1.72,1.55-4.36,3-8.73,4.78-13,.56-1.35.95-3.17,2.68-3.21,2.14-.06,2.31,2,2.8,3.54,2.24,6.9,4.62,13.75,6.84,20.62,2.53.3,1.49-2,2.05-3,.94-1.67,1.24-3.68,1.82-5.55,4.31-14.1,9-28.06,13.36-42.14a43.84,43.84,0,0,1,1.47-4.22c.51-1.21.93-2.92,2.39-2.85s1.81,1.74,2.3,3c1.41,6.1,2.74,12.23,4.11,18.34,1.7,7.42,3.34,14.86,5,22.29.43,1.87.18,4.68,2.14,5.23,2.16.59,2.9-2.22,4.09-3.67,5-6.15,9.81-12.51,14.81-18.69,1.21-1.49,2.22-3.46,4.72-3,5.12,6.5,7.55,14.46,11.67,21.51.79,1.36.66,3.7,3.15,3.62,6.23-8.14,11.12-17.2,17.58-25.14,1.35-1.65,2.46-4.4,5.46-2.22,1.73,2.19,2.55,4.91,4.15,7.18,1.83,3.41,4,6.63,5.78,10.06a16.68,16.68,0,0,0,3.09,6.16c.52-2.15,1.06-4,1.66-5.81.95-3.37,1.66-6.8,2.51-10.19.4-1.57.8-3.69,2.78-3.59,1.66.08,1.9,2.15,2.19,3.57,1.62,8,3.52,15.93,5.11,23.93.35,2.05.87,4.07,1.33,6.09.5,2.94,1.12,5.85,1.74,8.76a34.59,34.59,0,0,0,1.13,4.62c.59,2.11,2.07,1.31,3.39,1a13.3,13.3,0,0,1,2.74-.38,16.34,16.34,0,0,0,5.15-.69,13.51,13.51,0,0,1,4.95-.13,6.45,6.45,0,0,1,1.66.54c2.63.92,3.36,3,3.37,5.52.08,15.64.06,31.27,0,46.91a12.55,12.55,0,0,1-1.65,5.68c-.5,2.3-2.52,3.08-4.19,4.23a10.7,10.7,0,0,1-4.7,2,5.55,5.55,0,0,1-4.65-2.32c-2.92-4.1-6.21-7.95-8.54-12.45-.3-1.5-.21-3.24-2.27-3.65-1.56-.52-3-.71-3.83,1.16a7.83,7.83,0,0,1-2,2.62c-4.39,6-8.63,12.12-13.07,18.08-1.13,1.51-2.09,4.1-4.28,3.55-1.85-.47-1.27-3.17-2-4.81a13.17,13.17,0,0,1-.42-2.71c-.05-1.13-.24-2.25-.34-3.37a3.66,3.66,0,0,1,.28-1.31c.63-1.91,2.32-3.8.06-5.75a5.18,5.18,0,0,1-1.31-2.92,3.41,3.41,0,0,1,.24-1.3c1.05-1.41.75-3.21,1.34-4.71.82-2.11-1.26-.41-1.36-1.17a3.91,3.91,0,0,1-.68-1.23c-.45-1.9-.26-3.89-1-5.74a17.23,17.23,0,0,1-.41-3.78,18.29,18.29,0,0,0-.59-6,18.41,18.41,0,0,1-.4-3.84,15.82,15.82,0,0,0-.61-5.3,17.76,17.76,0,0,1-.33-4.71,12.87,12.87,0,0,1,.35-2.32,25.12,25.12,0,0,0,.17-10.36c-.24-1.9.51-3.74.27-5.54-.18.87,0,1.86-.15,2.83a1.18,1.18,0,0,1-1.11.56c-1.31-.15-.64-2.47-2.37-2.13-1.47,1.53-1.54,3.35-1.18,5.26a14.83,14.83,0,0,1-3.48,8.17,6,6,0,0,0-1.53,5.91,14.91,14.91,0,0,1-3.51,8.16c-1.75,1.74-1.87,3.88-1.46,6.15-3.72,12.91-8.85,25.33-13.24,38-.5,1.43-1.17,3.14-2.81,3.13-1.94,0-2.54-2-3-3.53-3.4-10.74-6.95-21.43-10.28-32.2-.58-1.88-.23-4.52-3.06-5.08-5.76,9.37-9.92,19.53-15,29.19a46.66,46.66,0,0,1-2.57,4.84c-.62.89-1.19,2.26-2.64,1.65a2.21,2.21,0,0,1-1.1-2.57c1-4,.14-8.18.63-12.23-.14,2.52,0,5.05-.18,7.56-.05.89.8,2.55-1.31,2.46-2.92-4.11-1.16-8.63-1.19-13,1.35-6.27.46-12.6.57-18.91a23.49,23.49,0,0,1-.86-5.38c.56-10.95-.79-21.84-1.28-32.74-.36-8.09-.5-16.2-.89-24.28-.46-1.46-.45-3-.93-4.49a.91.91,0,0,0-1.31-.21,10.29,10.29,0,0,0-.49,6.45,39.33,39.33,0,0,1-.6,5.08c-8,29.64-15.14,59.5-23,89.18-.68,2.57-.47,5.88-4.11,6.72-4-2.39-1.72-6.35-2.42-9.54-.1-.51-.34-.85-1-.72-.66.33-1.25.75-1.91,1.08-1.38.55-2.37,1.71-3.64,2.37-1.66.87-3.39,1.41-4.42-1-.4-10.48-.06-20.94-.22-30.06,0,8,0,17.39,0,26.76,0,1.56.7,3.32-.7,4.7-2.31-.43-2-2.41-2-3.89-.08-7.32-.32-14.64.15-21.87-.49,3.71-2.11,7.06-2.6,10.69-2.18,7.3-3.62,14.8-6,22-.5,1.52-.56,3.81-2.54,3.83-2.31,0-2.43-2.43-2.76-4.09-1.26-6.32-3-12.58-3.11-19.08.5-2,0-4,.3-5.92.35-2.62-1.38.42-1.5-.63a3.32,3.32,0,0,1-1.44-1.59c-.66-2.18-.61-4.49-1.3-6.67a12.72,12.72,0,0,1,.12-4.52c.8-5.86.37-11.47-3.43-16.37a7.7,7.7,0,0,1-1.05-4.78,6,6,0,0,0,.52-5.69c-.34-4-1.76-7.88-1.7-12-.19-.65-1.08,0-.42-.1.26,0,.37.07.41.28a4.92,4.92,0,0,1-.43,2.83c-1.16,4.34-1.66,8.81-2.7,13.17a3.43,3.43,0,0,1-1.46,2.38c-.47-.06-1.4.28-.73-.82-.77,0-.53.53-.4.91a5.15,5.15,0,0,1,.19,2.37,8.65,8.65,0,0,1-.3,1.36c-.58,3.55-1.92,7-.57,10.68-.33,5-.6,10-3.19,14.46-1.52.41-.65-1.13-1.22-1.51a2.55,2.55,0,0,0,.53,2.21,5.15,5.15,0,0,1,.8,1.75,37.11,37.11,0,0,1-2.73,14.32c-.84.6-1.32.1-1.75-.57.09,1,.9,1.68,1.24,2.57a6.52,6.52,0,0,1,.38,2.05,8,8,0,0,1-.28,2.07,18.7,18.7,0,0,0-.67,4.07,3.83,3.83,0,0,1-.78,1.92,1.57,1.57,0,0,1-1.28.24c-.22-.62-.36.28-.3-.34.42-3.92-1.39-.25-2-.6-1.92-.53-2.3-2.05-2.45-3.73-.2-1.14.88-2.63-.95-3.31-1-.49-1.43-1.54-2.34-2-.9-.08-1.16.52-1.32,1.24a7.68,7.68,0,0,1-.22,1.18,3.29,3.29,0,0,1-2.31,2,3.63,3.63,0,0,0-2.47,2.82,8,8,0,0,1-.23,1.28,7.09,7.09,0,0,1-2.42,3c-1.09.61-1.91,2.13-3.52,1.11-.95-1.15-1.5-2.37-.8-3.86.75-.56,1.71-.91,2.06-1.92-.62.53-1,1.66-2.14.86-2.33-4.75-2.17-10.07-3.52-15a16.6,16.6,0,0,1-.33-4.56,11,11,0,0,1,.34-2.21,9.76,9.76,0,0,0,.39-4.94c-.74-2.33-.75-4.76-1.16-7.14a19.11,19.11,0,0,0,.17-3.3c0-.67-1.13.07-.48,0,.24,0,.44.27.44.6,0,.78.08,1.65-1,1.88-2.76-2.65-2.26-6.12-2.42-9.43.39-1.55,1.55-2.75,1.73-4.29-.79.11,0,1.77-1.27,1.72-1.78-.9-1.55-2.49-1.43-4,1.39-4.11-.68-8-.76-12a11.45,11.45,0,0,0,0-3.74c-.21-.66-1,.07-.33,0,.39-.06.51.3.48.7-.07.8.11,1.66-.75,2.19-3.76-3.06-2.1-7.75-3.48-11.52a10,10,0,0,1-.33-2.24,8.25,8.25,0,0,1,.23-2.1c.21-.79.49-1.55.75-2.32.15-.45.61-.87.22-1.41a1,1,0,0,1-1.12.65,3.22,3.22,0,0,1-1.15-.78c-1.71-3.86-1.84-8-2.42-12.11a3.33,3.33,0,0,1,.26-1.36,4.73,4.73,0,0,0,2-1.89c.58-.49-1-.12-.35,0s.38.12,0,.51-1,.72-1.67.3a5.76,5.76,0,0,1-1.21-4.61,6.69,6.69,0,0,0,.84-6.17c-.54-1.09.19-2.46-.8-3.41a1.75,1.75,0,0,0-1.31.63c.41,4.42-.39,8.9.92,13.24a55.22,55.22,0,0,1,.32,7.6c-.12,3.87.24,7.75-.32,11.61-1.38,5.26-.41,10.63-.68,15.94,0,1.21,0,2.42,0,3.64-1.39,11.32-.74,22.73-1.27,34.09-1.45,4.28-.27,8.78-1.06,13.12-1.61,3.58.44,7.8-1.89,11.26-2.46.89-3.74-.79-4.81-2.43-2.81-4.33-5.93-8.44-8.75-12.71-1.57-.82-1.17.76-1.59,1.34a10.28,10.28,0,0,1-.41,1.22,11.66,11.66,0,0,1-1.83,3.47,4.85,4.85,0,0,0-1.06,4.83,28.12,28.12,0,0,1-1.92,8.28,17.27,17.27,0,0,0-1.46,4.08,16.09,16.09,0,0,1-1.25,4.82c-.86,1.89-2.06,3-4.31,1.94-6.69-3.1-14.06-4.1-20.89-6.78a15.84,15.84,0,0,1-3-1.59,4.25,4.25,0,0,1-.93-1.57c-.77-10.73-.24-21.47-.3-32.21A5.47,5.47,0,0,1,198,405.93Z" transform="translate(-0.91 -0.91)" fill="#ecd300"/>
    <path d="M336.84,318.27c-2-.71,1.28-4.89-2.78-4.26-2.26,2.6-1.68,6.12-3,9-.25,6.68-2.82,12.78-4.82,19-1.83,1.85-3.74,3.64-4.19-.83-.81-8.05-2.31-16-3.31-24a17.77,17.77,0,0,1-.25-4.48c-.5.45.37,1.83-.62,2.43-1.05-1.61-.85-3.42-.84-5.2.39-6.78-1.76-13.31-2.08-20-1.46-5.49-.89-11.36-3.1-16.72-1.1.08-1.35,1.06-1.88,1.75-.9,2.23-1.65,4.49-1.15,6.95a21.93,21.93,0,0,1-1.75,8.07c-1.48,2.55-1.27,5.53-2.11,8.24-.85,2.2-.36,4.59-.95,6.83l0-.07c-1.33,1.77-.86,4.09-1.78,6-1.35,1.93-1,3.95-.36,6,0,1.4.14,2.84-.89,4-2.6,4.36-2.58,9.41-3.49,14.17s-2.06,9.14-3.08,13.87c-3.42-12.79-4.11-25.93-5.81-38.92-.46-2.11.2-4.31-.41-6.34.17,1.47.71,3-.42,4.46l-1.36-5c-4.66,12.57-9,24.51-13.59,36.39-.52,1.38.06,4-2.77,3.77-.49-.72.09-2-1.18-2.3q-6-21.58-11.94-43.18c-.16-.58-.38-1.14-1-2.93-4.37,9-10.08,16.18-11.9,25.26-.85-.94-1-1.91-.47-2.52A9,9,0,0,0,244,323c0,3.09.37,6.22-.86,9.2a4.43,4.43,0,0,1-.55-3.5c.2,1.35-.54,3.82.36,6.28-1,8.78.43,17.92-3.77,26.24A2.13,2.13,0,0,0,238,364a88.78,88.78,0,0,1-5.86,14.2A2.11,2.11,0,0,0,231,381a70.63,70.63,0,0,1-5,12.12c-4.37,5.28-11.17,5.26-16.82,7.76-1.43.64-3.36.27-4.23,2.06a15.48,15.48,0,0,1-5.76,2,5.12,5.12,0,0,1,2.88-4.71c6.22-3.51,12.25-7.38,18.42-11a7,7,0,0,0,3.65-5q8.3-36.93,16.86-73.78c3-12.77,5.92-25.56,9.44-38.18,1.8-6.43,6.9-11.23,10.63-18.39,3.74,14.38,7.13,27.41,10.85,41.74,6.76-10.84,13-21,20-32.17l3.48,29.88c3.59-23.64,7.82-47,12.62-70.59l18.25,77.46,14.36-25.54c4.64,13.8,9,26.76,13.76,40.93,1.53-5.87,2.71-10.42,4.21-16.14,2.27,6.34,4.14,11.55,6.43,17.93l24.34-58.87,16.41,52.77c6-7.17,11.76-13.76,17.22-20.54,2.13-2.64,3.18-3.28,5.09.27,3.16,5.84,7,11.28,10.28,17.08,2.13,3.8,3.45,2.86,5.48,0,6.41-9.06,13-18,20.26-28l8.55,44.64,9.12-12.19c1.5,7.24,2.83,13.59,4.13,19.94,2.1,10.24,4.21,20.48,6.23,30.74.57,2.91,1.85,4.32,5.07,3.77,6.53-1.11,13.11-2,19.67-3,1.79,1.73,1.41,4,1.41,6.11q.06,70.86,0,141.72c0,2.12.38,4.39-1.38,6.14-5,1.91-9.19,5.23-13.59,8.17-1.77,1.18-2,3.29-2.42,5.29q-6.56,33.23-13.21,66.42a12.83,12.83,0,0,1-1.2,2.36l-16-31.85c-2.55,30.65-3.69,60-7.68,90.1-4.75-4.44-7.54-9.12-10.82-13.35q-8.56-11-16.8-22.3c-2.07-2.83-3.51-2.73-5.51,0-4.69,6.45-9.64,12.72-14.28,19.2-2.22,3.09-3.46,3.34-5.27-.36-4-8.18-8.34-16.2-13-25.26L379,660.82c-3-5.64-5.66-10.47-8.25-15.31-.71-1.32-1.45-2.63-2-4-1.14-2.69-2.41-2.73-4.22-.53-3.47,4.22-7.06,8.33-11.24,13.25l-11.39-37c-3.57,15.36-6.59,29.28-11.1,42.88-1.83-9.56-7.6-16.81-13.12-25.07-3,7.59-4.93,14.92-8.35,21.65-.81,1.59-1.14,4.16-3.26,3.72-1.92-.39-1-2.86-1.06-4.4-.36-12.38-6.39-20.73-17.14-24.27-3.2-1-4.25,0-4.75,2.81-.64,3.59-1.53,7.15-2,10.76-.35,2.63-1.19,2.65-3.11,1.27-3.93-2.8-8.07-5.31-11.9-8.24-2.41-1.84-3.68-1.25-5.08,1.07-2.67,4.39-5.5,8.69-8.82,13.9-2.95-7.6-5.62-14.45-8.27-21.32-1.07-2.79-2.2-5.57-3.14-8.41a11.94,11.94,0,0,0-6.27-7.36c-2.73-1.32-3.6-3.38-3.63-6.42-.12-9.65-.69-19.28-.82-28.93,0-3.28-.92-4.8-4.42-5.07a107.71,107.71,0,0,1-11.77-2.05c-2.4-.45-4.32-1.34-4.75-4.24-3-19.85-6-39.7-9.08-59.55a14.66,14.66,0,0,1-.05-2c5.13-.1,8.55,3.22,12.18,6.09.31,3,2.91.3,3.92,1.58,3.11,2,3.57,5.17,3.28,8.35-.95,10.55-2.07,21.09-3.16,31.63a3.87,3.87,0,0,1-1,2.21c-3.14-.71-1.2-2.86-1.62-4.4.16,2.9-.58,5.88.95,8.72.46,2.2,3.56,2.48,3.65,5-.27.2-.62.41-.91.28-.6-.28-.9,0-.25,0,1.94,0,3.86-.88,5.83-.15,4.12.8,8.29.27,12.42.4s6.62,2.35,6.92,6.36c1.09,14.68,2.55,29.34,3.79,44a4.89,4.89,0,0,1-.19,1.48,4.36,4.36,0,0,0-.22,1.21c2.35-2.46,1.74,1.22,3.15,1.38,3.94-6.94,8.38-13.73,12.69-20.59.44-.71.77-1.48,1.27-2.15,1.07-1.47,2.05-3.23,4.28-2.83,2,.34,2.47,2.12,2.89,3.7,1.61,5.94,3.95,11.66,5.45,18.52,4.08-10.5,7.77-20.35,11.63-30.13.43-1.09.73-2.22,1.24-3.27.75-1.53,1.58-3.09,3.62-2.86,1.85.21,2.25,1.82,2.56,3.29,1.39,6.65,3.67,13.14,3.57,20.06a13,13,0,0,0-.47,5c.58,5.47,2.24,10.86,1.41,16.45-.05.34-.22.6.11.86a4.68,4.68,0,0,1,.27-.4c1.69.87,2.9-.18,4.16-1,2.46-1.52,2-3.93,1.91-6.25a16.54,16.54,0,0,1,3.12-7.88,11.51,11.51,0,0,0,2.8-9.76,75.13,75.13,0,0,1,3.41-12c.36-1.09,1-2.21,2.41-2.18s1.92,1.25,2.11,2.39c1.58,9.33,4.41,18.45,4.86,28-.24,1.56-1.52,2.72-1.73,4.41.54-.52.22-1.6,1.23-1.65,1.75.9,1.57,2.42,1.32,4-1.07,1.74-1.75,3.6-1.3,5.37.22-.76-.25-2.08.31-3.17,2.86,0,1.14,1.69,1.66,2.9.11-2.82-.23-5.84,1.76-8.17,2.69-3.71,3.24-7.9,2.73-12.32a37.66,37.66,0,0,1,2.91-16.11,8.42,8.42,0,0,0,2.3-5c.71-2,1.27-4.17,4.17-3.71,2.39,1.31,3.25,3.67,4.15,6,.06,1.81.42,3.43,2.4,4.14a9.43,9.43,0,0,1,3.46,4.63c1.2,3.26,2.61,1.66,4.1.38,3-2,2.37-5.69,4-8.35,1.11-2.4,1.88-4.92,3-7.3.75-1.59,1-4.16,3.06-4s1.59,2.86,2.15,4.46c.37.63-1.11,3.07,1.51,1.51a47.3,47.3,0,0,1,2.69,18.26c-1.43,1.37-1.31,3.27-1.54,4.81.7-.86-.33-2.44.87-3.39,2.4.82,1.93,2.76,1.79,4.57-.34,1.63-2.11,2.89-1.31,4.83a3.12,3.12,0,0,1,.22-2.3c2.57,0,2.12,2.14,2.38,3.61.6,3.44,1.14,6.88,1.51,11.4,2.76-5.8,5.31-10.64,7.59-15.63.74-1.63,1.08-3.54,2.92-4.46.8-.33.7.6,1.12.8.72-2.78,2.62-5.26,2.1-8.36a142.65,142.65,0,0,1,8.57-19.09c.94-1.82,1.46-4.75,4.08-4.37s2.28,3.25,2.65,5.31c-.16,2.2-.14,4.36,1.4,6.19a4.81,4.81,0,0,1,1.6,4.22,4.09,4.09,0,0,0,1.06,4.32c1.71,2,1.41,5,3.38,6.79a56.83,56.83,0,0,0,14.28-14.28c1.45-3.29,4.54-4.71,7.34-6.49a5.11,5.11,0,0,1,4.43-.3c6.92,8.23,11.83,17.37,12.77,28.3a33.37,33.37,0,0,0-.41,9.62,38.94,38.94,0,0,1,0-6.11c2-1.32,1.83.63,2.39,1.54s-.58,2.38,1.16,2.67c2.1-2.95,2.09-6.53,3.06-9.8,1.32-5.17,2.66-10.33,2.92-15.7a5.68,5.68,0,0,1,.38-2.12c1.37-1.74,1.2-3.93,1.69-5.93.73-2.73,1.72-5.44.72-8.32a9.71,9.71,0,0,1,1.25-6.52c1.78-1.73,1.54-3.76.89-5.87-.23-4,1.09-7.83,1.81-11.71.28-1.47.74-3.16,2.32-3.56,2-.5,2.87,1.12,3.65,2.62a9.82,9.82,0,0,0,5.91,7c2.45,1.21,3.52,3.72,5.24,5.61s1.44-.63,2.15-.93c1.42-1.58,1.68-3.6,2.11-5.55a10.34,10.34,0,0,0-.18-6.25,16.09,16.09,0,0,1,1.83-9c3.12-4.22,2.95-9.16,3.06-14-.59-9.71.42-11.21,9.58-14.27,2.8-.94,5.61-1.85,8.39-2.81.44-.25.9-.48,1.34-.71a3,3,0,0,0,1.05-1.1c1-7.66-.45-15.39.8-23,1-4.59.42-9.24.45-13.86.08-13.09,0-26.17,0-39.25,0-2.15.12-4.31-.65-6.38-.76-14.57-.14-29.14-.35-43.72,0-3.64.15-7.28-.15-10.91a3.24,3.24,0,0,0-.79-1.38c-4.52-2.42-9.18-.66-13.56.12-5,.89-7.88-.18-9-5.19a34.45,34.45,0,0,1-2-9c.74-2.21,0-4.13-1.15-6-2.11-9-4.21-18-6.54-28-1.56,5.51-2.89,10.24-4.23,15-1.46,1-1.28,2.9-2.56,4.27-2.2-1.23-2.44-3.77-3.84-5.43a43.92,43.92,0,0,1-5.89-9.8,10.06,10.06,0,0,0-3.77-7.06c-2.28-2.52-2.64.35-3.34,1.34-6.28,8.88-12.47,17.82-18.69,26.75-2.56-.19-2.83-2.48-3.76-4.13-4-7.15-6.76-15-11.47-21.72-2.06-.48-2.43,1.4-3.28,2.47-6,7.56-11.93,15.18-17.93,22.75-.79,1-1.34,2.66-2.89,2.43-2-.3-1.59-2.27-1.89-3.63-2-8.76-3.86-17.53-5.78-26.29a63.24,63.24,0,0,0-4.18-19l-1.42-2.53-16.37,49.7c-2.61,2.47-1.26,7.21-5.15,8.94L353,332.67c-2.51,6.22-4.74,11.78-7,17.34-2.84,1-2.73-1.86-3.93-3-.06-.6-.13-1.19-.19-1.79.17-2.61-.45-5.16-.41-6.89a2,2,0,0,1-.61,1.95A154.3,154.3,0,0,1,337.09,320a1.84,1.84,0,0,0,.4-1.32c0-.36.17-.74-.09-1.07A.79.79,0,0,1,336.84,318.27Z" transform="translate(-0.91 -0.91)" fill="#b9bcb5"/>
    <path d="M214.15,558.3c1.31-12.32,2.66-24.64,3.89-37,.28-2.83-1.21-4.68-4-5.39a1.79,1.79,0,0,1-1.86-1A79.72,79.72,0,0,0,200,508l-2.06-1.75c-2.48-6.52-1.07-13.23-1-19.87a4.22,4.22,0,0,1,.81-1.54,3.51,3.51,0,0,1,1.53-.67,4.93,4.93,0,0,1,1.58.08c4.74,1.73,9.27,4,14,5.83a5.26,5.26,0,0,1,2.46,2.2c.24,2.19,1.84.72,2.78,1a5,5,0,0,1,2.06.18,3.55,3.55,0,0,1,2.39,2.49,6.74,6.74,0,0,1,0,1.49c-.11,6.25-.24,12.49.1,18.71a2,2,0,0,0,1.8,1.41,3.69,3.69,0,0,0,3.12-2,4.34,4.34,0,0,1,2.44-2,5.4,5.4,0,0,1,1.27-.17,3.34,3.34,0,0,0,3.51-2.13,4.55,4.55,0,0,1,2.87-1.94,8.31,8.31,0,0,1,1.5-.18c3.17-.95,4.91-.13,5.42,3.5,1.39,9.82,2,19.73,2.74,29.59.62,7.95,2.46,15.88,1.3,23.17a9.3,9.3,0,0,1,.19-2.2,1.21,1.21,0,0,1,1.49-.28c1.23,1.38,1.1,3.1,1.18,4.77.08,2.32-.25,4.67.45,7,.79,4.49.22,9.1,1.16,13.19.28-1.31-.07-3.1.36-4.83,1.35-2.94,1.34-6.19,2.16-9.25a20.65,20.65,0,0,1,1.5-5.63c1.58-2.89.8-6.42,2.51-9.27,2.74-2,1.74-4.63,1-7.18,3.07-13.73,5.93-27.5,9-41.21.34-1.54.37-3.76,2.52-3.69s2.19,2.24,2.25,3.83c.15,3.64,1.27,7.18,1.1,10.84a22.3,22.3,0,0,1-.39,3.83,22.3,22.3,0,0,0-.93,5.38c0,.09.18.29.25.28s.25-.17.38-.3c4-4.58,6.6-10,9.72-15.13,1-1.7,1.87-3.54,3.61-4.69,2-.59,2.35-2.19,2.39-4a7.38,7.38,0,0,1,.84-2.67c1-1.38,1.47-3.38,3.71-3.47a3.4,3.4,0,0,1,1.33,1c1.86,4.57,1.76,9.53,1.8,14.2.09,11.29,1.33,22.52,1.27,33.8-.07,13.6,1.65,27.16,1.05,40.78a9,9,0,0,0,.55,3.38c-.65.11.38-.14.15.44s.11.6.24.11c.49-1.88.28-3.83.66-5.73a57.74,57.74,0,0,1,2.1-7.32c4.53-18.8,8.32-37.75,12.4-56.64.63-2.93,1.25-5.86,2-8.76.37-1.33.39-3.15,2.56-3.07,3.31,3.61,1.56,8.29,2.62,12.36.75,2.48.19,5.07.59,7.56a1.35,1.35,0,0,0,1.38.14c1.19-1.62.95-3.49,1-5.3.5-9.52,3.81-18.39,6.27-27.46a2.59,2.59,0,0,1,2.45-2.16c1.42.1,1.65,1.53,1.78,2.64.76,6.45,3.44,12.45,4.38,18.86.14,1-.44,3.63,2.35,2.34,2.18-.52,2.42-2.25,2.52-4a6.19,6.19,0,0,1,.9-2.54,16.74,16.74,0,0,0,2.29-4.27c2.45-4.13,4.56-8.46,7.27-12.43.76-1.1,1.68-2.17,3.2-2s1.92,1.68,2.22,2.94c2.86,12.41,6.35,24.68,8.47,37.25-.17,1.92-.9,3.93.77,5.6.74.87,1,2.15,2.18,2.61,1.13-.74.37-1.82.53-2.72.65-3.71,2.4-7,3.81-10.47a4.93,4.93,0,0,1,1.36-1.58c2.87-2.28,3.68-5.44,3.77-8.9.36-2,.08-4.34,2.33-5.57.74-.3,1.19,1.23,1.23.72.2-2.4,1.82-4.46,1.45-6.94.17-1.84.36-3.67,2.15-4.77,1.05.54,1.34.25,1.49-1,.32-2.42,1.9-4.52,2-7a5.57,5.57,0,0,1,.72-2c2.5-3.51,4.25-1.27,6,.79,3.27,4.13,3.89,9.35,5.72,14.07,1,2.61,1.74,5.34,4.15,7.09,1.36.79,1.58-.25,1.85-1.18a8.57,8.57,0,0,1,.22-1.23,3.12,3.12,0,0,1,2.21-2,3.13,3.13,0,0,0,2.08-2.57,9.84,9.84,0,0,1,.38-1.2,3.65,3.65,0,0,1,2.25-2.13,2.43,2.43,0,0,0,1.88-2,7.13,7.13,0,0,1,.21-1.21,4.67,4.67,0,0,1,3.05-2.84,2.29,2.29,0,0,0,1.74-1.94,7.43,7.43,0,0,1,.22-1.16,3.3,3.3,0,0,1,2.29-2,2.8,2.8,0,0,0,1.95-3.68c3-4.14,4.07-4,6.32,1,1.37,6.54.61,13.35,2.63,19.8a10.23,10.23,0,0,1,.4,2.34,8.82,8.82,0,0,1-.33,3,6.78,6.78,0,0,1-.66,1.32c-.52.83-1,1.67-.47,2.69-.24-1-.34-2,1.22-1.81,2.74,5.13,1.92,11,3.34,16.38.13,1.81-.07,3.65.55,5.4a13.59,13.59,0,0,1,.39,2.28,17.22,17.22,0,0,0,.74,5.29,13.87,13.87,0,0,1,.4,2.39c.95,9.18,2.54,18.28,3.44,27.46a29.52,29.52,0,0,1,.18,5.39c.16,1.63-1.14,3.12-.47,4.76a8.06,8.06,0,0,0,.31-2.2,51.39,51.39,0,0,1,1.11-7.63,4.33,4.33,0,0,1,.58-1.23c.59-.83,1.34-.11,2-.19-.52-.56-1.06-1.08-1.61-1.62a2.7,2.7,0,0,1-.39-1.27c.06-.91.25-1.8.39-2.7a18.35,18.35,0,0,1,.4-2.09c.88-1.84-.3-4.61,2.5-5.59a1.43,1.43,0,0,1,.6,1.63c.12.65.89-.51.46,0-.46-1.41-1.33-2.64-1.78-4.06.14-3.36-.46-6.92,2.47-9.55,1.5.25.37,1.9,1.3,2.6-1.14-3.61-.24-7,.36-10.44.41-2.3.78-4.51-.6-6.6a4.16,4.16,0,0,1-.35-1.47c.61-2.61-.17-5.63,2.18-7.74.15-1,2.24,1.39,1.65-1a8.35,8.35,0,0,1,.18-3.88c.54-6.12,3.25-12,1.77-18.34a12.15,12.15,0,0,1,0-4.88c1-2.25.09-4.95,1.7-7,1.52,1.26,1.52,1.26,1.28,3.64,1.2-4.18-1-9.27,3.14-12.66,2.8-1,4.18,1.12,5.07,2.86,3,5.95,8.41,10.33,10.81,16.88,2.89-2.62,3.08-6.75,6.08-8.93,2.94-.83,1.66-3.4,2.14-5.24A12.61,12.61,0,0,1,497.9,483c1.35.27,2.05-1,3.12-1.36a3.34,3.34,0,0,1,1.3,0,27.87,27.87,0,0,1,3.72,1.72c2,1.68,5.39,2.05,5.41,5.64-.16,5.8-.05,11.59-.08,17.38,0,2.33,0,4.65-1.2,6.76-3.69,1.34-7.29,3.19-11.1,3.91-5.6,1.05-6.82,4.79-7.15,9.48-.07,1.15,0,2.3,0,3.45-.82,4.71-1,9.57-3,14a29.44,29.44,0,0,0-1.82,9c1,1.52-.34,3-.11,4.5-.9,2.43-.75,5.15-2,7.48-.86,1.51-1.6,3.29-3.55.94-1.71-2.06-3.54-4-5.32-6a16.51,16.51,0,0,1-6-6.12c-.35-1.56-1.39-2.52-3.24-3.75-1,5.65-1.88,10.82-2.78,16,.82,1.89-.11,3.43-1,5a17.59,17.59,0,0,0-1.19,6.77,24.75,24.75,0,0,1-1.33,8.27c-.41,2-.24,4.14-1.44,6,0,.69,0,1.37,0,2-1.2,4.72-2.07,9.52-3.19,14.26-1.3,4.22-1.4,8.81-3.84,12.69-1.82,1.56-1.93,1.58-2.07.31-.25-2.21.28-4.52-.92-6.59-.82-.71-1.62-1.42-1.2-2.69.64-5.23-2.28-9.45-4.14-13.91A64.4,64.4,0,0,0,435.88,584c-1.82-1.66-2.92-.5-3.93,1-2.47,1.84-5.35,3.19-7,6a109,109,0,0,1-15,14.94c-3.52-1.53-1.93-5.64-4-7.92a5.15,5.15,0,0,1-1-4c0-1.62,0-3.24-1.85-4-1-1.9-.62-4-1-6L400.55,578l-1.13-.27q-5.64,12.13-11.27,24.28a11.29,11.29,0,0,1-3.17,6.89l-11.56,23.4c-1.22-6.82-2.27-12.68-3.31-18.53-.73-.52-.64-1.12-.2-1.77,0-1.78.22-3.58-.83-5.18-.33-.16-.45-.33-.37-.53s.17-.32.27-.32a119.69,119.69,0,0,0-2.86-19.21c-.65-.42-.75-1.16-1-1.78-.87-1.6-.17-3.59-1.52-5.44-2.81,4-3.58,8.77-5.78,12.85-1.2,2.85-1.71,6-3.84,8.42-1.26,1.06-.86,3.78-2.56,3.81-2,0-2.12-2.53-3.07-4-1.07-1.61-2.17-3.2-3.25-4.8-1.62-.76-2.12-2.18-2.24-3.83L339,586c-3.47-2-2.62,1.35-3.35,2.74-.42,1.81-.33,3.77-1.61,5.31-1.37,5.61-3.32,11.12-2.91,17-.83,4.05-1.27,8.19-3.15,12l-2.54,8.58c-.53-1.47-.94-2.62-1.36-3.77-.72-.52-.63-1.13-.18-1.77a6.51,6.51,0,0,0-.74-4.34c-.87-.45-.68-1-.24-1.67-1-10.34-3.81-20.33-6.51-30.71L312.05,604a18,18,0,0,1-3,9l-3,8c.19,2.27-.94,4-2.26,5.67-.34.53-.65,1.08-1,1.59-.62.87-.76,2.5-2,2.42-1.7-.11-.69-2.18-1.6-3-1.62-5.4-.22-11.28-2.62-16.56.08-1.69-.37-3.42.34-5.07-.52-7.15-2.62-14-4-21-.16-.85-.38-1.81-1.31-1.9-1.89-.17-1.9,1.63-2.33,2.73-4.34,11.14-8.6,22.31-12.88,33.48-.23.61-.49,1.21-1.16,2.86-2.33-7.63-4.31-14.38-6.49-21.07-.47-1.43-.14-3.82-2.24-4-1.95-.15-2.36,2.12-3.19,3.45-5.19,8.28-10.27,16.63-15.8,25.62-.57-2.84-1-4.72-1.34-6.6-1.14-1.33-.78-3-1.16-4.55-.16-2.38.27-4.8-.39-7.15-.08-1.33-.59-2.58-.61-3.92-.15-2.36.26-4.75-.4-7.09-.07-1.32-.58-2.58-.6-3.91-.15-2.36.26-4.76-.4-7.09a19.06,19.06,0,0,0-.53-3.9c-.28-2.31.21-4.68-.44-7-.86-6.09-1.08-6.31-6.81-6.73-3.16-.65-6.35-.18-9.52-.33a14,14,0,0,1-2.43-.16c-1.45-.81-3.31.32-4.65-1-2.59-.58-5.16-1.19-4.38-4.83A2.87,2.87,0,0,1,214.15,558.3Z" transform="translate(-0.91 -0.91)" fill="#ecd300"/>
    <path d="M517,518l0-154c0-24.48,0-49,.16-73.44.05-10.77,8.44-17.85,18.31-15.69a14.81,14.81,0,0,1,11.6,13.33c.12,1.5.07,3,.07,4.5q0,166.38,0,332.77a30.13,30.13,0,0,1-.57,7.43,14.94,14.94,0,0,1-29.34-3.52c-.24-4.82-.06-9.66-.07-14.48Q517.06,566.44,517,518Z" transform="translate(-0.91 -0.91)" fill="#204a86"/>
    <path d="M196.12,505.85q-.06,60.72-.13,121.44a33.54,33.54,0,0,1-.4,7,15,15,0,0,1-29.54-2.48c-.06-.83-.05-1.66-.05-2.5q0-167.92,0-335.86c0-8.6,4.12-14.55,11.13-16.32,9.85-2.48,18.74,4.48,18.84,15,.13,15.5,0,31,0,46.48q0,33.74.13,67.47c-.07.27-.15.54-.21.82a8.22,8.22,0,0,0-.43,1.69q-.24,47.39,0,94.76a10.8,10.8,0,0,0,.4,1.68Z" transform="translate(-0.91 -0.91)" fill="#204a86"/>
    <path d="M196.14,406.06a1.71,1.71,0,0,1,.84.09c1.12,6.58.43,13.21.46,19.81.09,17.24,2,34.47.84,51.68-.61,9.39-.27,18.81-1.31,28.17l-.43.06-.42,0-.26,0c-1.17-1.62-.84-3.5-.84-5.3q0-44.59,0-89.18c0-1.8-.33-3.68.85-5.3Z" transform="translate(-0.91 -0.91)" fill="#ddc90a"/>
    <path d="M197,505.81q0-49.83,0-99.66l1-.22L198,443c1.36,1.46,1.38,3.3,1.38,5.13q.06,15.86,0,31.72c0,1.83,0,3.66-1.39,5.13l-.09,21.25Z" transform="translate(-0.91 -0.91)" fill="#fcde00"/>
    <path d="M74.64,320,97.21,304.1c1-1.43,2.53-2.15,3.94-3.05a5.12,5.12,0,0,0,4.91-2.18c.79-1.07,1.44-1,2.07.12,1.85,3.06.33,6.23.34,9.35-.75,1.83,0,4-1.28,5.7-3.33-.42-2.13-3.08-2.47-5,.1-.79,0-1.66.83-2.25-14.93,11.74-30.27,22.94-45,34.92a20.13,20.13,0,0,0-4.36,4.75c-1.32,2.34-3,4.5-4.12,6.94-.89,1.57-1.46,3.33-2.79,4.64-1.15.55-1.7-.12-2.11-1.05L50,351c.69-2.5,1.39-5,3.34-6.9,4.47-4,6.93-9.63,11.1-13.88A28.23,28.23,0,0,1,74.64,320Z" transform="translate(-0.91 -0.91)" fill="#fdfdfd"/>
    <path d="M49,358l2-5c16.57-12.72,32.72-26,49.45-38.54,1.3-1,2.81-2.45,4.41-1.34,1.82,1.25.67,3.34.51,5.09-14.11,8-24.33,20.31-35.41,31.68a3,3,0,0,1-2.32,1.42c-3.17-3.67,1.55-3.93,2.33-5.85-5.28,5.1-11.56,9.12-17.48,13.6-1.35,1-2.56,2.78-4.74,1.9C47.05,359.5,47.85,358.67,49,358Z" transform="translate(-0.91 -0.91)" fill="#edf1f5"/>
    <path d="M105.38,318.21c-1.92-1.16.76-3.24-1.47-4.76-5.1,3.86-10.46,7.86-15.77,11.92-11.38,8.7-22.08,18.28-34.06,26.2-1,.64-1.82,1.45-3.07,1.43l4-7c14.89-11.84,30.26-23.05,45.09-35,1.69-1.36,3.2-3.48,5.91-3,.3,2-.76,4.21.92,6a2.45,2.45,0,0,1,.85,2.64,2.32,2.32,0,0,1-.87,1.15Z" transform="translate(-0.91 -0.91)" fill="#f4f6f8"/>
    <path d="M48,361l23.18-17.22c0,3.43-4.81,3.77-3.44,7.21.81,2.63-2.24,3.12-2.78,5l-5,3.92c-4.29-.24-6.12,3.69-9.24,5.44-1.93,1.08-3.29,3.78-6.17,2.22C45.2,365.11,44.65,362,48,361Z" transform="translate(-0.91 -0.91)" fill="#e5eaf1"/>
    <path d="M45,368c4.23-3.12,8.5-6.19,12.66-9.4,2.08-1.6,2.46-.75,2.32,1.31-1.75,3.71-5.21,6-7.49,9.31-3,.31-4.68,2.73-7,4.19-1.38.88-2.41,2.92-4.58,1.58-.1-3.41,1.45-6.28,3-9.15C44.78,366.31,44.26,367.47,45,368Z" transform="translate(-0.91 -0.91)" fill="#e0e6ee"/>
    <path d="M41,375c2.44-.75,3.87-2.92,5.91-4.2,1.66-1,3.16-3.21,5.63-1.57Q46.74,376.63,41,384c-1.72-.31-1.24-2-1.88-3A14,14,0,0,1,41,375Z" transform="translate(-0.91 -0.91)" fill="#d9e0ea"/>
    <path d="M106.9,317.79a1,1,0,0,1,.26-.82c.93-2.77-.21-5.72.74-8.49q.1-4.74.23-9.49c.74-.19,1.88-.75,1.81.6-.31,5.93-.75,11.84-1.27,17.75C108.59,318.23,107.76,318.7,106.9,317.79Z" transform="translate(-0.91 -0.91)" fill="#174382"/>
    <path d="M74.64,320,64.4,330.21c-1.42-.85-.55-1.68.18-2.23C68,325.39,69.69,320.65,74.64,320Z" transform="translate(-0.91 -0.91)" fill="#0c387b"/>
    <path d="M45,368c-.89-.45-1-1.33-1.08-2.16q1.63-4.43,3.25-8.83L49,358c-.34,1-.67,2-1,3C46,362.89,45.71,365.54,45,368Z" transform="translate(-0.91 -0.91)" fill="#eff2f6"/>
    <path d="M39.13,381c.63,1,1.26,2,1.88,3-.77,1.39-1.36,3-3.87,3C37.86,384.89,38.49,383,39.13,381Z" transform="translate(-0.91 -0.91)" fill="#dbe2eb"/>
    <path d="M53.3,344.09A19.74,19.74,0,0,1,50,351C49.1,347.74,50.67,345.66,53.3,344.09Z" transform="translate(-0.91 -0.91)" fill="#1a4382"/>
    <path d="M65,356c-.17-2.28,2.28-3.1,2.78-5,.4-1.06,1.38-.95,2.23-1.1C69.61,353,67.14,354.37,65,356Z" transform="translate(-0.91 -0.91)" fill="#0c397b"/>
    <path d="M101.15,301.05c-.56,2-2.36,2.38-3.94,3.05C96.86,300.93,99.49,301.62,101.15,301.05Z" transform="translate(-0.91 -0.91)" fill="#1f4685"/>
    <path d="M232.13,514.08l-2.2,1.87c-1,1-2,1.84-3.55,1-2-1.76-1.66-4.16-1.71-6.43-.1-4.43.06-8.86,0-13.28-.14-.44-.27-.89-.42-1.32l-2.53-1.74a13.21,13.21,0,0,0-7-3.07,84.07,84.07,0,0,1-13.82-6.06,8.67,8.67,0,0,1-1.21-4.23c0-11.87-.45-23.74.26-35.61a3.47,3.47,0,0,1,1-1.54c7.32,2.33,14.69,4.53,21.93,7.09,1.61.56,1.75-.33,2-1,.6-1.87,1-3.81,1.42-5.73,1.53-.51,1.71-1.74,1.65-3.1.67-3,1.34-6,2-9-.34-1.39.44-2.56.75-3.82,1.92-.76,2.37-2.32,2.29-4.17l.18-1a15.75,15.75,0,0,1,2.83-2.64L248.08,437c.94.73,1.37,0,1.81-.65a28.36,28.36,0,0,1,.59-4.94c1-17,1.45-34,2.09-51,1.05-8.22-.15-16.52.94-24.74.46-3.54-.19-7.23,1.55-10.59,2.59,1.31,1.82,4,2.35,6.09.35,1.39-.06,3,1.42,4l.38-.17a3.36,3.36,0,0,1,.86,3.08l-.15,2.06c-.89,1.33-.16,2.86-.63,4.67.48-1.23-.16-2.34.85-3l2.79,12.42a2.85,2.85,0,0,1,.76,1.35c.32,3.85,2,7.53,1.35,11.5,0,1.46-.08,2.94.84,4.22.75.49.64,1.1.23,1.74a34.94,34.94,0,0,0,1.82,10.18,2,2,0,0,1,.68,1.16c.49,2.25.78,4.53,1.2,6.78a6.23,6.23,0,0,1-.22,1.36c.16.77-1.37,1.5,0,2.3.58.25.88.6.53,1.23l-.29,2.13a9.91,9.91,0,0,0,0,5.24c1.15,5.07,2,10.18,2.69,15.32.22,1.69.28,3.26,1.86,4.27.73-.86,1.11-2.17,2.61-2,1.35-.5,2.4-1.25,2.33-2.89h-.51c0-1.85,1.32-2.65,2.73-3.36,1.83.08,2.73-.83,2.78-2.63h-.52c-.08-1.64,1.05-2.33,2.28-2.94,2.31-.19,1.59,2.36,2.84,3.13.75.79,1.73,1.49,1.11,2.82a9,9,0,0,0,1.8,4.35c.88.15,1.14,1.78,2.4,1a5.54,5.54,0,0,1,.71-.57c.65.29.36,1,.73,1.47-.32-1,.23-2.24-.52-3.22a6.3,6.3,0,0,1,.78-4.27c.46.21.36.82.76,1.07-.34-.91.17-2-.55-2.8l-.28-2.13a1.61,1.61,0,0,1,.18-2c1.76-4.85,2.26-9.95,2.89-15-.4-.64-.51-1.24.24-1.73A94.77,94.77,0,0,0,301.94,396a3.74,3.74,0,0,1-.31-2.76c2.3-.91,1.65.8,1.73,1.79,1-1.8-1.2-2.31-1.67-3.58,1.43-1.92.13-4.46,1.43-6.41l-.07.07a3.31,3.31,0,0,1,1-1.36c1.48-.34,1.2-1.83,1.79-2.78.17-1.65.1-3.34.81-4.88.5-1.09.14-3.09,2-2.89,1.56.17,1.65,2,1.75,3.21a82.16,82.16,0,0,0,5.07,21.87c.5,1.19,1.46,2.31.59,3.72l-.21,5.07c.5,2.61.17,5.38,1.41,7.85a2.27,2.27,0,0,1,.4,1.38,6,6,0,0,1-.4,1.77c.41-.44.44-1.25,1.27-1.28,2,1,.73,3,1.4,4.39.59,8,2.78,15.7,5.08,23.56q3.6-12.87,7.18-25.74c.93-1.16.83-2.85,2.91-4.92.76,7.12.15,13.3.37,18.13.38-7.49-.23-16.33-.39-25.16-.1-1.52.24-2.92,2.13-5.47v32.38c.94.75,1.82-.64,2.75-.07l7.1-3.72c2.52,1.12,2.21,3.44,2.27,5.54.15,4.78-.07,9.57.13,14.33.16.56.47,1,1.14.91.94-1.38.69-2.86.51-4.34.05-2.21-.62-4.55,1.05-6.51,3.68-5.13,4.2-11.43,5.61-17.21,2.82-11.56,5.79-23.08,8.71-34.61q4.66-18.37,9.45-36.71c.66-2.54,1.51-5,2.27-7.56,3.77-.52,3.86,2.39,4.05,4.72.38,5,.06,9.94.19,14.91,1.41,18.68,2.67,37.36,2,55.79.21-2.14-.13-4.62.17-7.08a1.14,1.14,0,0,1,1.51-.42,14.62,14.62,0,0,1-.07,7c0,4.45-.39,8.94.77,13.33,1.13,2.62.73,5.37.91,7.34,7.08-12.39,12.54-26.48,20.47-39.31,2-3.17,2.33-1.1,2.94.86q5.67,18,11.44,36c.5,1.56,1.09,3.09,2.11,6C430,428,435,414,439.86,400a16.53,16.53,0,0,1,1.3-5.93c2.63-2,2.74-5.26,3.7-8.07a16.32,16.32,0,0,1,1.3-5.93c2.64-2,2.73-5.26,3.7-8.07,0-1.35.46-2.32,2-2.46,4.06,2.35,3.33,6.65,3.35,10.08.06,9.75,1.55,19.33,2.59,29,.23,2.13-.07,4.3.52,6.39,1.66,2.17.09,4.71.76,7,1.29.69.86,2,1.17,3.09,0,.22,0,.44.07.66.36,2.1-1,4.13-.23,6.24,1.26.75,1,1.95.9,3.1-1.08,2,0,4.24-.52,5.93,0,1.06,1.16.48.49.5,0,0,0,0-.08-.13a3.26,3.26,0,0,1,.31-3.59c.35,1.42.69,2.84,1.22,5L479,420.32c1.38-.16,2.49-.53,1.78-2.3,2.15-3.59,2.3-3.62,5.19-1,1.1.71,2.36,1.31,2.14,3,2.45,4.47,6.22,8,8.6,12.57.66,1.25,2.13,3,4.33,2.7,2.76.05,4.25-2.5,6.64-3.24,4.34-.84,3.53,2.6,3.58,4.72.22,9.44.09,18.89.09,28.34,0,5.3.15,10.61-.09,15.9-.1,2.29-.14,5.11-3.91,3.62-1.7-1-3.23-2.45-5.38-2.57l-1-.05a5.74,5.74,0,0,0-2.12,1A26.84,26.84,0,0,0,495,491c.15,2-.89,3.42-2.19,4.75-2.45,3.34-3.22,7.65-6.27,10.72l-15.43-21.71c-1.64-.63-1.89.63-2.33,1.68-.36.86-.51,2-1.89,1.69-.05-.1-.24-.25-.22-.38.07-.66,0-1.05,0-.38.21,4.72-2.39,9.1-1.64,13.88,0,1.58,0,3.17-.05,4.75.65,1,.55,1.8-.68,2.23-1-.14-.46-1.23-1.11-1.76.32,1.42.78,2.67.48,4-.78,4.56-1.41,9.15-2.29,13.69-.13,1.57,0,3.19-.92,4.61-1.85,2.45-.39,5.71-2,8.22.21,1.86,1.18,3.52,1.38,5.38-.75,3.4-.37,7-2.05,10.25a42.26,42.26,0,0,0-1.71,10.41c.41.65.5,1.25-.21,1.77-.58,2.15-1.16,4.29-1.75,6.44-.76-.29-.39-1.14-.81-1.61.41,1.07-.27,2.33.6,3.31.14.89,0,1.67-.91,2.08-.81,1.28-.33,2.6-.12,3.91-.34,3-.69,6-1,9a1.49,1.49,0,0,1-2,.26,2,2,0,0,1,0-2.13c-.42-9.79-2.25-19.42-3.36-29.14-.22-2-.33-3.95-.5-5.93.92-1.46.26-3,.44-3.82a1.87,1.87,0,0,1-.61,2.08c-1-1.65-.86-3.47-.78-5.28,1-2.1-.53-4.16-.1-6.25-1.2-7.87-2.45-15.73-3.31-23.64a22,22,0,0,1-.79-4.83c-1.39-4.42-.73-9.12-1.83-13.59-.31-1.25-.13-2.63-1.12-3.67-.72-.74-.27-2.66-1.54-2.43-.86.15-3,.34-2.4,2.45.59,1.46-.6,1.87-1.45,2.49-1.72.67-3.81.95-3.77,3.51h.51c.08,1.33-.71,2-1.84,2.36a3.7,3.7,0,0,0-3.66,3.63h.51a2.28,2.28,0,0,1-1.8,2.36,2.33,2.33,0,0,0-2.74,2.54,2.91,2.91,0,0,0,.15.58,3.58,3.58,0,0,1-2.41,2.87c-1.84-.09-2.69.86-2.77,2.63h.51c.1,1.65-1,2.34-2.3,2.88-3.08.2-3.67-2.23-4.46-4.34-2.2-5.83-4.33-11.69-6.49-17.54-1.8-1-1.43-3.11-2.38-4.67-1,1.07-1.45,2.62-2.55,3.66l-.09,1.89c-1.67,2.49-1.86,5.72-4,7.95a9.37,9.37,0,0,0-1.87,5.19,8.82,8.82,0,0,1-2.55,5.29c-1-.76-1.65-.42-1.78.77-.23,2.11-1.89,4-1.14,6.24a13.63,13.63,0,0,1-2.57,6.79c-1.67.27-2.49,1.13-2,2.9q-2,5.49-4,11c.54,1.31-.4,2-1.1,2.87-3.49,1.61-1.46-2.43-2.94-2.88-.74-1.56-1.84-3-1.08-4.94l-9.66-42.14-10.14,16.23c-1.17,1-2.33,2.05-2.2,3.82-.26.7-.51,1.39-.76,2.08.1,1.76-1.09,2.77-2.21,3.82-1.4.86-1.19,3.11-3.52,3.77-1.18-9.21-4.77-17.77-6.23-27.1-2.85,9.7-6.57,19.13-7.2,29.37-1.53,1-.22,3.78-2.62,4.27-2.69-2.86-.54-6.79-2.16-9.88-.49-2.24.31-4.61-.72-6.79a7.64,7.64,0,0,1-.48-2.76c0-.35.43-.93-.24-1-.12,0-.46.74-.89,1-3.94,17.87-7.82,35.76-11.88,53.61-1.21,5.34-1.79,10.83-3.84,16-1.53.9-2.7.67-3.2-1.15a21.08,21.08,0,0,1-1.27-6.33c.36-12.13-.86-24.21-1-36.32-.15-12.45-1.65-24.86-1.13-37.3a4.68,4.68,0,0,0-.79-2.24c-.51-.4-.86,0-1.22.29a3.89,3.89,0,0,1-1.65,1.54l-.79.35c-1.24,1-2.37,2-2.2,3.82l-.76,2.08c0,1.72-1.2,2.7-2.21,3.81-4.2,6.67-8.41,13.32-12.56,20a2.7,2.7,0,0,1-1.87,1.39,5.16,5.16,0,0,1-.41-1.54c-.58-2.9,1.26-5.78,0-8.68q-.71-7.34-1.42-14.68c-4.85,15.06-6.93,30.68-11.55,45.67,1.61,2.28.27,4.11-.93,6-.85,3-.25,6.3-2.11,9a5.06,5.06,0,0,0-1.17,6c-1.9,2.73.24,6.71-2.78,9.1-1.64.2-1.91-1-2-2.14-.93-8.14-1.53-16.32-2.57-24.45-1.59-9.6-1.94-19.33-2.79-29-.49-5.58-1.26-11.13-1.51-16.72a16.56,16.56,0,0,0-1.52-2.2c-1-.74-1.93.05-2.89,0-1.37.18-2.85.08-3.75,1.46l-2.21,1.88a1.61,1.61,0,0,1-1,.6C234.51,512.85,233,512.6,232.13,514.08Z" transform="translate(-0.91 -0.91)" fill="#ee2929"/>
    <path d="M289,310c2,6.28,2,12.89,2.78,19.33.77,6.18,1.92,12.31,2.81,18.55,1.46-7.76,3-15.51,4.35-23.29.28-1.56.49-2.92,2.12-3.58-2.21,12.27-5.41,24.37-6.12,36.89-2,.72-1-1.55-1.95-1.89l-.09-5.7c-.87-1.67.15-3.62-.8-5.28a131.16,131.16,0,0,1-2.22-19.67c-.83-1.69.15-3.65-.77-5.33l-.21-2.72c-.85-1.67.1-3.6-.75-5.27l-.13-2C288.35,309.51,288.68,309.51,289,310Z" transform="translate(-0.91 -0.91)" fill="#b8bcb9"/>
    <path d="M383,336a2.88,2.88,0,0,1,1,2.68c-.73,10.94.49,21.86,1.3,32.7.72,9.54-.49,19.2,1.71,28.62a1.62,1.62,0,0,1-2.69-.54c-.68-2.65.12-5.43-.77-8.06a39.05,39.05,0,0,0-.52-6.75c0-4.14,0-8.27,0-12.41a74.35,74.35,0,0,0-.87-12.2c-.22-2.58-.08-5.16-.13-7.74a83.94,83.94,0,0,0-.6-11.43,5.58,5.58,0,0,1-.12-2.37A3.6,3.6,0,0,1,383,336Z" transform="translate(-0.91 -0.91)" fill="#ecd703"/>
    <path d="M408.23,400.32q-10.1,20.54-20.17,41.06l-1.21-.13V421.07h1v14.84l.93.36c1.52-3,3.06-6,4.57-9l13.44-26.78c.13-.26.42-.61.64-.62S408,400.15,408.23,400.32Z" transform="translate(-0.91 -0.91)" fill="#ece101"/>
    <path d="M506,483c2.84,1.81,4.14,1.76,4.08-2.33-.2-14.76-.15-29.53,0-44.3,0-3.17-.53-4.86-4.06-3.36-.37.44-.72.41-1.06,0l4-3a1.92,1.92,0,0,1,1.78-.22c2.26,1.92,1.61,4.56,1.63,7,.11,15.74-.06,31.47.11,47.19,0,.83.31,1.64.34,2.47a3.2,3.2,0,0,1-.45,1.47l-.66.4L511,488l-5.95-4.11C504.88,483,505,482.5,506,483Z" transform="translate(-0.91 -0.91)" fill="#f12022"/>
    <path d="M253,380q-.5,24.92-1,49.82c0,1.16.08,2.36-1,3.18a.89.89,0,0,1-1.39-.33,5.73,5.73,0,0,1,.26-2.53c1.27-5.76.08-11.66,1-17.44-.13-11.58.34-23.13,1.16-34.68C253.88,378,253.61,378.9,253,380Z" transform="translate(-0.91 -0.91)" fill="#ee1f2b"/>
    <path d="M458,416c-1.76-4.18-1.38-8.7-1.92-13.05-1.26-10.16-2.11-20.37-3.07-30.57-.13-1.34-.55-2.23-2-2.38-1.15-1.6-.48-2.85.77-4,.3-.73.85-1.84,1.48-1.5,1.71.92.72,2.7.85,4.13,1.13,1.89,1.07,4.1,1.69,6.13a27.15,27.15,0,0,1,.17,3.93c.36,1.76-1.05,3.48-.13,5.25l.26,4.67c.8,1.7-.11,3.64.74,5.33l.24,3.75c.93,2-.17,4.25.76,6.25l.24,3.75c.92,2-.16,4.25.76,6.25l.34,1.08-.24.5A1.75,1.75,0,0,1,458,416Z" transform="translate(-0.91 -0.91)" fill="#ee2629"/>
    <path d="M314.81,399c-3.52-2.93-2.46-7.4-3.53-11.11-1.3-4.51-1.67-9.28-2.46-14.05-2.77,2.26-.73,5.89-2.81,8.16-.76-.44-.31-1.42-.87-1.95.67-4.85.95-9.77,2.94-14.35,3,1.43,1.89,4.6,2.78,6.91.52,1.32.18,3,.91,4.35a5,5,0,0,1-.6,4l1.26,4.89A19.14,19.14,0,0,1,314.81,399Z" transform="translate(-0.91 -0.91)" fill="#ee2629"/>
    <path d="M253,380a2.07,2.07,0,0,0-.95-2l.06-3.06c1.15-5.39-.31-10.91.78-16.3l.24-11.7a22.74,22.74,0,0,0,0-9.26c.58-2.63-1.76-6,1.92-7.84,1.35,1.67,1.1,3.39.17,5.14q.62,2.44,1.21,4.91a.87.87,0,0,1-.2,1.06,1.87,1.87,0,0,0-.13.91A6.15,6.15,0,0,1,256,345c-2.33,6.3-1.74,12.89-2,19.41C253.69,369.61,255.23,374.93,253,380Z" transform="translate(-0.91 -0.91)" fill="#ee232a"/>
    <path d="M509.88,429.92,509,430c-.82-2.28,1.25-3.89,1.2-6.26-.31-15.38-.22-30.78-.1-46.17,0-2.6-.46-4.45-3.05-5.34,4.1-1.38,4.88-.94,4.94,3.42.13,9.79.08,19.58,0,29.38,0,7.63.22,15.27-.14,22.9A2.63,2.63,0,0,1,509.88,429.92Z" transform="translate(-0.91 -0.91)" fill="#f5d800"/>
    <path d="M511.09,428.75c0-17.48-.1-34.95,0-52.43,0-2.94-.32-5.05-4-4.1l-1-.26c1.63-2.84,3.92-1.19,6-.88l0-.09c1,1.53.52,3.25.52,4.87q.06,25,0,50v1.8c0,.29,0,.59,0,.88C512.09,429.16,511.64,429.24,511.09,428.75Z" transform="translate(-0.91 -0.91)" fill="#d4c856"/>
    <path d="M319,317c2.54,7.63,2.91,15.66,3.85,23.54.45,3.78,1.72,2.34,3.44,1.52-.94,3.07-2.43,6-2.26,10.53-3.22-3.45-1.53-6.64-2.11-9.34-.93-1.64.19-3.6-.83-5.23-.06-.58-.12-1.17-.17-1.76-.93-1.64.19-3.61-.84-5.24-.06-.58-.11-1.16-.17-1.74-.91-1.65.2-3.63-.83-5.26l-.17-1.74c-.65-1.5-.33-3.07-.33-4.62Z" transform="translate(-0.91 -0.91)" fill="#b8bcba"/>
    <path d="M420.83,323.25c2.18-.94,1.82,1.22,2.25,2q4.8,9.24,9.34,18.6a17,17,0,0,0,3.64,5.21c-1,2.48-1.8,1.75-2.69-.08Q427.12,336.12,420.83,323.25Z" transform="translate(-0.91 -0.91)" fill="#b5bac5"/>
    <path d="M335.08,407c1.95,3.77.69,7.8.86,11.7a81.42,81.42,0,0,1-.78,16.19v-19c-1.72.7-.86,3.27-3,3.08C332.27,414.79,334,411,335.08,407Z" transform="translate(-0.91 -0.91)" fill="#ee202b"/>
    <path d="M200.09,484.93c-.33,0-.65,0-1,.05-1.27-3-.51-6.2-.55-9.3-.12-9.28-.08-18.56,0-27.85,0-1.6-.56-3.32.59-4.8l1.8.68.1.46c-1.19,5.08-.33,10.23-.53,15.35C200.19,468,201,476.47,200.09,484.93Z" transform="translate(-0.91 -0.91)" fill="#ed8812"/>
    <path d="M199.13,443q0,21,0,42L198,485q0-21,0-42Z" transform="translate(-0.91 -0.91)" fill="#eced00"/>
    <path d="M381,364c0-4.79,0-9.57,0-14.36,0-2.29.15-4.75-2.78-5.65-.76-1.81.72-3.31.72-5s-.27-3.24,1.49-4.18c2.58,1.16.56,3.42,1.21,5,.59,1.83.16,3.82.83,5.65.07,2.25,0,4.51,0,6.76-.32,3.78.52,7.57,0,11.35A1,1,0,0,1,381,364Z" transform="translate(-0.91 -0.91)" fill="#ee1f2b"/>
    <path d="M340,433.87c-.91.37-1.77,2.47-2.75.07,1.68-4,.63-8.18.74-12.27.2-7.13.06-14.26,1.05-21.41,0,8.93,0,17.87,0,26.8C339,429.36,338.6,431.74,340,433.87Z" transform="translate(-0.91 -0.91)" fill="#ece300"/>
    <path d="M205,403c.44-2.67,3-2.12,4.59-3,5.27-2.77,12.43-1.84,15.91-8.12l.55,1.26a5.8,5.8,0,0,1-4.52,4.58C216,399.3,210.51,401.19,205,403Z" transform="translate(-0.91 -0.91)" fill="#b7bbbd"/>
    <path d="M311.89,273.24c.28-.91.69-2.52,1.2-.18.81,3.68,1.41,7.42,1.86,11.16.19,1.65.18,3.3,1.05,4.78-1.3,1.56.32,3.75-1.13,5.28A106,106,0,0,1,311.89,273.24Z" transform="translate(-0.91 -0.91)" fill="#b8bcb9"/>
    <path d="M512,371.08c-2,.11-4.18-.57-6,.88l-4.57.16c-1.71.82-3.69-.18-5.38.8l-2.64.21c-1.65.49-3.25.77-4.29-1.11-.59-1.62-1.49-3.18-1-5,.85.15,1.7.4,1.81,1.4.42,3.89,2.6,3.63,5.7,3a127.68,127.68,0,0,1,13.28-1.4C510,369.91,511.22,369.91,512,371.08Z" transform="translate(-0.91 -0.91)" fill="#b8bcba"/>
    <path d="M314.81,399q-1.19-6.56-2.38-13.11c.61-.29,1.65-.6,1.74,0,.82,5.34,4.18,10.39,1.89,16.09C315.64,401,315.23,400,314.81,399Z" transform="translate(-0.91 -0.91)" fill="#ecd802"/>
    <path d="M384.88,302c2.23.7,2.21,2.71,2.35,4.43.41,4.87,4,9.34,1.83,14.52A88.54,88.54,0,0,1,384.88,302Z" transform="translate(-0.91 -0.91)" fill="#b9bdb6"/>
    <path d="M314.87,294.28c.46-1.74-.59-3.81,1.13-5.28q.84,7.23,1.67,14.45c.26,2.22,1.07,4.48-.6,6.52A94.23,94.23,0,0,1,314.87,294.28Z" transform="translate(-0.91 -0.91)" fill="#b7bbbd"/>
    <path d="M352.16,440.08c.83,2.32-.45,4.54-.33,6.82-.1,1.28.27,2.77-1.53,3.25a2.46,2.46,0,0,1-1.23-2.14c.24-6.62-.85-13.28.67-19.86,2.3,1.57.89,3.93,1.25,5.9S350.17,438.38,352.16,440.08Z" transform="translate(-0.91 -0.91)" fill="#ecdd03"/>
    <path d="M311.13,377c-2.33-3.4-.54-7.92-3.05-11.27.41-.89.83-1.79,1.54-3.3A40.44,40.44,0,0,1,312,376C312.48,377,312,377.13,311.13,377Z" transform="translate(-0.91 -0.91)" fill="#ecdb01"/>
    <path d="M274.33,442.92c-2-.48-2.11-2-2.38-3.74-.86-5.42-1.95-10.8-2.95-16.19.36-.54.73-.55,1.11,0,2,4.78,2.13,10,3.27,14.95a.84.84,0,0,1-.18,1.05C272.72,440.53,274.37,441.48,274.33,442.92Z" transform="translate(-0.91 -0.91)" fill="#ee2829"/>
    <path d="M349.06,453c-2.12-3-.68-6.39-1-9.59-.48-4.4.9-8.94-1-13.24L349,429c1.07,6.48.2,13,.49,19.49C349.59,450,350.14,451.58,349.06,453Z" transform="translate(-0.91 -0.91)" fill="#ee0d30"/>
    <path d="M361.94,358.14a42.89,42.89,0,0,0,4-9.17c.73-2.26.92-.58,1.18.23-1,3.29-1.93,6.58-2.92,9.86-.21.69-.13,2-1.26,1.63S362,359.09,361.94,358.14Z" transform="translate(-0.91 -0.91)" fill="#b7bbbd"/>
    <path d="M467.75,337.87c2.17.65,2.26,3.07,3.74,4.41.81-1.18.9-2.92,2.66-3.25-.51,2.51-1,5-1.69,8.28C470.33,344,467.74,341.62,467.75,337.87Z" transform="translate(-0.91 -0.91)" fill="#b7bbbf"/>
    <path d="M349.13,449,349,429l.75-.86q.06,10.41.14,20.81C349.68,449.47,349.43,449.47,349.13,449Z" transform="translate(-0.91 -0.91)" fill="#ed7317"/>
    <path d="M265,387a44.47,44.47,0,0,1-2-12c.32-.46.64-.48,1,0C264.77,379,267.3,382.77,265,387Z" transform="translate(-0.91 -0.91)" fill="#ecd503"/>
    <path d="M386,400h1c-.52,6.31,1.09,12.72-.92,19l-.21-6.65C385,408.2,383.47,404.08,386,400Z" transform="translate(-0.91 -0.91)" fill="#ece101"/>
    <path d="M254.91,330.08c-2,2.37-.62,5.17-1,7.74-.6.49-1,.38-1.33-.33.12-4.16-.62-8.35.43-12.47l1.93,0c1,1.12.36,2.47.54,3.7A1.36,1.36,0,0,1,254.91,330.08Z" transform="translate(-0.91 -0.91)" fill="#ed8213"/>
    <path d="M250.89,412.7c-.24,6.11,1.1,12.28-.78,18.31-1-1.61-.67-3.29-.24-5C250.61,421.63,249.51,417.07,250.89,412.7Z" transform="translate(-0.91 -0.91)" fill="#ee2929"/>
    <path d="M342.08,347c2.08,0,1.88,3,3.93,3-.5,1.34-1,2.67-1.66,4.46A8.74,8.74,0,0,1,342.08,347Z" transform="translate(-0.91 -0.91)" fill="#b6bbc1"/>
    <path d="M256,345a2.81,2.81,0,0,1,.09-3.13c2.28,4.1,1.27,8.9,2.76,13.18C255.55,352.37,256.92,348.36,256,345Z" transform="translate(-0.91 -0.91)" fill="#ee262a"/>
    <path d="M252.89,358.66c-.26,5.43,1.09,10.94-.78,16.3C252.17,369.52,251.63,364,252.89,358.66Z" transform="translate(-0.91 -0.91)" fill="#ee2929"/>
    <path d="M253,325l.12,13.08c.32.38.23.68-.21.89-1.87-4.55-.68-9.26-.72-13.91,0-.07.23-.21.35-.21A1.18,1.18,0,0,1,253,325Z" transform="translate(-0.91 -0.91)" fill="#eceb00"/>
    <path d="M458.09,321c3.17,1.33,5,3.35,3.77,7.06Q460,324.53,458.09,321Z" transform="translate(-0.91 -0.91)" fill="#b8bbbb"/>
    <path d="M304,298c1.7-2.41.11-6.09,3.1-8a34.75,34.75,0,0,1-2,10.18C304.25,299.7,304.75,298.55,304,298Z" transform="translate(-0.91 -0.91)" fill="#b4b9ca"/>
    <path d="M459.2,415l1.43-1.08c.19,2.49,1.76,5.26-1.46,7-1.16-2-.71-4-.32-6Z" transform="translate(-0.91 -0.91)" fill="#ecea00"/>
    <path d="M460.21,425l1.43-1.08c.18,2.49,1.74,5.26-1.47,7-1.17-1.94-.72-4-.3-6Z" transform="translate(-0.91 -0.91)" fill="#eceb00"/>
    <path d="M456,371a13.4,13.4,0,0,1,.06,11c-.86-.83-.44-1.9-.54-2.87,0-2,.24-4-.76-5.86a3.26,3.26,0,0,1,0-2.2A.91.91,0,0,1,456,371Z" transform="translate(-0.91 -0.91)" fill="#ecd503"/>
    <path d="M331.1,323.05c-.14-3.38.11-6.64,3-9C332.68,316.9,333.85,320.61,331.1,323.05Z" transform="translate(-0.91 -0.91)" fill="#b6bbc1"/>
    <path d="M269.17,412c-.17-2.71-1.66-5.23-1.12-8,.32-.48.64-.48.95,0,2,2,.23,5,2,7C270.49,411.53,270.19,412.43,269.17,412Z" transform="translate(-0.91 -0.91)" fill="#ecd503"/>
    <path d="M249.87,426l.24,5c0,.66,0,1.33,0,2a6.23,6.23,0,0,1-.11,5,1.54,1.54,0,0,1-1.9-1C250.48,433.62,247.56,429.4,249.87,426Z" transform="translate(-0.91 -0.91)" fill="#ecce04"/>
    <path d="M319.93,421.16c-1.24-1.14-.3-3.25-1.9-4.23-.58-.69-.66-1.33.14-1.91.65-.15,1.55-1.65,1.59-.82C319.87,416.5,321.6,418.83,319.93,421.16Z" transform="translate(-0.91 -0.91)" fill="#ece900"/>
    <path d="M254.91,330.08l.23-1.11c.31-.46.59-.45.86,0,1.15,2.19,2.35,4.39-.81,6C255.1,333.36,255,331.72,254.91,330.08Z" transform="translate(-0.91 -0.91)" fill="#ecd504"/>
    <path d="M381.05,339.92c-.23-1.64.64-3.5-.95-4.88a1.83,1.83,0,0,1,.07-2.81l1.6-1.21c1.39,2.23.64,4.58.39,6.91l0,2.18-.64.27Z" transform="translate(-0.91 -0.91)" fill="#ee561e"/>
    <path d="M340.87,340.28l.37-3.33c.31,2.78,2.79,5.4.65,8.27C340.79,343.73,341,342,340.87,340.28Z" transform="translate(-0.91 -0.91)" fill="#b7bbbc"/>
    <path d="M303.12,385c-.24,2.35.51,4.82-.9,7a.9.9,0,0,1,.3.68c0,.26,0,.39-.11.39-.15,1-.31,1.92-.47,2.88C299.81,392.05,301.85,388.58,303.12,385Z" transform="translate(-0.91 -0.91)" fill="#ecd703"/>
    <path d="M294.18,440.37c-.15.72-.3,1.45-.46,2.17-1.6-.47-1.59-1.94-1.94-3.18.47-.82.93-1.65,1.84-3.26C293.88,438.07,294,439.22,294.18,440.37Z" transform="translate(-0.91 -0.91)" fill="#ecd504"/>
    <path d="M380.17,332.23c0,.94-.05,1.87-.07,2.81-.4,1.31-.79,2.62-1.18,3.93-2.13-2.49.26-4.7.46-7.05a.85.85,0,0,1,.43,0A1.49,1.49,0,0,1,380.17,332.23Z" transform="translate(-0.91 -0.91)" fill="#ecd603"/>
    <path d="M302,311c0-2.26,0-4.49,2.1-6-.21,2.51.19,5.2-2,7.14-.32-.24-.43-.49-.34-.75S301.89,311,302,311Z" transform="translate(-0.91 -0.91)" fill="#b3b9cc"/>
    <path d="M317,415c-.9-2.58-2.49-5.05-1.14-7.95,1.91,2,1.33,4.44,1.19,6.8a.71.71,0,0,1,.23.78C317.17,414.88,317.08,415,317,415Z" transform="translate(-0.91 -0.91)" fill="#ee2829"/>
    <path d="M308.86,281.94c-1.73-2.67-.8-4.89,1.15-6.95A17.56,17.56,0,0,1,308.86,281.94Z" transform="translate(-0.91 -0.91)" fill="#b3b9cb"/>
    <path d="M484.92,352c2.71,1.53,2.67,3.6,1.15,6A11.39,11.39,0,0,1,484.92,352Z" transform="translate(-0.91 -0.91)" fill="#b8bcb8"/>
    <path d="M293,356l1.95,1.89c0,1.13.45,2.32-.5,3.42C292.15,360,293.22,357.83,293,356Z" transform="translate(-0.91 -0.91)" fill="#dbcb3e"/>
    <path d="M451.8,366c-.47,1.29-1.11,2.55-.77,4l-1.17,2C448.44,369.3,449.4,367.42,451.8,366Z" transform="translate(-0.91 -0.91)" fill="#ecd903"/>
    <path d="M311.13,377c.29-.32.59-.64.88-1,1.35,1.94,2.07,3.78-.84,5C311.15,379.65,311.14,378.31,311.13,377Z" transform="translate(-0.91 -0.91)" fill="#ecd404"/>
    <path d="M242.91,335c-1.79-2.55-.62-5.27-.17-8l.36,5.18C243,333.11,243,334,242.91,335Z" transform="translate(-0.91 -0.91)" fill="#b2b9ce"/>
    <path d="M252.93,339a3.47,3.47,0,0,0,.21-.9,3.6,3.6,0,0,0,.78-.27c-.23,3.05,1,6.22-.79,9.14C253.06,344.3,253,341.64,252.93,339Z" transform="translate(-0.91 -0.91)" fill="#ee2929"/>
    <path d="M269.17,412l1.83-1c-.23,1.66.64,3.53-.91,4.95l-1.06-1a2.76,2.76,0,0,1-.2-2.95Z" transform="translate(-0.91 -0.91)" fill="#ece900"/>
    <path d="M227.9,440.94c1.86,1.51-.11,2.81-.22,4.21L226.25,444Z" transform="translate(-0.91 -0.91)" fill="#ee132e"/>
    <path d="M232.94,424c1.19,2.14,1.33,3.81-1.8,4-.35-.17-.48-.38-.41-.61s.18-.37.29-.37C232.4,426.46,231.94,424.75,232.94,424Z" transform="translate(-0.91 -0.91)" fill="#ee132e"/>
    <path d="M281.93,434.87,278.76,438c-.1-2.84.43-3.47,3.27-3.93q.35.31.18.57C282.11,434.8,282,434.87,281.93,434.87Z" transform="translate(-0.91 -0.91)" fill="#ece600"/>
    <path d="M461.15,437.74c-.14,1.44-.28,2.88-.43,4.31-.55-2.39-1.47-4.79.23-7C461,435.93,461.08,436.84,461.15,437.74Z" transform="translate(-0.91 -0.91)" fill="#ee122e"/>
    <path d="M458.85,415c.11,2,.21,4,.32,6a1.67,1.67,0,0,0-.13,1c-2.36-1.63-.37-4-1-5.94Z" transform="translate(-0.91 -0.91)" fill="#ee122e"/>
    <path d="M304,298c.88.47,1,1.32,1.07,2.18-.07,1.69.12,3.43-1,4.89C303.17,302.73,304.16,300.36,304,298Z" transform="translate(-0.91 -0.91)" fill="#b3b9cb"/>
    <path d="M446.16,380a9.28,9.28,0,0,1-1.3,5.93C443.32,383.55,444.73,381.79,446.16,380Z" transform="translate(-0.91 -0.91)" fill="#ecd903"/>
    <path d="M236,420.34a2.64,2.64,0,0,1-2.83,2.64C233.7,421.71,232.36,418.39,236,420.34Z" transform="translate(-0.91 -0.91)" fill="#ee132f"/>
    <path d="M441.16,394a9.28,9.28,0,0,1-1.3,5.93C438.31,397.55,439.74,395.79,441.16,394Z" transform="translate(-0.91 -0.91)" fill="#ecd903"/>
    <path d="M305.14,380.05,306,382c-.23,1,.5,2.21-.48,3.05-.08.07-.88-.69-1.35-1.07-.82-.58-.73-1.23-.15-1.91Z" transform="translate(-0.91 -0.91)" fill="#ee132e"/>
    <path d="M459.87,425l.3,6a1.64,1.64,0,0,0-.12.95C458.13,429.67,458.72,427.33,459.87,425Z" transform="translate(-0.91 -0.91)" fill="#ee122e"/>
    <path d="M456,371h-1a1.24,1.24,0,0,1-.14-1.79c.12-1.4.25-2.79.43-4.83C456.45,367,455.79,369,456,371Z" transform="translate(-0.91 -0.91)" fill="#ecec00"/>
    <path d="M260.07,358c-.67-.92-1.36-1.83-.86-3.08l1.53-1C261.15,355.38,261.36,356.8,260.07,358Z" transform="translate(-0.91 -0.91)" fill="#ece900"/>
    <path d="M382.16,337.93l-.39-6.91c2.05,1.25.93,3.29,1.24,5C382.73,336.64,382.44,337.28,382.16,337.93Z" transform="translate(-0.91 -0.91)" fill="#ece800"/>
    <path d="M244,323c-1.69-1.88-.85-4-.28-6.06.16,1.11.31,2.21.46,3.32Z" transform="translate(-0.91 -0.91)" fill="#b2b9cf"/>
    <path d="M231,427a1.82,1.82,0,0,0,.12,1c-.41,1.33-.82,2.65-1.24,4C228,429.81,229.77,428.46,231,427Z" transform="translate(-0.91 -0.91)" fill="#ecea00"/>
    <path d="M504.93,433l1.06,0c-1.22,1.65-2.38,3.44-4.91,2.21Z" transform="translate(-0.91 -0.91)" fill="#ee172d"/>
    <path d="M289,310h-1c-.06-.58-.11-1.17-.17-1.75.13-1.4.25-2.81.44-4.88C289.46,306,288.79,308,289,310Z" transform="translate(-0.91 -0.91)" fill="#b3b9cd"/>
    <path d="M480.82,418c2,1.18.48,2.08-.31,2.91s-1.33.44-1.47-.62C479.63,419.55,480.23,418.79,480.82,418Z" transform="translate(-0.91 -0.91)" fill="#ee152e"/>
    <path d="M488.15,419.94,486,417C488.26,416.86,489.18,417.7,488.15,419.94Z" transform="translate(-0.91 -0.91)" fill="#ece601"/>
    <path d="M256.2,341c.07-.36.14-.71.2-1.06l1.42-3.92C257.87,338.57,258.79,340.37,256.2,341Z" transform="translate(-0.91 -0.91)" fill="#ecea00"/>
    <path d="M458.86,414c-1.59-1.92-.62-4.15-.76-6.25C459.12,409.69,458.93,411.83,458.86,414Z" transform="translate(-0.91 -0.91)" fill="#ee2929"/>
    <path d="M302,311l.06,1.14c0,1.61-.06,3.22-.1,4.84A4.59,4.59,0,0,1,302,311Z" transform="translate(-0.91 -0.91)" fill="#b9bcb6"/>
    <path d="M457.86,404c-1.59-1.91-.62-4.15-.76-6.24C458.11,399.69,457.9,401.83,457.86,404Z" transform="translate(-0.91 -0.91)" fill="#ee2929"/>
    <path d="M281.93,434.87c0-.26.07-.53.1-.8l2.24-2.06C285.22,434.38,284.2,435.14,281.93,434.87Z" transform="translate(-0.91 -0.91)" fill="#ee142e"/>
    <path d="M317.91,315.17c.12-1.06.25-2.11.37-3.17l.71,0v5h0c-.31.45-.6.47-.9,0C318,316.38,318,315.78,317.91,315.17Z" transform="translate(-0.91 -0.91)" fill="#b2b9ce"/>
    <path d="M269,341.09l.47-1.24c.75,1.08,1.53,2.16.7,3.55C268.44,343.28,269.23,341.92,269,341.09Z" transform="translate(-0.91 -0.91)" fill="#b2b9cf"/>
    <path d="M260.14,361.72c-.13,1.12-.26,2.24-.48,4.19-.81-2.6-1.17-4.31.27-5.88Z" transform="translate(-0.91 -0.91)" fill="#ee222a"/>
    <path d="M454.88,369.21c.05.59.09,1.19.14,1.79s.06,1.36.1,2a1.36,1.36,0,0,1-.22,2c-1.64-1.95-.67-4.22-.77-6.36A5.29,5.29,0,0,0,454.88,369.21Z" transform="translate(-0.91 -0.91)" fill="#ee2929"/>
    <path d="M286,429.06,283.75,432C283,429.83,283.58,428.73,286,429.06Z" transform="translate(-0.91 -0.91)" fill="#ece700"/>
    <path d="M273.2,439l.18-1.05,1.44-3.84C274.86,436.57,275.8,438.37,273.2,439Z" transform="translate(-0.91 -0.91)" fill="#eceb00"/>
    <path d="M279.27,438c1,2.4-.2,3-2.33,2.89Z" transform="translate(-0.91 -0.91)" fill="#ee142e"/>
    <path d="M238,364c-1.43-1.66-1.1-2.62,1.14-2.8Z" transform="translate(-0.91 -0.91)" fill="#b4bac8"/>
    <path d="M292.1,345c1.54,1.57.71,3.49.8,5.28C291.92,348.66,292,346.84,292.1,345Z" transform="translate(-0.91 -0.91)" fill="#b9bcb5"/>
    <path d="M321.08,338c1.57,1.54.73,3.46.83,5.23C320.92,341.62,321.05,339.81,321.08,338Z" transform="translate(-0.91 -0.91)" fill="#b9bcb5"/>
    <path d="M317,415c0-.38,0-.77.05-1.15l1.13,1.17c0,.63-.09,1.27-.14,1.91l-.6,1.11C316.52,417.14,317.22,416,317,415Z" transform="translate(-0.91 -0.91)" fill="#ee142e"/>
    <path d="M290,435l-1.11-2.82C291.14,432.38,291.31,433.4,290,435Z" transform="translate(-0.91 -0.91)" fill="#ece501"/>
    <path d="M320.07,331c1.58,1.54.74,3.46.84,5.24C319.91,334.63,320,332.82,320.07,331Z" transform="translate(-0.91 -0.91)" fill="#b9bcb5"/>
    <path d="M319.07,324c1.58,1.54.74,3.48.83,5.26C318.92,327.64,319,325.82,319.07,324Z" transform="translate(-0.91 -0.91)" fill="#b9bcb5"/>
    <path d="M456.86,394c-1.49-1.6-.67-3.53-.74-5.33C457.1,390.29,456.93,392.13,456.86,394Z" transform="translate(-0.91 -0.91)" fill="#ee2929"/>
    <path d="M256,329c-.29,0-.57,0-.86,0-.06-1.31-.13-2.61-.19-3.92C257.32,325.83,255.38,327.76,256,329Z" transform="translate(-0.91 -0.91)" fill="#ece700"/>
    <path d="M289.11,320c1.54,1.59.7,3.53.77,5.33C288.88,323.69,289.06,321.85,289.11,320Z" transform="translate(-0.91 -0.91)" fill="#b9bcb5"/>
    <path d="M266.11,393c-.08-.58-.15-1.16-.23-1.74.11-.74.21-1.49.46-3.26C267.14,390.38,267.39,391.72,266.11,393Z" transform="translate(-0.91 -0.91)" fill="#ecea00"/>
    <path d="M318.1,317h.9c0,1.77-.07,3.53-.1,5.29C317.92,320.62,318,318.8,318.1,317Z" transform="translate(-0.91 -0.91)" fill="#b9bcb5"/>
    <path d="M336.84,318.27c.13-.75.27-1.51.56-3.16.68,2.29,1.06,3.63-.31,4.85C337,319.4,336.92,318.84,336.84,318.27Z" transform="translate(-0.91 -0.91)" fill="#b3b9cc"/>
    <path d="M269,404h-.95a1.17,1.17,0,0,1-.12-.86c.09-1.06.18-2.12.31-3.61C269.43,401.23,268.82,402.66,269,404Z" transform="translate(-0.91 -0.91)" fill="#ece900"/>
    <path d="M288.15,312c1.47,1.58.67,3.49.75,5.27C287.93,315.66,288.07,313.85,288.15,312Z" transform="translate(-0.91 -0.91)" fill="#b9bcb5"/>
    <path d="M270.11,423,269,423c.22-1.64-.59-3.45.8-4.9C269.91,419.72,270,421.34,270.11,423Z" transform="translate(-0.91 -0.91)" fill="#ee122f"/>
    <path d="M296,428l-.18,2c-1.3-1.2-.65-2.63-.77-4.18C296.27,426.37,295.85,427.26,296,428Z" transform="translate(-0.91 -0.91)" fill="#ece900"/>
    <path d="M295.1,438.05c1.24,1.11,1,2.47.5,4.67-.35-1.45-.53-2.18-.71-2.92Z" transform="translate(-0.91 -0.91)" fill="#ee122f"/>
    <path d="M296.09,432.05c1.38,1.09.77,2.5.32,3.95-.18-.74-.36-1.48-.53-2.22Z" transform="translate(-0.91 -0.91)" fill="#ee112f"/>
    <path d="M231,381c-1.46-1.67-1.13-2.62,1.12-2.81C231.77,379.14,231.39,380.07,231,381Z" transform="translate(-0.91 -0.91)" fill="#b4bac9"/>
    <path d="M299.12,411.21l-.24,1.73c-1.35-1.1-.76-2.5-.29-3.94C298.77,409.73,298.94,410.47,299.12,411.21Z" transform="translate(-0.91 -0.91)" fill="#ece900"/>
    <path d="M304,382.07l.15,1.91-1.13,1.11c0-1.28-.39-2.78.15-3.78S303.8,381.69,304,382.07Z" transform="translate(-0.91 -0.91)" fill="#ece900"/>
    <path d="M455.89,379.31c.06.89.11,1.79.17,2.69-.07.65-.13,1.3-.2,1.95-1.47-1.6-.7-3.5-.68-5.29A.84.84,0,0,1,455.89,379.31Z" transform="translate(-0.91 -0.91)" fill="#ee2929"/>
    <path d="M496,372.92c1.6-1.58,3.55-.73,5.37-.8C499.71,373.11,497.86,373,496,372.92Z" transform="translate(-0.91 -0.91)" fill="#b9bcb5"/>
    <path d="M489.09,372a8.15,8.15,0,0,0,4.29,1.1C491.75,373.55,489.72,375.48,489.09,372Z" transform="translate(-0.91 -0.91)" fill="#b9bcb5"/>
    <path d="M264,375h-1a1.14,1.14,0,0,1-.11-.85c.09-1.06.18-2.13.3-3.61C264.44,372.23,263.81,373.67,264,375Z" transform="translate(-0.91 -0.91)" fill="#ece800"/>
    <path d="M244.89,604c.07,1.23.14,2.47.22,3.71,1,2.35-.22,4.93.76,7.28.11,1.56.21,3.11.32,4.67q-.19,3.17-.41,6.35h-.49c-.77-8.68-1.56-17.35-2.28-26s-1.3-17.49-2.11-26.22c-.31-3.25-2.16-4.74-5.72-4.83-4.39-.11-8.93,1.3-13.18-.89a2.5,2.5,0,0,1,1-.93l2.05,0c3.39,1.11,7-.24,10.35.78,6.2-.12,6.3,0,6.72,6.77,1,2.36-.23,5,.79,7.31l.22,3.72c1,2.35-.25,4.94.78,7.29l.22,3.72C245.08,599,243.87,601.62,244.89,604Z" transform="translate(-0.91 -0.91)" fill="#b8bcbb"/>
    <path d="M512.21,428.9a3.08,3.08,0,0,1-.05-.91c.28-.46.56-.48.83,0,1.41,1.12,1,2.71,1,4.15q0,25.85,0,51.69c0,1.44.41,3-1,4.16-.14-.29-.29-.57-.43-.85-.88-3.77-.57-7.6-.55-11.41C512.11,460.13,511.75,444.51,512.21,428.9Z" transform="translate(-0.91 -0.91)" fill="#b4cac3"/>
    <path d="M513,428h-.83q-.1-28.5-.22-57c1.72,1.43,1,3.4,1,5.14C513,393.42,513,410.71,513,428Z" transform="translate(-0.91 -0.91)" fill="#b1b8d2"/>
    <path d="M357.08,592c2.18-5.3,4.35-10.6,6.68-16.26,2.86,2.85.13,6.64,2.14,9.28a2.14,2.14,0,0,1-.91,1c-1.58-1-.53-2.8-1.49-4.29-2.62,3.5-2.61,8.13-5.47,11.3A2.19,2.19,0,0,1,357.08,592Z" transform="translate(-0.91 -0.91)" fill="#b8bcb9"/>
    <path d="M410,605.91a170.33,170.33,0,0,1,15-14.94c-1.2,4.71-5.58,6.76-8.55,9.95C414.6,602.85,413.44,606,410,605.91Z" transform="translate(-0.91 -0.91)" fill="#b5bac1"/>
    <path d="M296.84,611c3.08,5.24,2.09,11.06,2.33,16.7-.42,1,.29,2.33-1,3.49A108.07,108.07,0,0,0,296,611C296.28,610.54,296.56,610.56,296.84,611Z" transform="translate(-0.91 -0.91)" fill="#b6bbc1"/>
    <path d="M455.1,608c1.28-4.69,1-9.82,4-14A38.54,38.54,0,0,1,456,610C455.28,609.54,455.69,608.56,455.1,608Z" transform="translate(-0.91 -0.91)" fill="#b9bcb6"/>
    <path d="M510.17,513.11c.15-8.38-1.26-16.82.83-25.15h.09a67.73,67.73,0,0,1-.11,25A1.25,1.25,0,0,1,510.17,513.11Z" transform="translate(-0.91 -0.91)" fill="#f5d800"/>
    <path d="M511,513q.06-12.51.11-25h.84A117.28,117.28,0,0,1,512,513h-.49Z" transform="translate(-0.91 -0.91)" fill="#d4c855"/>
    <path d="M512,513l0-25.06.08.05c.34-.44.67-.44,1,0h0c0,6.79,0,13.58,0,20.38C513,510,513.55,511.74,512,513Z" transform="translate(-0.91 -0.91)" fill="#b1b8d2"/>
    <path d="M488.86,544c.21-4.85.89-9.59,3-14C492.14,534.9,492.55,539.88,488.86,544Z" transform="translate(-0.91 -0.91)" fill="#b8bcb8"/>
    <path d="M328,623a23.89,23.89,0,0,1,3.15-12C331.43,615.38,331.6,619.69,328,623Z" transform="translate(-0.91 -0.91)" fill="#b9bcb7"/>
    <path d="M455.1,608a2.12,2.12,0,0,1,.92,2c-.7,3.88-.15,8.2-3.9,11Q453.62,614.51,455.1,608Z" transform="translate(-0.91 -0.91)" fill="#b7bbbe"/>
    <path d="M357.08,592l.95,1c0,3.19-1.77,5.85-3,8.59-.67,1.49-.81-.28-1.08-.75Q355.5,596.44,357.08,592Z" transform="translate(-0.91 -0.91)" fill="#b7bbbd"/>
    <path d="M385,608.94a21.38,21.38,0,0,1,3.17-6.89c1.73,3.53-1.33,5.53-2.59,8.11Z" transform="translate(-0.91 -0.91)" fill="#b7bbbf"/>
    <path d="M309.07,613c.43-3.17,1.8-6,3-9C313.22,607.73,312,610.64,309.07,613Z" transform="translate(-0.91 -0.91)" fill="#b7bbbd"/>
    <path d="M335.12,588c.36-1.84.73-3.69,1.12-5.65,1.88.78,2.14,2.33,2.78,3.59-1.7.34-2,2.08-3,3.07A2.21,2.21,0,0,1,335.12,588Z" transform="translate(-0.91 -0.91)" fill="#b4bac7"/>
    <path d="M460,586c-.13-2.91.85-5.57,1.84-8.23,1.82,3,.44,5.6-.88,8.23Q460.52,586.72,460,586Z" transform="translate(-0.91 -0.91)" fill="#b9bcb7"/>
    <path d="M214.15,558.3c-.09,1.24-.19,2.48-.28,3.72-.72.18-2.13.58-1.69-.54,1.21-3.08.38-6.36,1.64-9.43Z" transform="translate(-0.91 -0.91)" fill="#b7bbbf"/>
    <path d="M470.06,553.78c2.52,1.53,4.23,3.85,6,6.12C472.48,559.41,470.87,557,470.06,553.78Z" transform="translate(-0.91 -0.91)" fill="#b3baca"/>
    <path d="M447.93,612c.31.94,1.49,1.49,1.2,2.69-.1,2.43-.21,4.85-.32,7.28h-.88Z" transform="translate(-0.91 -0.91)" fill="#b8bcb9"/>
    <path d="M484.92,565c.4-2.65.8-5.29,1.21-7.94,1.78,0,1.45.91.88,2C487.06,561.25,487,563.47,484.92,565Z" transform="translate(-0.91 -0.91)" fill="#b3b9cc"/>
    <path d="M303.81,626.69a15.53,15.53,0,0,1,2.26-5.67C307.58,623.81,306.64,625.63,303.81,626.69Z" transform="translate(-0.91 -0.91)" fill="#b8bcb9"/>
    <path d="M460,586h1c-.66,2,1.57,4.89-1.89,6C458.59,589.87,459.24,587.92,460,586Z" transform="translate(-0.91 -0.91)" fill="#b8bcb9"/>
    <path d="M223,567.07l-1,.93h-6.92l0-.68,3.2-.47Z" transform="translate(-0.91 -0.91)" fill="#b2b9d0"/>
    <path d="M335.12,588l.88,1c-.43,1.74,1.2,4.29-1.94,5C333.54,591.85,334.86,590,335.12,588Z" transform="translate(-0.91 -0.91)" fill="#b8bcb7"/>
    <path d="M402.09,584c1.34,1.84,1.13,3.95,1,6C401.89,588.12,400.83,586.23,402.09,584Z" transform="translate(-0.91 -0.91)" fill="#b3bace"/>
    <path d="M463.07,571c-.46-1.82.38-3.38,1-5C465.35,568,466.1,569.86,463.07,571Z" transform="translate(-0.91 -0.91)" fill="#b9bcb8"/>
    <path d="M487,559l-.88-2c-.5-1.53.59-2.7.91-4A4.6,4.6,0,0,1,487,559Z" transform="translate(-0.91 -0.91)" fill="#b9bcb8"/>
    <path d="M432,585c.19-1.35.63-2.67,2.12-2.89,1.16-.17,1.45,1,1.81,1.9A7,7,0,0,0,432,585Z" transform="translate(-0.91 -0.91)" fill="#b8bcb9"/>
    <path d="M342.82,592.06l2.24,3.83C342.82,595.75,342.26,594.79,342.82,592.06Z" transform="translate(-0.91 -0.91)" fill="#b4bac9"/>
    <path d="M323.92,626l.18,1.77c-.12,1.41-.25,2.81-.37,4.21C323.09,630,322.31,627.91,323.92,626Z" transform="translate(-0.91 -0.91)" fill="#b3b9cd"/>
    <path d="M405,594l1,4C404.4,597,403.06,595.92,405,594Z" transform="translate(-0.91 -0.91)" fill="#b3b9ce"/>
    <path d="M369.91,612c.06.59.13,1.18.2,1.77l-.5,4.19C368.89,615.31,368.49,613.6,369.91,612Z" transform="translate(-0.91 -0.91)" fill="#b2b9ce"/>
    <path d="M365,586c.31-.32.61-.64.91-1l.21,1.77c-.11.76-.23,1.51-.39,2.48C364.58,588.16,365.18,587,365,586Z" transform="translate(-0.91 -0.91)" fill="#b2b9d0"/>
    <path d="M212.17,514.91l1.86,1a1.18,1.18,0,0,1-2,.46C211.43,515.91,211.42,515.36,212.17,514.91Z" transform="translate(-0.91 -0.91)" fill="#b8bcba"/>
    <path d="M296.84,611H296c.21-1.66-.64-3.51.88-4.94C297.47,607.71,297.06,609.35,296.84,611Z" transform="translate(-0.91 -0.91)" fill="#b3b9cd"/>
    <path d="M369,606a1.1,1.1,0,0,1,.1.85c-.13,1-.25,2.11-.45,3.81C367.79,608.55,367.66,607.19,369,606Z" transform="translate(-0.91 -0.91)" fill="#b2b9cf"/>
    <path d="M322.94,620l.24,1.67c-.15.76-.29,1.53-.6,3.13C321.93,622.59,321.53,621.24,322.94,620Z" transform="translate(-0.91 -0.91)" fill="#b3b9cd"/>
    <path d="M301,499a2.89,2.89,0,0,1,1,2.67c-.49,10.77.89,21.49.94,32.24.08,13.74,1.75,27.43,1.13,41.19-.08,1.93.65,3.88.93,5.84.2,1.35,0,1.14,1.08.24,2-1.74.34,1,1.07,1.12-1.2,2.06-.27,4.87-2.33,6.63-3.57-1.49-1.43-5.08-2.72-7.42-.16-3.21-.06-6.42-.09-9.63a119.13,119.13,0,0,0-.89-16c-.18-6.64-.35-13.29-1-19.91-.21-5.17,0-10.34-.1-15.51.11-5.18-.27-10.35-.62-15.51a6.2,6.2,0,0,1-.18-2.46A5.4,5.4,0,0,1,301,499Z" transform="translate(-0.91 -0.91)" fill="#ee242a"/>
    <path d="M300.92,536q.58,10,1.18,20c.84,5.23.17,10.5.38,15.75,0,6-.19,12.11,1.21,18.06.41,2.13.58,4.23-.7,6.16-1.87-1.56-2.08-3.68-2-5.9.7-16.29-.78-32.55-1.28-48.81-.38-12.39-.22-24.86-1.77-37.22a17.49,17.49,0,0,0-1.08-3.28,3.89,3.89,0,0,1,1.36-2.69c2,.21,1.71,1.72,1.54,2.95-.44,3.14.29,6.16.65,9.23.14,3.24,0,6.49.06,9.74C300.75,525.34,300,530.68,300.92,536Z" transform="translate(-0.91 -0.91)" fill="#ecdb02"/>
    <path d="M242.92,507.77c1.07-.1,1.87-1.25,3.08-.77a40.7,40.7,0,0,1,1.85,7,35.75,35.75,0,0,1,.15,4,39.14,39.14,0,0,0,.86,7.06,33,33,0,0,1,.13,4,27.24,27.24,0,0,0,.88,7.07c.17,1.59.1,3.19.12,4.79a18.6,18.6,0,0,0,.88,6.24c.17,1.59.1,3.18.13,4.77a39.46,39.46,0,0,0,.83,7c.13,1.34.3,2.69-.69,3.83-.11,2.42-.23,4.83-.34,7.24h-.46c-1.78-20-3.57-40-5.33-59.69-1.83-1.49-3.58,2-5.08-.46C240.12,507.94,241.66,508.05,242.92,507.77Z" transform="translate(-0.91 -0.91)" fill="#ecd703"/>
    <path d="M253,556c.31,9.11.3,18.26,3.15,27.08.57,3.23,0,6.26-1.82,10.56-.72-7.07-1.6-12.67-1.42-18.36-1-2.34.22-4.91-.79-7.24-.08-1.55-.17-3.11-.26-4.66-.65-1.93-.2-4-.6-5.93C251.51,556.57,251.85,555.8,253,556Z" transform="translate(-0.91 -0.91)" fill="#ee252a"/>
    <path d="M200.09,484.93c0-12.43-.08-24.85-.06-37.27,0-1.2-.65-2.72,1-3.49q-.08,20.46-.14,40.91A1.57,1.57,0,0,1,200.09,484.93Z" transform="translate(-0.91 -0.91)" fill="#ee112f"/>
    <path d="M442,514c1.87,5.76,1.75,11.85,2.87,17.75.39,2.06.73,4.18,1.11,6.26a.82.82,0,0,1-.94.35c-.47-.35-.62-.92-1-1.35-1.74-5.53-1.11-11.49-3.09-17a1.61,1.61,0,0,1-.18-2c.09-1,.19-2.07.28-3.11A2.27,2.27,0,0,1,442,514Z" transform="translate(-0.91 -0.91)" fill="#ee242a"/>
    <path d="M437.93,492c3.81,2.81,1.74,7.26,2.9,10.84A49.18,49.18,0,0,1,442,509c-1.17,1.19.2,3-1.1,4.19C438.34,506.34,438.65,499.09,437.93,492Z" transform="translate(-0.91 -0.91)" fill="#ee252a"/>
    <path d="M464,508c.34-.65.69-1.3,1-1.95,1.7,2.26,1,4.68.43,7.08-.95,3.94-.62,8.15-2.46,11.91a2.48,2.48,0,0,1-1.61-1.65c.84-4.35.58-8.88,2-13.16C463.55,509.44,463.43,508.61,464,508Z" transform="translate(-0.91 -0.91)" fill="#ecd604"/>
    <path d="M467,488c1.15-1,.82-2.43,1-3.72.09-.94-.14-2.19,1.25-2.3,2-.15,1.76,1.49,1.91,2.76-3,3.88-2.24,8.8-3.58,13.42l-1.24-4.2C464.73,491.79,466.61,490,467,488Z" transform="translate(-0.91 -0.91)" fill="#ecd803"/>
    <path d="M457.83,552.65q.5-5.37,1-10.74c-.28-1.33-.74-2.69.34-3.91,3.43,1.36,1.75,4.18,1.53,6.3-.39,3.85-1.31,7.64-2,11.48C457.4,555,458.25,553.65,457.83,552.65Z" transform="translate(-0.91 -0.91)" fill="#ecd504"/>
    <path d="M322.86,512.72c.06-1.78.13-3.54,2.23-5.17v7.19c1.05,2.81-.36,5.92,1,8.7a3.79,3.79,0,0,1,.23,2.35A.88.88,0,0,1,325,526C323,521.78,324.58,517,322.86,512.72Z" transform="translate(-0.91 -0.91)" fill="#ecdb02"/>
    <path d="M224.21,496a4.92,4.92,0,0,1,.76.09c1.14,4.92.23,9.92.5,14.87.12,2.15-.24,4.34.65,6.41a1.46,1.46,0,0,1-.26,1.65,2.07,2.07,0,0,1-1.9-1c-.84-7.28-.49-14.57-.2-21.86Z" transform="translate(-0.91 -0.91)" fill="#ed930f"/>
    <path d="M223.76,496.1q.11,10.93.2,21.86C222.31,510.69,222.59,503.4,223.76,496.1Z" transform="translate(-0.91 -0.91)" fill="#ecef00"/>
    <path d="M467,488c-.23,2-.47,4-.7,6-.31,2.44.12,5-1.23,7.27-2-5.59,1.26-10.79,1-16.41C467.56,485.78,466.75,487,467,488Z" transform="translate(-0.91 -0.91)" fill="#ee222b"/>
    <path d="M303,596q0-3-.08-6c-.55-2.67-.83-5.34.18-8,2.07,1.94-.21,5,1.72,6.93C304.76,591.43,306.29,594.34,303,596Z" transform="translate(-0.91 -0.91)" fill="#ee2929"/>
    <path d="M382,529a14.71,14.71,0,0,0,3-7c.26-.5.55-.55.89-.08.65,3.86-.52,6.93-3.94,9A1.32,1.32,0,0,1,382,529Z" transform="translate(-0.91 -0.91)" fill="#ecd603"/>
    <path d="M392.93,504.83c1.1-2.77,1.09-6.11,4-7.95.15,3.27-1.7,5.94-2.94,8.71C393.34,507.11,393.21,505.29,392.93,504.83Z" transform="translate(-0.91 -0.91)" fill="#ecd603"/>
    <path d="M397.05,495c-.1-2.11,1.32-3.58,2.33-5.67,1.84,2.05,1.64,4.61,2.6,6.68C400.37,495.48,399.16,493.05,397.05,495Z" transform="translate(-0.91 -0.91)" fill="#ecdd02"/>
    <path d="M388,515.05l3-5c1.09,3.31-1.66,5.44-2.22,8.37-1.07-.78-.75-1.65-.85-2.42-.25-.21-.32-.42-.23-.62S387.93,515.05,388,515.05Z" transform="translate(-0.91 -0.91)" fill="#ecd603"/>
    <path d="M325.91,526c0-.68,0-1.37-.05-2a1.39,1.39,0,0,1,.27-2c2.24,3-.49,7,1.75,10,.7.62.75,1.23,0,1.81H326.2C325,531.24,325.42,528.63,325.91,526Z" transform="translate(-0.91 -0.91)" fill="#ee3f24"/>
    <path d="M388,515.05c0,.31,0,.62,0,.92q-1,3-2.08,6l-.89.08c-1.11-3.14,1.17-5.44,2.19-8C387.47,513.39,387.84,514.58,388,515.05Z" transform="translate(-0.91 -0.91)" fill="#ee262a"/>
    <path d="M214.71,491.14c3.17-1.4,5.19.92,7.5,2.31a.93.93,0,0,1-.14.44,2.08,2.08,0,0,1-.39.32L220,494c-1.29.51-2.06-.44-3-1Z" transform="translate(-0.91 -0.91)" fill="#ee252a"/>
    <path d="M262.21,559c-.21-2.06,1.52-3.82.93-6C266.79,555.62,264.85,557.35,262.21,559Z" transform="translate(-0.91 -0.91)" fill="#ece900"/>
    <path d="M462.17,524.06l.83.94a28.92,28.92,0,0,1,0,3.84c-.36,2.72-1.17.27-1.78.1l-.58-.34c0-1.53-.59-3.18.9-4.4Z" transform="translate(-0.91 -0.91)" fill="#ecea00"/>
    <path d="M327.84,533.79c0-.6,0-1.2,0-1.81,1-1.2-.83-3.86,2.09-4.08a10.4,10.4,0,0,1-1.35,6.2c0,.06-.3,0-.42,0A1.25,1.25,0,0,1,327.84,533.79Z" transform="translate(-0.91 -0.91)" fill="#ece400"/>
    <path d="M458,537c1.21-2.53.25-5.61,2-8,.31-.5.6-.48.86,0l.33-.1c-2.33,2.24.26,5.92-2.35,8.08C458.56,537.45,458.28,537.45,458,537Z" transform="translate(-0.91 -0.91)" fill="#ee242a"/>
    <path d="M235.38,567.88c-3.45-.23-7,1.09-10.35-.78C228.5,567.14,232,566.64,235.38,567.88Z" transform="translate(-0.91 -0.91)" fill="#b9bcb5"/>
    <path d="M290.91,510.85a4.75,4.75,0,0,1,2.21-3.81C294.14,509.32,293.76,510.8,290.91,510.85Z" transform="translate(-0.91 -0.91)" fill="#ecdd02"/>
    <path d="M276.11,522c1.71,3,.68,6.21.67,9.34-2.25-1.46-1.14-3.46-.87-5.32C276,524.71,276.05,523.37,276.11,522Z" transform="translate(-0.91 -0.91)" fill="#ee3227"/>
    <path d="M349.89,516c-1-2.27-.66-3.76,2.2-3.82A4,4,0,0,1,349.89,516Z" transform="translate(-0.91 -0.91)" fill="#ee202b"/>
    <path d="M325.91,526c.09,2.59.19,5.19.29,7.78-2.79-2.23-.43-5.25-1.2-7.79Z" transform="translate(-0.91 -0.91)" fill="#ecec00"/>
    <path d="M275.91,526.05l.87,5.32a7,7,0,0,1-.29.88c-.5.14-1.21,1.36-1.27.62C275,530.61,274.21,528.15,275.91,526.05Z" transform="translate(-0.91 -0.91)" fill="#ecec00"/>
    <path d="M293.88,505c-1-2.28-.63-3.75,2.2-3.82Z" transform="translate(-0.91 -0.91)" fill="#ee202b"/>
    <path d="M423.78,504c-.14-2.83.39-3.47,3.25-3.93q.35.31.18.57c-.1.16-.19.24-.28.24Z" transform="translate(-0.91 -0.91)" fill="#ee162d"/>
    <path d="M225.86,519A7.54,7.54,0,0,0,226,518a1.07,1.07,0,0,1,1-1l2.9-1.11C230,518.93,227.58,518.45,225.86,519Z" transform="translate(-0.91 -0.91)" fill="#ece601"/>
    <path d="M232.13,514.08c.12-2.31,1.16-2.89,3.86-2.17-.51,1.38-1.27,2.42-3,2.17h-.89Z" transform="translate(-0.91 -0.91)" fill="#ee202b"/>
    <path d="M346.92,521.86l2.21-3.82C349.77,520.78,349.2,521.78,346.92,521.86Z" transform="translate(-0.91 -0.91)" fill="#ecdb02"/>
    <path d="M492.83,495.76,495,491C496.1,493.42,495.2,494.93,492.83,495.76Z" transform="translate(-0.91 -0.91)" fill="#ece301"/>
    <path d="M432,494l2-2c1.19,3-.6,3.71-3,3.95C430.46,494.85,431.24,494.44,432,494Z" transform="translate(-0.91 -0.91)" fill="#ece600"/>
    <path d="M432,494c-.35.64-.69,1.28-1,1.91L428.77,498C428.08,495.23,429.49,494.17,432,494Z" transform="translate(-0.91 -0.91)" fill="#ee162d"/>
    <path d="M233,514.08l3-2.17a8.42,8.42,0,0,0,.87,0C236.77,514.74,235.32,515.17,233,514.08Z" transform="translate(-0.91 -0.91)" fill="#ecdd02"/>
    <path d="M506,483l-.95.86L502,482C503.84,480.32,504.83,482,506,483Z" transform="translate(-0.91 -0.91)" fill="#ee262a"/>
    <path d="M371.89,538.05,373,543C370.87,541.73,370.25,540.14,371.89,538.05Z" transform="translate(-0.91 -0.91)" fill="#ece900"/>
    <path d="M252.12,568c1.7,2.26.6,4.81.79,7.23C251.82,573,252.11,570.48,252.12,568Z" transform="translate(-0.91 -0.91)" fill="#ee2929"/>
    <path d="M243.89,593c-1.72-2.27-.61-4.85-.78-7.29C244.23,588,243.9,590.51,243.89,593Z" transform="translate(-0.91 -0.91)" fill="#b9bcb5"/>
    <path d="M258.93,574c-1.52-2.36-1.57-4.44,1.17-6Z" transform="translate(-0.91 -0.91)" fill="#ee2629"/>
    <path d="M242.89,582c-1.72-2.28-.59-4.86-.79-7.31C243.21,577,242.9,579.5,242.89,582Z" transform="translate(-0.91 -0.91)" fill="#b8bcba"/>
    <path d="M453.15,576c2.55.44,1.74,2.34,1.75,4-1.38-.05-.74-1.7-1.7-2C452.37,577.35,452.41,576.69,453.15,576Z" transform="translate(-0.91 -0.91)" fill="#ece900"/>
    <path d="M244.89,604c-1.71-2.27-.61-4.84-.78-7.28C245.22,599,244.9,601.51,244.89,604Z" transform="translate(-0.91 -0.91)" fill="#b9bcb5"/>
    <path d="M242.92,507.77l-3,2a1.85,1.85,0,0,1-.86.24C239.21,507.35,240.71,507,242.92,507.77Z" transform="translate(-0.91 -0.91)" fill="#ee172d"/>
    <path d="M245.87,615c-1.68-2.27-.6-4.84-.76-7.28C246.2,610,245.9,612.5,245.87,615Z" transform="translate(-0.91 -0.91)" fill="#b9bcb5"/>
    <path d="M252,557c0,2.13-.09,4.25-.13,6.38l-.73-.66c-.08-1.25-.16-2.5-.23-3.75a1.93,1.93,0,0,1-.15-2A1,1,0,0,1,252,557Z" transform="translate(-0.91 -0.91)" fill="#ee2929"/>
    <path d="M426.93,500.88c0-.27.07-.54.1-.81l2.25-2.06C430.21,500.37,429.22,501.15,426.93,500.88Z" transform="translate(-0.91 -0.91)" fill="#ece800"/>
    <path d="M422.05,506.09l2.24-2.08c.64,2.12.21,3.36-2.34,2.88-.21-.2-.27-.39-.17-.56S422,506.09,422.05,506.09Z" transform="translate(-0.91 -0.91)" fill="#ece800"/>
    <path d="M422.05,506.09c0,.27-.07.54-.1.8l-2.2,2C419,506.75,419.6,505.66,422.05,506.09Z" transform="translate(-0.91 -0.91)" fill="#ee152d"/>
    <path d="M440.89,513.2c.37-1.4-.38-3.09,1.1-4.19,0,1.67,0,3.33,0,5l-.92,1C441,514.38,441,513.79,440.89,513.2Z" transform="translate(-0.91 -0.91)" fill="#ee112f"/>
    <path d="M417.06,512.11c.95-.87,1.9-1.74,2.84-2.62-.21,1.8.08,4-2.94,3.42-.22-.21-.28-.4-.17-.57S417,512.11,417.06,512.11Z" transform="translate(-0.91 -0.91)" fill="#ece700"/>
    <path d="M417.06,512.11c0,.26-.07.53-.1.8L414.72,515C413.74,512.6,414.91,512,417.06,512.11Z" transform="translate(-0.91 -0.91)" fill="#ee142e"/>
    <path d="M412.93,517.88l2.3-2.88C416.32,517.44,415.06,518,412.93,517.88Z" transform="translate(-0.91 -0.91)" fill="#ece900"/>
    <path d="M440.81,518.08l.18,2v2.79C440,521.23,439.55,519.63,440.81,518.08Z" transform="translate(-0.91 -0.91)" fill="#ecea00"/>
    <path d="M449.89,586.05l.29,1.85a2.4,2.4,0,0,1-.15,3C448.12,589.36,448.83,587.71,449.89,586.05Z" transform="translate(-0.91 -0.91)" fill="#ece800"/>
    <path d="M445,538l1,0c-.3,2,.78,4.18-.91,6-.06-.59-.12-1.18-.17-1.77A4.56,4.56,0,0,1,445,538Z" transform="translate(-0.91 -0.91)" fill="#ee0f2f"/>
    <path d="M450,590.93l.15-3,1.7,0C452,589.39,452.16,590.86,450,590.93Z" transform="translate(-0.91 -0.91)" fill="#ed7417"/>
    <path d="M445.86,549.24c.14-1.1.28-2.2.53-4.22.71,2.69,1.15,4.42-.36,6C446,550.4,445.92,549.82,445.86,549.24Z" transform="translate(-0.91 -0.91)" fill="#ee102f"/>
    <path d="M455.91,564.83l.21-1.77c1.23,1.24,1.08,2.62.22,4.75C456.13,566.39,456,565.61,455.91,564.83Z" transform="translate(-0.91 -0.91)" fill="#ece900"/>
    <path d="M453.15,576c0,.65,0,1.31.05,2-.09.33-.18.65-.28,1-1.07-1.33-1.86-2.66.12-3.91A1.69,1.69,0,0,0,453.15,576Z" transform="translate(-0.91 -0.91)" fill="#ee102f"/>
    <path d="M382,529c0,.66,0,1.31,0,2l-1,1C379.43,530.37,380.26,529.55,382,529Z" transform="translate(-0.91 -0.91)" fill="#ee172d"/>
    <path d="M445,538c0,1.38-.07,2.77-.11,4.16-1-1.61-.84-3.41-.83-5.18Z" transform="translate(-0.91 -0.91)" fill="#ee2929"/>
    <path d="M458,537h.83l.3,1c-.11,1.31-.23,2.61-.34,3.91C457.41,540.46,458.22,538.65,458,537Z" transform="translate(-0.91 -0.91)" fill="#ee112f"/>
    <path d="M217,493l3,1C218.35,495.53,217.53,494.72,217,493Z" transform="translate(-0.91 -0.91)" fill="#ece401"/>
    <path d="M498.92,482.89c.28-1.27.63-2.38,2.12-1C500.53,482.69,500.37,484.2,498.92,482.89Z" transform="translate(-0.91 -0.91)" fill="#ecf200"/>
    <path d="M375.91,545.87,377,543C378.45,544.65,378,545.55,375.91,545.87Z" transform="translate(-0.91 -0.91)" fill="#ece501"/>
    <path d="M454,573c-1.3-1.1-1.06-2.47-.68-4,1.16.5.51,1.6.89,2.28Z" transform="translate(-0.91 -0.91)" fill="#ee102f"/>
    <path d="M518.86,365.32V516.65h-.48V365.14Z" transform="translate(-0.91 -0.91)" fill="#0d3c80"/>
    <path d="M195,506c-1.55-1.29-1-3.07-1-4.66q0-45.34,0-90.67c0-1.59-.56-3.37,1-4.65.75,1.22.45,2.59.45,3.89q0,46.11,0,92.2C195.47,503.4,195.78,504.77,195,506Z" transform="translate(-0.91 -0.91)" fill="#114090"/>
    <path d="M195,506q0-50,0-100a4,4,0,0,1,.85.09q0,49.89,0,99.79A4,4,0,0,1,195,506Z" transform="translate(-0.91 -0.91)" fill="#2d537e"/>
    <path d="M106,308q-22.73,17.46-45.47,34.89c-1.67,1.27-3.25,2.86-5.53,3.11,5.38-7.08,13-11.64,19.77-17.09,9.37-7.53,19.14-14.57,28.64-21.93C105.3,305.52,106.17,305,106,308Z" transform="translate(-0.91 -0.91)" fill="#f9fafc"/>
    <path d="M107.9,308.48c-.16,2.84,1,5.79-.74,8.49l-.24-3Z" transform="translate(-0.91 -0.91)" fill="#204a86"/>
    <path d="M381,364h1a2,2,0,0,1,1.46,1.77c.05,2.2,0,4.4,0,6.6.25,4.2-.51,8.43.44,12.61.06,2.23.13,4.46.19,6.7.82,4-.06,8.22,1.2,12.21a25.89,25.89,0,0,1-.14,7.81v12.24C383.11,404,382.85,383.93,381,364Z" transform="translate(-0.91 -0.91)" fill="#ee202b"/>
    <path d="M252,557h-.85c-1.23-1.46-.38-3.2-.63-4.78-.07-2.43.35-4.91-.84-7.21a22.62,22.62,0,0,1-.16-4c0-2.39.31-4.83-.88-7.07a40.49,40.49,0,0,1-.12-4.8c0-2.12.15-4.26-.89-6.22a41.67,41.67,0,0,1-.11-4.74,19.84,19.84,0,0,0-.79-6.94A2.2,2.2,0,0,1,247,509c1.39.17,1.91,1,2,2.35.64,9.35,1.24,18.7,2,28,.47,5.55,1.29,11.07,2,16.61Z" transform="translate(-0.91 -0.91)" fill="#ee252a"/>
    <path d="M227,517.06l-1,1c-2.24-4.37-.55-9-1-13.54-.28-2.8-.07-5.64-.07-8.46,2.08.84.85,2.61,1,3.92C226.54,505.64,224.93,511.47,227,517.06Z" transform="translate(-0.91 -0.91)" fill="#ee122e"/>
    <path d="M463.8,510q-.81,7-1.63,14.08l-.34-.11A1.16,1.16,0,0,1,460,524c1.52-4.56.93-9.57,3-14C463.26,509.54,463.52,509.51,463.8,510Z" transform="translate(-0.91 -0.91)" fill="#ee2629"/>
    <path d="M299.89,510c-2.35-3.71.48-8.15-1.66-11.9A1.5,1.5,0,0,1,300,497a5.86,5.86,0,0,1,.12,5l0,2.06C300.62,506,300.91,508,299.89,510Z" transform="translate(-0.91 -0.91)" fill="#ecd702"/>
    <path d="M385.17,411.7q-.15-3.87-.28-7.73c-.46-1.36-.77-2.7.22-4H386q-.06,6.15-.13,12.31C385.63,412.11,385.39,411.91,385.17,411.7Z" transform="translate(-0.91 -0.91)" fill="#ecd300"/>
    <path d="M326.13,522l-.27,2c-1.72-3-.56-6.14-.77-9.22C326.3,517,325.55,519.6,326.13,522Z" transform="translate(-0.91 -0.91)" fill="#ecd300"/>
    <path d="M350.85,449.89l1-3c2.05,1.75-.41,3.45-.07,5.18a.88.88,0,0,1-.42.1c-.15,0-.26-.17-.39-.27A1.48,1.48,0,0,1,350.85,449.89Z" transform="translate(-0.91 -0.91)" fill="#ee152e"/>
    <path d="M247,509l.09,2a2.43,2.43,0,0,1-.17,3c-1.77-2.14-.57-4.67-.92-7Z" transform="translate(-0.91 -0.91)" fill="#ecd300"/>
    <path d="M350.85,449.89c0,.67.07,1.35.1,2L349.06,453c0-1.31.05-2.63.07-3.94l.76-.08Z" transform="translate(-0.91 -0.91)" fill="#ed9110"/>
    <path d="M302.41,393.1c-.06-.36-.13-.71-.19-1.07,2.62.59,1.53,2.45,1.25,4C303.12,395.07,302.77,394.09,302.41,393.1Z" transform="translate(-0.91 -0.91)" fill="#ee142e"/>
    <path d="M460,524l1.83-.06c-.32,1.7-.65,3.4-1,5.09l-.86,0Z" transform="translate(-0.91 -0.91)" fill="#ee112f"/>
    <path d="M300.07,502l-.12-5a2,2,0,0,1,1.06,2C301,500.07,301.19,501.23,300.07,502Z" transform="translate(-0.91 -0.91)" fill="#ee172d"/>
    <path d="M268.83,412l.2,2.95c-.26.33-.19,1.75-.83.73A3,3,0,0,1,268.83,412Z" transform="translate(-0.91 -0.91)" fill="#ee122e"/>
    <path d="M250,438c0-1.67.07-3.33.11-5H251C250.75,434.68,251.69,436.61,250,438Z" transform="translate(-0.91 -0.91)" fill="#ee162d"/>
    <path d="M463.8,510l-.8,0v-4.19c1.32.58.8,1.49,1,2.16Z" transform="translate(-0.91 -0.91)" fill="#ee122e"/>
    <path d="M382.9,365l-.9-1,.15-12.27a.72.72,0,0,1,.72.64c.08,2.56.15,5.11.23,7.66C383.59,361.71,383.9,363.38,382.9,365Z" transform="translate(-0.91 -0.91)" fill="#ee2929"/>
    <path d="M383.92,385c-1.84-4.33-.65-8.83-.77-13.26a.72.72,0,0,1,.72.64Z" transform="translate(-0.91 -0.91)" fill="#ee2929"/>
    <path d="M382.87,352.37l-.72-.64c-.08-2.25-.17-4.51-.25-6.76a8.06,8.06,0,0,1-.08-5l.38.14C383.83,344.12,382.72,348.28,382.87,352.37Z" transform="translate(-0.91 -0.91)" fill="#ecd300"/>
    <path d="M383.87,372.36l-.72-.64q-.12-3.36-.25-6.71c.07-1.66.13-3.32.2-5C385,364,383.63,368.25,383.87,372.36Z" transform="translate(-0.91 -0.91)" fill="#ecd300"/>
    <path d="M385.11,400c-.07,1.32-.15,2.64-.22,4-1.87-4-.53-8.19-.78-12.29C385.38,394.34,384.45,397.26,385.11,400Z" transform="translate(-0.91 -0.91)" fill="#ee2929"/>
    <path d="M513,488h-.5l-.5,0-.18-2c-.47-19-.64-38,.09-57l.29,0c1.29,1.61.76,3.51.77,5.29Q513,461.1,513,488Z" transform="translate(-0.91 -0.91)" fill="#c0aaa4"/>
    <path d="M511.92,428.93l-.09,57c-1.4-1.56-.8-3.48-.8-5.24,0-15.23,0-30.47-.06-45.71,0-1.73.66-3.7-1.09-5.09l1.21-1.17A3.84,3.84,0,0,1,511.92,428.93Z" transform="translate(-0.91 -0.91)" fill="#ed2c2b"/>
    <path d="M455.89,379.31l-.71-.65c-.09-1.22-.19-2.44-.28-3.66.07-.65.14-1.31.22-2C456.74,375,455.76,377.2,455.89,379.31Z" transform="translate(-0.91 -0.91)" fill="#ecd300"/>
    <path d="M381.82,340c0,1.67.05,3.34.08,5-1.52-1.47-.7-3.34-.85-5.05A3.29,3.29,0,0,0,381.82,340Z" transform="translate(-0.91 -0.91)" fill="#ee2929"/>
    <path d="M303.09,582l-.18,8c-1.9-6-.58-12.17-.75-18.26a.73.73,0,0,1,.71.64Z" transform="translate(-0.91 -0.91)" fill="#ecd300"/>
    <path d="M300.92,536c-1.92-5.36-.61-10.86-.74-16.3a.84.84,0,0,1,.69.68Z" transform="translate(-0.91 -0.91)" fill="#ecd300"/>
    <path d="M300.87,520.36l-.7-.68c-.09-3.23-.18-6.45-.28-9.68l.21-6C302,509.4,300.64,514.91,300.87,520.36Z" transform="translate(-0.91 -0.91)" fill="#ee2929"/>
    <path d="M302.87,572.35l-.72-.64q0-7.85,0-15.68C304,561.39,302.64,566.91,302.87,572.35Z" transform="translate(-0.91 -0.91)" fill="#ee2929"/>
    <path d="M246.92,514c.05-1,.11-2,.17-3,1.74,2.28.66,4.84.74,7.29a.8.8,0,0,1-.71-.65Z" transform="translate(-0.91 -0.91)" fill="#ee2929"/>
    <path d="M247.12,517.67l.71.65.3,4.72a1.36,1.36,0,0,1-.24,2C246.19,522.71,247.27,520.13,247.12,517.67Z" transform="translate(-0.91 -0.91)" fill="#ecd300"/>
    <path d="M250.11,545c1.69,2.29.65,4.86.73,7.32a.82.82,0,0,1-.71-.68c-.09-1.56-.18-3.12-.26-4.68A1.36,1.36,0,0,1,250.11,545Z" transform="translate(-0.91 -0.91)" fill="#ee2929"/>
    <path d="M250.13,551.64l.71.67c.1,1.57.2,3.13.31,4.69l-.24,2C249.16,556.68,250.28,554.09,250.13,551.64Z" transform="translate(-0.91 -0.91)" fill="#ecd300"/>
    <path d="M248.87,529.38l.26,4.66a1.36,1.36,0,0,1-.24,2c-1.69-2.27-.64-4.83-.76-7.27A.72.72,0,0,1,248.87,529.38Z" transform="translate(-0.91 -0.91)" fill="#ecd300"/>
    <path d="M248.89,536l.24-2c1.67,2.26.61,4.81.73,7.23a.72.72,0,0,1-.73-.65Z" transform="translate(-0.91 -0.91)" fill="#ee2929"/>
    <path d="M248.87,529.38l-.74-.65-.24-3.73.24-2C249.73,525,248.78,527.25,248.87,529.38Z" transform="translate(-0.91 -0.91)" fill="#ee2929"/>
    <path d="M249.13,540.62c.25.21.49.43.73.65.08,1.24.17,2.49.25,3.73l-.24,2C248.27,545,249.23,542.75,249.13,540.62Z" transform="translate(-0.91 -0.91)" fill="#ecd300"/>
</svg>