<svg id="b1454dcd-c2b9-4973-93ff-b83be567693d" data-name="Layer 1" 
    xmlns="http://www.w3.org/2000/svg" viewBox="0 0 720.19 702.19">
    <title>audition_cc</title>
    <path d="M360.5,703q-177.49,0-355,.09c-3.75,0-4.6-.84-4.59-4.59q.15-346.5,0-693C.9,1.75,1.75.9,5.5.91q355.5.15,711,0c3.75,0,4.6.84,4.59,4.59q-.15,346.5,0,693c0,3.75-.84,4.6-4.59,4.59Q538.5,702.93,360.5,703Z" transform="translate(-0.91 -0.91)" fill="#00e3ba"/>
    <path d="M361,673.16q-162,0-324,.1c-4.81,0-6.39-.86-6.39-6.14q.24-315.21,0-630.41c0-4.87,1.25-6,6-6q324.2.19,648.4,0c4.64,0,6.13.88,6.13,5.89q-.22,315.45,0,630.91c0,4.62-1.26,5.72-5.78,5.72Q523.27,673.07,361,673.16Z" transform="translate(-0.91 -0.91)" fill="#002620"/>
    <path d="M247,174.88c9.33,0,18.67.16,28-.08,3.62-.1,5,1.59,5.88,4.64,4.14,14.22,8.42,28.41,12.56,42.64,3.95,13.6,7.25,27.41,11.86,40.77,3.77,10.94,6.75,22.08,10,33.14,4,13.57,8.45,27,11.93,40.76,2.76,10.85,6.6,21.41,9.78,32.16,5.41,18.32,10.29,36.81,16.16,55,4.27,13.18,7.82,26.55,11.84,39.79,2.83,9.29,6.22,18.42,8.19,28,.64,3.06,0,4.39-3.24,4.38-15.33-.05-30.65,0-46,0-3.45,0-5.2-1.79-6.06-5.3-2.71-11-5.71-22-8.74-33-3.47-12.54-7.47-24.93-10.3-37.64-.68-3.05-1.79-6-2.56-9-1-3.89-3-5.37-7.38-5.33-26.82.25-53.65.36-80.47-.06-5.72-.09-8.33,1.62-9.71,6.87-4.51,17.05-8.53,34.22-13.68,51.11-2.75,9-4.88,18.14-7.05,27.27-.95,4-3.31,5.17-7.11,5.13-12.83-.1-25.66,0-38.49-.05-5.47,0-6-1.12-4.5-6.28,3.18-10.9,5.74-22,9.2-32.81s6.41-21.83,9.46-32.8c4.11-14.76,8.67-29.38,12.66-44.18,3-11,6.52-21.79,9.59-32.74,4-14.44,8.08-28.87,12.22-43.28,4-13.77,8.14-27.49,12.11-41.27s7.89-27.87,11.85-41.8c1.71-6,3.33-12.08,5.3-18,2.55-7.7,2.43-15.73,3.3-23.62.37-3.4,1.49-4.49,4.88-4.42C228,175,237.51,174.88,247,174.88Z" transform="translate(-0.91 -0.91)" fill="#00e3ba"/>
    <path d="M583,360.81c0,30.83-.12,61.66.09,92.48,0,7.81,1.06,15.62,1.77,23.41.28,3-.36,4.71-3.58,5.94-21.8,8.35-44,15.63-67.23,18.11-17.52,1.86-35.3,2.19-52.61-2-22.87-5.54-40-18.68-48.89-40.92a91.41,91.41,0,0,1-6.46-33.52c-.23-53.16-.05-106.32-.19-159.48,0-4.66,1.49-6,6.07-5.93,13.66.27,27.32.1,41,.1,6.58,0,7,.4,7,7.14,0,50.5-.08,101,.11,151.48.05,15.25,7.44,29.89,23.58,34.64,10,2.93,20.22,3.91,30.53,1.61,4.19-.94,8.44-1.57,12.63-2.64s5.23-2.81,5.23-6.81Q531.88,355.19,532,266c0-6.95,0-6.95,7-6.95,12.33,0,24.67.23,37-.12,4.72-.13,6.18,1,6.15,5.95-.23,32-.12,64-.12,96Z" transform="translate(-0.91 -0.91)" fill="#00e3ba"/>
    <path d="M247.8,221.49c1.73,7.52,3.4,15.07,5.22,22.57,1.86,7.7,3.88,15.35,5.83,23,2.39,9.43,4.73,18.88,7.17,28.31,1.81,7,3.76,14,5.6,21q3.72,14.11,7.36,28.25c.89,3.51,1.43,7.12,2.46,10.58.69,2.3-.29,2.57-2.1,2.57-20.82,0-41.65,0-62.47,0-3.14,0-3.19-1.66-2.6-3.85,4-14.81,8.3-29.54,11.95-44.44,5.38-21.94,11.71-43.63,16-65.85A160.6,160.6,0,0,1,247.8,221.49Z" transform="translate(-0.91 -0.91)" fill="#002620"/>
</svg>