<svg id="f0782d78-d5d9-462c-8bab-e7dd50e1fbc1" data-name="Layer 1" 
    xmlns="http://www.w3.org/2000/svg" viewBox="0 0 1280.21 328.21">
    <title>marshall</title>
    <path d="M234,186c20.66-29.22,40.69-58.88,62.35-87.38a689.91,689.91,0,0,1,75.32-84,107,107,0,0,1,10.09-8.15,14.74,14.74,0,0,1,10.39-2.74c7.15.64,10.32,5.25,8.25,12.1-1.07,3.56-3.17,6.56-5,9.69-23.21,38.61-47.47,76.6-68,116.75-15.39,30.06-29.62,60.63-37.85,93.56-3.84,15.4-6.51,31-2.49,46.89a40,40,0,0,0,1.9,5.66c3.26,7.77,8.25,10.41,16.32,8,20.71-6.15,36-18.93,45.63-38.31,10.52-21.2,24.49-39.59,43.48-53.92,13-9.85,27.19-17.42,43.66-19.49,10.73-1.35,21.3-.76,30.86,5.2,3.24,2,6,.91,8.74-1A23.84,23.84,0,0,1,497.52,185c6.58,1.49,8.54,4.8,6.61,11.27-3.16,10.58-8.71,20.1-13.66,29.87-7.81,15.41-16,30.63-23.92,46-1.52,2.93-2.62,6.09-3.86,9.16-.55,1.4-1.18,2.92.38,4.09,1.37,1,2.83.62,4.27,0,5-2.08,9.05-5.57,13-9.2,9.28-8.66,17.45-18.34,25.29-28.29,11.54-14.66,22.14-30,32.25-45.66,3.64-5.64,4.16-11,1.57-17.41-6.35-15.6-6.57-31.86-3.15-48.12,2.61-12.4,16.4-23.73,29-24.7a13.68,13.68,0,0,1,7.22,1.47c15,7.32,21.29,20.55,18.12,38.19a70.35,70.35,0,0,1-6.93,20.71c-.94,1.76-1.84,3.55-2.6,5.38-2.29,5.56-1.24,6.94,4.85,6a51,51,0,0,1,9.93-.8,19.59,19.59,0,0,1,10.72,3.62c5.78,4.1,7.17,9.36,3.85,15.62-6.8,12.87-16,24.07-24.8,35.59s-17.41,23.54-24.15,36.61A56.48,56.48,0,0,0,557,285.48c-.93,3.41-2.1,7,.77,9.92s6.88,2,10.39,1a70.37,70.37,0,0,0,25.13-12.87C606.42,272.84,617.12,259.81,628,247c19.78-23.2,38.42-47.36,58.94-69.93,3.47-3.81,7.31-7.28,11-10.87,3.17-3.07,6.81-3.94,11-2.19,1.53.64,3.12,1.15,4.61,1.88,11.18,5.49,12.23,8.75,5.33,18.8-5.84,8.5-12.08,16.73-18.26,25-1.31,1.75-1.81,3.18-1.09,5.42a237.75,237.75,0,0,1,9.51,44.32c.79,6.6,1.2,6.69,6.66,3.18,3.64-2.34,7.09-5,10.79-7.22,14.16-8.56,23.73-20.66,30.42-35.86q28.5-64.74,59-128.59c4.37-9.16,11.16-12.63,20.77-12.1,10.11.55,14.21,6,10.92,15.49-7,20.09-15.89,39.41-24.08,59-5.73,13.73-11.64,27.39-17.71,41.64,3.88-.76,6.56-2.91,9.43-4.56,6.8-3.88,13.59-7.67,21.53-8.84,8.14-1.2,14.59,1.56,18.37,8.85,5.73,11.05,7.7,22.48,3,34.6-7.14,18.53-16.58,35.87-26.47,53-2,3.44-3.82,7-5.55,10.58-.44.93-1,2.34,0,3.25s2.28.28,3.3-.16a34.4,34.4,0,0,0,9.13-6A122.6,122.6,0,0,0,864.25,254a173.86,173.86,0,0,1,58.64-61.63c12.94-8.28,27.68-11.09,43.09-9.41a25.4,25.4,0,0,1,15.22,6.78c2.59,2.46,4.86,3.6,6.63-.91,1-2.66,3.57-4,6.13-4.76a28.5,28.5,0,0,1,19.09.45c5.65,2.17,6.85,5.27,4.43,10.91-7.2,16.81-15.85,32.92-24,49.27-5.34,10.7-10.61,21.43-15,32.59-1.65,4.27-3.48,9.1.64,12.5s8.31,0,11.84-2.19A88.41,88.41,0,0,0,1023.94,251c13.08-26.57,26.79-52.77,44-77,21.33-30,44.88-57.94,75.2-79.44,8.08-5.73,16.66-10.34,26.55-12.07a23.85,23.85,0,0,1,10.4.15c7.65,2,11.72,8,10.23,15.75-2,10.38-7,19.66-11,29.34-15.78,38.66-43.09,67.94-75.28,93.38-13.47,10.64-27.95,19.86-41.58,30.27-11.72,8.94-13.84,21.21-11.86,34.43,1.6,10.73,10.7,14.86,20.71,10.39,5.71-2.55,10.38-6.61,14.8-10.91,17.46-17,31.22-36.72,42.93-58,15.5-28.15,31.54-56,52.38-80.63a322.35,322.35,0,0,1,64-57.7c6.8-4.68,14.12-7.3,22.53-6.19,8.83,1.16,13.43,6.95,11.43,15.71-7.12,31.18-20.5,59.19-42.31,83-21.12,23-43.85,44.24-69.16,62.63a90.32,90.32,0,0,0-16.7,15c-7.68,9.22-7.49,20.5-2.52,30.94,2.74,5.74,8.27,7.94,14.72,6.55,9.44-2,16.88-7.65,24-13.72,9.56-8.14,17.32-18,25.38-27.53,2.46-2.92,5.1-5.7,7.76-8.46,1.74-1.79,3.71-4,6.44-2.77,3.08,1.34,4.68,4.09,5,7.52a15.88,15.88,0,0,1-2.18,9.11c-13.93,24.76-31.32,46.42-56.66,60.35-24.45,13.45-49.3,4.72-60.52-20.94-1.56-3.57-3-3.92-5.73-1.71-3.36,2.73-6.65,5.54-10,8.25-13,10.47-27.21,18.46-43.86,21.47-3,.78-6,.18-9,.38-11-.06-23.74-11.31-26.09-23.09-1-4.95-1.43-5.18-5.58-2.41-8.86,5.93-17,12.89-26.3,18.19a56.19,56.19,0,0,1-9.48,4.47c-13,4.44-21.76,2-30.61-8.63-4.46-5.35-4.45-5.33-10.44-1.78a90.06,90.06,0,0,1-34.1,12.25c-12.87,1.73-24-1.78-33.3-11-3-3-5.43-7.71-9.58-8.4-4.4-.73-7.24,4.13-10.82,6.4-6.06,3.83-12,7.75-18.55,10.81-20.55,9.66-40-7.63-43.12-23.16a16.57,16.57,0,0,1,1-8.83,199.24,199.24,0,0,1,9.68-22.48c7.22-14.65,14.56-29.23,21.86-43.84.52-1,1.09-2.07,1.54-3.14.58-1.35,1.82-2.94.64-4.18-1.49-1.57-3.16-.07-4.45.78-14.68,9.83-27.93,21-36.21,37.14-6.85,13.34-13.08,27-19.44,40.55A128.23,128.23,0,0,1,745.87,323c-2.61,3.35-5.75,5.49-10.12,5.5h-4.56c-13.42-1.9-17.94-11-14.43-29.55-3.58.16-6.21,2.21-8.75,4.05-6.75,4.9-13.79,9.33-21,13.6-14.55,8.67-30,13.25-47.14,11.39-11.11-1.21-19.39-7.4-26.84-15.08-.92-.95-1.74-2-2.6-3-2.41-2.9-5-3.32-8.27-1.23-5.07,3.19-10.31,6.13-15.54,9.06-13.13,7.38-27.29,9.23-42,8.58a11.54,11.54,0,0,1-6.63-1.94c-12.72-9.57-20.94-19.64-15.66-36.36,4.92-15.57,12.76-29.62,21.65-43.17,6-9.09,13.5-16.91,20.09-25.5,1.75-2.29,3.8-4.55,4.12-8.31-4.08,1.11-5.82,4-7.74,6.58-11.7,15.59-22.84,31.58-34.6,47.13a407.68,407.68,0,0,1-27.1,32.66c-11.41,12.21-24.74,21.74-40.89,26.88-11.81,3.76-22.72,3.36-31.61-6.61-2.19-2.46-4.41-2.29-7.12-.84a100.23,100.23,0,0,1-15,6.76c-10.39,3.53-21,3.54-31.6,1.93-9.41-1.43-17.19-6.34-23.4-13.37-2.82-3.19-5.23-3.59-8.55-1.43a172.16,172.16,0,0,1-20.35,11.67c-13.66,6.5-28,7-42.51,4.56-12-2-18.94-9.88-22.27-21.11a89.93,89.93,0,0,1-3.83-24.1c-.25-16.35.33-32.62,3-48.78a15.28,15.28,0,0,1,.93-3.84c-4.64,10.12-10.51,19.57-16.33,29-12.71,20.55-25.77,40.9-41.68,59.19-4,4.57-7.46,10-14.15,11.23-10.81-.14-15.75-5.69-13.89-16.15,3.15-17.69,8.32-34.91,12.26-52.42,4.09-18.15,8.41-36.26,10.08-54.85a36.51,36.51,0,0,0,1.1-5.79c.06-.66,0,.17,0-.49-.19.07-.05.25-.12.41-15.84,31.36-30.89,63.21-53.64,90.36C128.33,302.6,116,314.43,99.51,320.49a96.28,96.28,0,0,1-59.85,2.67C19,317.5,2.08,296.25,1.52,276.13c-.24-1.7.53-3.51-.52-5.13V259c.65-8.12,3.61-15.38,8-22.18,8.49-13.17,21.71-16.84,36.09-18,8.24-.69,16.27.92,24.12,3.28,4.2,1.26,8,3.3,10.77,6.9a10.4,10.4,0,0,1,1.32,10.86c-1.6,3.87-4.92,4.57-8.65,4.5a63.2,63.2,0,0,1-8.46-.59c-11.94-1.87-21.94,5.1-24.89,16.93C32.58,287.57,55,300.18,75.93,296.09c14.4-2.81,25.48-11.24,34.4-22.49,11-13.9,19.27-29.57,27.46-45.2,18.39-35.12,34.17-71.5,51-107.38,16.95-36.18,33.66-72.54,56.17-105.78,2.06-3,4.2-6,6.5-8.87A14.76,14.76,0,0,1,259,1h7c10.37,4.26,12.48,8.45,9.53,19.7-3.2,12.24-9.29,23.37-13.81,35.11-13.59,35.3-23.42,71.51-27.4,109.19-.63,5.95-1,11.93-1.45,17.89C232.66,184.14,231.4,185.77,234,186Z" transform="translate(-0.91 -0.9)"/>
    <path d="M1043,329a1.49,1.49,0,0,0-.08-.86l10.15,0a1,1,0,0,0-.07.89Z" transform="translate(-0.91 -0.9)" fill="#929292"/>
    <path d="M1.9,276.13,1.47,276,1,276v-5C2.46,272.51,2.23,274.31,1.9,276.13Z" transform="translate(-0.91 -0.9)" fill="#484848"/>
    <path d="M736.06,328.17a5.79,5.79,0,0,0-.06.83h-5a2.11,2.11,0,0,0,0-.9Z" transform="translate(-0.91 -0.9)" fill="#bababa"/>
    <path d="M234,186c-.08.87-.55,1.58-1.41,1.53s-.57-1-.5-1.47a31.85,31.85,0,0,1,.78-3.17C233.56,183.81,232.51,185.37,234,186Z" transform="translate(-0.91 -0.9)" fill="#979797"/>
    <path d="M452.12,216.52c-.74,30.68-26.36,66.91-54.49,77a21.67,21.67,0,0,1-7.27,1.53c-7.54,0-12.21-4.36-12.25-12,0-6.09,1.81-11.84,4.26-17.3a137.32,137.32,0,0,1,37.26-49.93c5.76-4.83,12.05-8.75,19.7-10.11C449.05,204.06,452.35,206.7,452.12,216.52Z" transform="translate(-0.91 -0.9)" fill="#fefefe"/>
    <path d="M963.16,220.65c-1.23,13.74-7.65,27.88-15.86,41.33a83.67,83.67,0,0,1-28.15,28.52c-4.27,2.6-8.71,4.93-13.78,5.49-7.73.85-12.35-2.85-13.41-10.6A41.54,41.54,0,0,1,895.49,263a118.12,118.12,0,0,1,40.93-50.55,40.74,40.74,0,0,1,11.6-5.67C958.81,203.48,963.53,207.08,963.16,220.65Z" transform="translate(-0.91 -0.9)" fill="#fefefe"/>
    <path d="M672.44,270.48c1.32,13-1.38,24.15-13.19,31.75-3.65,2.35-6.62,2.63-9.86-.21-.88-.77-1.83-1.45-2.69-2.23-11.88-10.67-12.42-14.69-3.51-27.8,5.9-8.67,12.18-17.07,19.68-24.46,3.89-3.84,5.46-3.43,7.13,1.75C672.22,256.19,672.11,263.39,672.44,270.48Z" transform="translate(-0.91 -0.9)" fill="#fefefe"/>
    <path d="M1175.94,206.4c-.09-3.43,1.44-5.68,2.78-7.88A411.78,411.78,0,0,1,1238.09,123c2.09-2.11,4.9-6,7.44-4.27,2.18,1.5-.62,5.53-2,8.05-11.14,20.91-23.55,41-41.12,57.23-7,6.45-14,12.79-21,19.17A13.15,13.15,0,0,1,1175.94,206.4Z" transform="translate(-0.91 -0.9)" fill="#fefefe"/>
    <path d="M1155.32,118.13c.42,4.38-1.93,7.68-3.91,10.94-15,24.76-32.64,47.39-54.29,66.74-4.34,3.88-8.8,7.62-13.24,11.39a7.83,7.83,0,0,1-1.79.8C1082.42,195,1138.65,126,1155.32,118.13Z" transform="translate(-0.91 -0.9)" fill="#fefefe"/>
    <path d="M568,148.53c.13,5.5-1.6,10.1-4,14.52-.65,1.18-1.44,2.37-2.89,2.4s-2.17-1.4-2.67-2.6c-3.47-8.35-2.74-16.54,1.44-24.39,1.84-3.47,4.2-3.25,6.1.35A18.69,18.69,0,0,1,568,148.53Z" transform="translate(-0.91 -0.9)" fill="#fcfcfc"/>
    <path d="M193.12,204.11c-1-1.87.9-4.2-.92-6l1.06-2.4C194.07,198.69,194.28,201.43,193.12,204.11Z" transform="translate(-0.91 -0.9)" fill="#989898"/>
</svg>