<svg id="a584ad79-8ef9-44a1-a466-ed764003ed66" data-name="Layer 1" 
    xmlns="http://www.w3.org/2000/svg" viewBox="0 0 720.19 719.19">
    <title>photoshop_cc</title>
    <path d="M14.13,417c-.05-1.83-.15-3.66-.15-5.49Q14,213,14,14.55c0-6.49,0-6.49,6.4-6.49H504.37c6.55,0,6.56,0,6.56,6.35q0,238.22.18,476.43c0,5.24-1.49,6.25-6.41,6.25q-242.46-.19-484.93-.16c-1.86,0-4,1-5.59-1,2.24-2,5-1.48,7.61-1.49,4.82,0,9.64-.18,14.46,0,154.27-.3,308.54-.05,462.81-.13,9.29,0,9.3,0,9.3-9.33q0-111.7,0-223.41c0-2.5,0-5,.17-7.49q-.36-37.47,0-74.94c-.19-10.37-.22-20.74,0-31.11q-.31-15,0-30c-.18-8.33-.19-16.67,0-25-.21-7-.18-14,0-21q-.3-10.94,0-21.87c-.19-7.31-.12-14.63,0-21.93.26-4.47.24-9,.13-13.42-.1-4.09-1.92-5.31-5.76-4-2.36.83-4.35,2.4-6.6,3.46-16.8,7.93-33.53,16-50.39,23.74-5.27,2.43-10.32,5.27-15.39,8.09a62.84,62.84,0,0,1-9,.25l-357.21,0a40,40,0,0,0-8,.3,5.07,5.07,0,0,0-1.49,1,6.45,6.45,0,0,0-1.06,1.48c-.63,2.3-.36,4.65-.36,7q0,81.9,0,163.8c0,2.65.26,5.33-.4,7.95-2.94,3.77-7.67,4.43-11.64,6.22-7.29,3.28-14.23,7.29-21.66,10.26-2.6,1-3.33,3-3.32,5.52,0,5.66,0,11.32.08,17,.15,7.39.17,14.78,0,22.18q.29,11.94,0,23.87c.21,7.36.19,14.72,0,22.08.19,10.64.21,21.28,0,31.91.18,11.27.22,22.54,0,33.81.17,3.8.2,7.61,0,11.4C16.37,414,16.79,416.29,14.13,417Z" transform="translate(98.09 8.09)" fill="#9fcafe"/>
    <path d="M36,496l-21.84,0c0-.33,0-.67,0-1,.78-11.14.17-22.29.33-33.44.09-6.49.17-13-.05-19.49-.11-3.24.87-5.36,3.84-6.77,9.17-4.38,18.3-8.84,27.55-13.05,2.08-.95,4.36-1.91,6.59-.11,1.42,2.29.85,4.84,1,7.3.43,8.93-.83,17.9.69,26.79a5,5,0,0,0,1.39,1c9.91.92,19.84.15,29.75.41,7.44.18,14.89-.4,22.31.32,3,1.33,1.46,2.86,0,4a47.42,47.42,0,0,1-8.82,4.61C77.61,476,57,486.36,36,496Z" transform="translate(98.09 8.09)" fill="#81bafa"/>
    <path d="M52,422c-6,.31-10.93,3.87-16,6.37-5.63,2.77-11.46,5.14-17,8.05-2.9,1.52-4,3.14-4,6.48.19,15.59.1,31.19.05,46.79,0,1.76.62,3.67-.8,5.24q0-39,0-77.94c1.87-5.25.36-10.67.86-16,10.62-6.08,21.91-10.76,32.92-16,1.79-.86,3.91-1.2,5.06,1.33.9,10.87.33,21.75.32,32.62A3.83,3.83,0,0,1,52,422Z" transform="translate(98.09 8.09)" fill="#84bcfa"/>
    <path d="M36,496c1.17-2.49,3.61-3.31,5.83-4.35q31.64-14.87,63.28-29.69c1.47-.68,3.16-1.16,3.87-2.9,2.58-2.27,5.72-1.4,8.62-1.4q171.56-.06,343.12-.05c2.48,0,5,.3,7.43-.39a3.38,3.38,0,0,0,1.13-1.3,9.17,9.17,0,0,0,.25-1.81q.13-121.49.05-243c0-2.81-.42-5.67.64-8.42a1.62,1.62,0,0,1,1.63-.9,4.66,4.66,0,0,1,1.48,3.6c.14,19.66.55,39.33,0,59-1.85,62.11-.26,124.24-.85,186.35,0,1,.29,2,0,2.47,0-1,0-2.42,0-3.87q0-88.23,0-176.44c-.18-2.15,1.07-3.28,2.84-4.16,10.08-5,20.38-9.48,30.44-14.5,1.3-.65,2.72-1.38,4.17-.21q0,118.41.12,236.84c0,4.26-1.34,5.22-5.38,5.22Q270.36,495.92,36,496Z" transform="translate(98.09 8.09)" fill="#7fb9fa"/>
    <path d="M510,254q-12.84,5.92-25.67,11.85c-3.75,1.73-7.52,3.43-11.29,5.14-.93-1.73-.46-3.59-.46-5.39q-.06-30,0-59.91c.52-3.3-1.72-6.48-.46-9.81a4.74,4.74,0,0,1,2.82-2.59c10.09-4.5,19.89-9.61,30-14,1.63-.71,3.27-1.81,5-.31Z" transform="translate(98.09 8.09)" fill="#82bbfa"/>
    <path d="M52,385c-10.9,3.4-20.39,9.94-31,14-2,.76-3.7,2.22-6,2q0-17,0-34c10.05-5.88,20.9-10.13,31.28-15.36,2.2-1.11,4.86-1.59,6.62,1.24.67,10.49,1.13,21-.27,31.44Z" transform="translate(98.09 8.09)" fill="#86bdfa"/>
    <path d="M432,45c3.85-5,9.92-6.2,15.11-8.85C465,27,483.84,19.87,501.27,9.8A8.74,8.74,0,0,1,509,9.48c1.94.79,1,3.29,1,5,.11,4.17,0,8.34,0,12.5-10.34,6.06-21.53,10.42-32.21,15.81-2.63,1.33-5.17,3.08-8.24,3.47-10.81.24-21.61.09-32.41.09C435.31,46.38,433.41,46.53,432,45Z" transform="translate(98.09 8.09)" fill="#9cc9fd"/>
    <path d="M52,352c-3.31-.46-6.08.91-8.84,2.48-7.4,4.23-15.59,6.86-22.93,11.26-1.47.87-3.46.86-5.21,1.26V335c3.29-2.63,7.31-3.82,11-5.54,7.06-3.25,13.91-6.94,21.08-9.94,1.86-.78,3.92-2.35,5.72.25,1,3.82.34,7.72.58,11.58,0,5.06,0,10.11,0,15.16C53.35,348.43,53.64,350.48,52,352Z" transform="translate(98.09 8.09)" fill="#8bc0fb"/>
    <path d="M510,179c-6.88,1.77-12.87,5.61-19.38,8.25-5.93,2.4-11.19,6.34-17.58,7.74a4.38,4.38,0,0,1-1.33-3.58c0-8.72-.45-17.44.26-26.13.46-1.61,1.78-2.32,3.18-2.89,10.15-4.11,19.68-9.55,29.76-13.79,1.61-.68,3.21-2,5.09-.6Z" transform="translate(98.09 8.09)" fill="#85bdfa"/>
    <path d="M510,148c-11.08,3.77-21,10.21-31.83,14.45-1.68.66-3.2,1.74-5.13,1.54a4.35,4.35,0,0,1-1.33-3.58c.05-8.37-.5-16.75.3-25.1.88-2.47,3.1-3.43,5.23-4.29,9.12-3.7,17.61-8.73,26.73-12.42,1.94-.78,3.83-2.31,6-.61Z" transform="translate(98.09 8.09)" fill="#89bffb"/>
    <path d="M510,118c-5.31.8-9.75,3.79-14.51,5.89C488,127.21,480.82,131.36,473,134q-.3-.33-.63-.66c-1.42-7.77-.84-15.57-.33-23.37,3.19-4,8.23-4.78,12.45-6.9q10.23-5.16,20.82-9.64c1.49-.63,3-1.71,4.65-.42Z" transform="translate(98.09 8.09)" fill="#8cc0fb"/>
    <path d="M471,45c12.85-6.3,25.33-13.43,39-18V50c-1.49,1.9-3.64,2.81-5.73,3.8-8.36,3.93-16.77,7.76-25,11.94-2.17,1.1-4.56,2.27-6.82,0-2.19-5.25.83-10.38.13-15.15-.27,1.4.16,3.33-.19,5.2a1.2,1.2,0,0,1-1.45.39c-1.92-2.49-1-5.38-1.17-8.12a5.76,5.76,0,0,1,.33-1.64A7.55,7.55,0,0,1,471,45Z" transform="translate(98.09 8.09)" fill="#98c6fc"/>
    <path d="M15,313V289c10.51-6.27,21.93-10.66,32.88-16,1.54-.76,3.5-1.39,4.88.65,1.08,3.1.44,6.3.65,9.45-.23,4.35.45,8.74-.49,13.06a4.06,4.06,0,0,1-2.55,2.21c-10.39,4-20.08,9.56-30.27,14C18.49,313.08,16.89,314.36,15,313Z" transform="translate(98.09 8.09)" fill="#92c4fc"/>
    <path d="M52,273c-10.72,3.39-20.16,9.63-30.53,13.79-2.11.85-4,2.45-6.45,2.21V266a334.72,334.72,0,0,1,33.81-16.17c1.6-.67,3.26-.81,4.16,1.26.86,6.26.34,12.54.32,18.82A3.81,3.81,0,0,1,52,273Z" transform="translate(98.09 8.09)" fill="#97c6fc"/>
    <path d="M15,313c9.53-4.43,19.07-8.84,28.59-13.3,2.69-1.25,5.33-2.6,8.39-2.7a36.31,36.31,0,0,1,0,22q-16.36,7.44-32.73,14.9A8.25,8.25,0,0,1,15,335Z" transform="translate(98.09 8.09)" fill="#8ec1fb"/>
    <path d="M473,66c2.43.3,4.48-.72,6.56-1.78,10-5,20-10,30.41-14.21q0,11,0,22a9.29,9.29,0,0,1-3.08,2.45c-10.29,4.54-20.29,9.71-30.59,14.21-1.29.57-2.78,1.43-4-.28-.87-1.92-.6-4-.69-6,0-3.79,0-7.57,0-11.35C471.66,69.27,471.47,67.39,473,66Z" transform="translate(98.09 8.09)" fill="#93c4fc"/>
    <path d="M52,250c-10.9,3.78-20.87,9.61-31.4,14.22-1.8.78-3.45,2-5.57,1.78,0-6,.07-12,0-18,0-2.21.44-3.5,2.77-4.51,9.29-4,18.45-8.39,27.62-12.7,2.13-1,4.16-2.12,6.62-1.81,1.84,1.78,1.24,4.1,1.42,6.26C52.79,240.16,54.77,245.31,52,250Z" transform="translate(98.09 8.09)" fill="#9bc8fd"/>
    <path d="M473,89c12.31-5.7,24.34-12,37-17V93c-10.91,4.16-21.21,9.66-31.83,14.44-1.65.74-3.2,1.75-5.13,1.55A30.86,30.86,0,0,1,473,89Z" transform="translate(98.09 8.09)" fill="#8fc2fb"/>
    <path d="M471,45c0,.33,0,.66,0,1-2.61,2.16-5.74,1.4-8.66,1.41q-110.67.06-221.34,0-89.43,0-178.86,0c-2.75,0-5.72.75-8.14-1.39,1.83-1.79,4.12-1,6.19-1Q246.09,45,432,45Z" transform="translate(98.09 8.09)" fill="#a9d7fe"/>
    <path d="M54,46H471l-.06,1.17a5.65,5.65,0,0,1-1.75,1,31.22,31.22,0,0,1-6.48.3q-200.13,0-400.25,0a47.89,47.89,0,0,1-6-.17,5.16,5.16,0,0,1-1.85-.75l-.6-.8C54,46.46,54,46.23,54,46Z" transform="translate(98.09 8.09)" fill="#98c0f5"/>
    <path d="M52,235q0-3-.05-6,0-87.93.06-175.86c0-2-.92-4.36,1.05-6.11,2,2.48,1.3,5.42,1.3,8.18q.06,82.57,0,165.15c-.37,4.7.73,9.49-.8,14.13A1.14,1.14,0,0,1,52,235Z" transform="translate(98.09 8.09)" fill="#b7e9fe"/>
    <path d="M53.16,221c0-13.49-.15-27-.15-40.48q0-66.75.08-133.49a2.43,2.43,0,0,0,.93-.34.35.35,0,0,1,0,.51c2,2.28,1.34,5.07,1.35,7.66q.06,60.44,0,120.88c0,12.71,0,25.42,0,38.13,0,2.13.25,4.31-.64,6.36A1.36,1.36,0,0,1,53.16,221Z" transform="translate(98.09 8.09)" fill="#586faa"/>
    <path d="M471,457.87c-1.73,2-4.06,1.08-6.1,1.08Q286.93,459,109,459c-16.58,0-33.16,0-49.74,0-1.75,0-3.68.64-5.22-.84l.7-.72c2-1.09,4.23-.81,6.37-.81q201.57,0,403.14,0C466.54,456.6,469,456.21,471,457.87Z" transform="translate(98.09 8.09)" fill="#8fd1fe"/>
    <path d="M54,458.13,53.7,458l-.37,0c-1.63-1.5-.76-3.44-.77-5.14q-.11-33.78,0-67.55c.07-10-.15-19.94.11-29.91a1.1,1.1,0,0,1,1.65-.27c2,3.72.9,7.75,1.08,11.64s0,7.58.06,11.37c0,23.62,0,47.24,0,70.85-.11,2.43.17,4.89-.42,7.29a3.91,3.91,0,0,1-1,1.47Z" transform="translate(98.09 8.09)" fill="#49669e"/>
    <path d="M52.84,385q.07,33.54.16,67.06c0,2,.21,3.95.32,5.93-2.07-1.19-1.27-3.22-1.28-4.9C52,442.72,52,432.36,52,422V385H52C52.29,384.55,52.56,384.55,52.84,385Z" transform="translate(98.09 8.09)" fill="#95d7fe"/>
    <path d="M54.05,456.91c0-2.3.07-4.6.11-6.9a1,1,0,0,1,1.27.22c1.07,1.86.66,5.28,4.48,4.25,18.09-.1,36.17-.17,54.24,0,3.67.28,7.32-.13,11-.13q167.84,0,335.66,0c2.17,0,4.33-.06,6.49.14a12.54,12.54,0,0,1,1.93.43,4.84,4.84,0,0,1,1.61,1.11.88.88,0,0,1,0,.82c-1.49,1.14-3.22.59-4.83.59q-203.55,0-407.09,0C57.29,457.46,55.57,458,54.05,456.91Z" transform="translate(98.09 8.09)" fill="#000016"/>
    <path d="M54.05,456.91q42,0,84,.09,164.17,0,328.34,0c1.5,0,3-.08,4.49-.12.05.33.09.67.13,1-1.5,0-3,.12-4.49.12q-203.78,0-407.55,0c-1.66,0-3.31-.16-5-.25C54,457.46,54,457.19,54.05,456.91Z" transform="translate(98.09 8.09)" fill="#3c558b"/>
    <path d="M470.83,456.05l-.77-.08c-2.13-2.42-1.45-5.37-1.45-8.13q-.06-76.87,0-153.75.06-47.47,0-95c0-18.32,0-36.64,0-55,0-2.3-.39-4.69.95-6.82a1.16,1.16,0,0,1,1.72-.18c.91,1.33.7,2.87.7,4.34q0,27.84,0,55.68c0,1.64.19,3.34-.82,4.82-.05,2-.16,4-.16,6q0,121.05,0,242.09C471,452.07,470.9,454.06,470.83,456.05Z" transform="translate(98.09 8.09)" fill="#161a58"/>
    <path d="M473,205V456.79h-1V205C472.34,204.55,472.67,204.55,473,205Z" transform="translate(98.09 8.09)" fill="#85c4fe"/>
    <path d="M471.17,202q-.09-29-.18-58.06c0-2.31-.1-4.62-.16-6.94-1.39-1.66-1.32-3.7-1.2-5.64.42-7-1.13-14.1.92-21a1.18,1.18,0,0,1,1.69-.23c.54,8,.1,16.05.24,24.08q0,31.22,0,62.43c0,1.79.46,3.66-.46,5.39Z" transform="translate(98.09 8.09)" fill="#87bdf6"/>
    <path d="M472,202V134c.33-.44.67-.46,1,0h0v71h-1Z" transform="translate(98.09 8.09)" fill="#8ec8fe"/>
    <path d="M52.84,385H52q0-16.5-.05-33,0-10.5,0-21a1.17,1.17,0,0,1,1.61.54c1,7.85,1.75,15.69-.47,23.48Q53,370,52.84,385Z" transform="translate(98.09 8.09)" fill="#9cdbfe"/>
    <path d="M52.84,331H52q0-6,0-12V297q0-7,0-14a1.2,1.2,0,0,1,1.64.59c1,1.87.73,3.9.74,5.89,0,11.66.05,23.32,0,35C54.37,326.71,54.94,329.19,52.84,331Z" transform="translate(98.09 8.09)" fill="#a3defe"/>
    <path d="M473,134h-1V110a4.61,4.61,0,0,1-1.29-3.16c.18-7.78-1-15.59.66-23.32A1.18,1.18,0,0,1,473,83v51Z" transform="translate(98.09 8.09)" fill="#95ccfe"/>
    <path d="M471.17,110q-.17,13.52-.34,27H470c-1.7-1.55-1.4-3.63-1.42-5.59-.07-5.48,0-11,0-16.43,0-19.74,0-39.48,0-59.22a29.91,29.91,0,0,1,.34-6.94A4.52,4.52,0,0,1,470,47.17a1.54,1.54,0,0,1,.95,0c.07,3,.15,5.9.22,8.84,1.8,7.69.95,15.52.68,23.23-.32,9.28-.18,18.56-.36,27.83A7.3,7.3,0,0,1,471.17,110Z" transform="translate(98.09 8.09)" fill="#181a60"/>
    <path d="M471.17,110q0-27,0-54H472a151.23,151.23,0,0,1,0,27v27Z" transform="translate(98.09 8.09)" fill="#92c3f7"/>
    <path d="M472,83q0-13.5,0-27V48.19h1V83h-1Z" transform="translate(98.09 8.09)" fill="#9ed0fe"/>
    <path d="M52.84,283H52c0-3.33,0-6.66,0-10q0-11.49,0-23,0-7.5.05-15h.82c2,1.62,1.53,3.9,1.54,6,.07,10.58,0,21.15,0,31.73C54,276.14,55.54,279.9,52.84,283Z" transform="translate(98.09 8.09)" fill="#ade4fe"/>
    <path d="M470,47.17c0,.27,0,.55,0,.82a6.32,6.32,0,0,1-1.7,1c-2.46.61-5,.37-7.46.37q-61.92,0-123.84,0-136.36-.06-272.72,0c-2.8,0-5.66.41-8.41-.6A1.59,1.59,0,0,1,55,47.19c1.5-.06,3-.18,4.48-.18L466,47C467.34,47,468.67,47.11,470,47.17Z" transform="translate(98.09 8.09)" fill="#151362"/>
    <path d="M55,47.19c0,.27,0,.54,0,.81a6.58,6.58,0,0,1,1,1.67,19.32,19.32,0,0,1,.56,6.42c0,22.93.14,45.86-.08,68.78.08,13.48.23,27-.07,40.44-.09,3.37.53,6.8-.77,10.09a1.15,1.15,0,0,1-1.52.61q-.07-43.44-.15-86.87,0-21,0-41.94A.94.94,0,0,1,55,47.19Z" transform="translate(98.09 8.09)" fill="#00003c"/>
    <path d="M53.16,273q-.16-19-.32-38,.16-7,.32-14h.68c2,1.62,1.52,3.89,1.54,6,.08,7.58,0,15.16,0,22.73-.4,7.54.75,15.13-.7,22.65A1.21,1.21,0,0,1,53.16,273Z" transform="translate(98.09 8.09)" fill="#546ca5"/>
    <path d="M54.16,250q-.15-14.5-.32-29,.15-22.49.32-45H55c2.59,3.06,1,6.74,1.54,10.13q.12,10.91,0,21.83c.07,12.92.26,25.84-.14,38.76a5.76,5.76,0,0,1-.67,2.69A1.14,1.14,0,0,1,54.16,250Z" transform="translate(98.09 8.09)" fill="#000032"/>
    <path d="M53.16,273l.68,0c2.09,1.8,1.53,4.28,1.54,6.53.07,14.79,0,29.59,0,44.38,0,8.38,0,16.76,0,25.14,0,2.08.4,4.34-1.54,5.95l-.68,0q-.16-12-.32-24V283C53,279.66,53.05,276.33,53.16,273Z" transform="translate(98.09 8.09)" fill="#4f69a2"/>
    <path d="M55,450h-.82q0-36,0-72a1.15,1.15,0,0,1,1.53.63c1.71,6.12.39,12.36.83,18.54.1,6.92,0,13.85,0,20.78s.15,13.93-.06,20.9C56.26,442.61,57.57,446.57,55,450Z" transform="translate(98.09 8.09)" fill="#00001c"/>
    <path d="M55,378h-.81l-.33-23q.15-15.5.32-31a1.14,1.14,0,0,1,1.53.63c1.76,6.12.33,12.38.84,18.55-.21,11.08.63,22.17-.46,33.24A3.55,3.55,0,0,1,55,378Z" transform="translate(98.09 8.09)" fill="#000024"/>
    <path d="M469,456H114c.5-3.4,3.51-3.76,5.88-4.45,15-4.37,30-9.1,44.92-13.63q27.72-8.39,55.51-16.57c23.49-6.86,46.81-14.28,70.32-21.07,20-5.76,39.86-12,59.76-18,29.47-9,59-17.73,88.49-26.63,8.29-2.51,16.48-5.35,24.84-7.59,1.9-.51,4.54-2.23,5.77,1.26q0,50.67,0,101.33C469.46,452.39,469.94,454.26,469,456Z" transform="translate(98.09 8.09)" fill="#070033"/>
    <path d="M469,348q-36.66,11-73.34,22c-31.44,9.39-62.91,18.68-94.32,28.16-22.84,6.89-45.57,14.11-68.4,21-17,5.11-34.07,9.81-51,14.92S148,444.48,131.15,449.88c-5.77,1.85-12.2,1.91-17.15,6.11H58c-2.31-3.91.37-5.6,3.31-6.69,7.49-2.78,15.22-4.88,22.86-7.16,28.39-8.49,56.64-17.41,85.08-25.67,36.92-10.73,73.59-22.28,110.47-33.14,27.45-8.1,54.81-16.56,82.22-24.81,31.88-9.6,63.71-19.34,95.69-28.6,2.4-.69,4.7-1.76,7.16-2.19,1.63-.28,3.64-1.43,4.69,1.1C469.21,335.22,470.07,341.64,469,348Z" transform="translate(98.09 8.09)" fill="#070035"/>
    <path d="M469,328q-39.58,11.78-79.15,23.57Q326.91,370.35,264,389.18c-21.77,6.55-43.43,13.41-65.19,20-20.31,6.12-40.7,11.95-61,18.07Q106.34,436.71,75,446.56c-4.42,1.4-9,2.19-13.35,3.92-2.89,1.15-4,2.62-3.65,5.51-4.89,0-2.32-3.83-3-6,0-3.66,0-7.33,0-11a10.6,10.6,0,0,1,5.61-3.94c15.64-4.59,31.2-9.47,46.83-14.1,19-5.63,37.89-11.49,56.84-17.2,25.5-7.68,51-15.17,76.53-22.88,24.06-7.27,48.08-14.67,72.19-21.74,30.5-8.95,60.83-18.44,91.32-27.44,18.67-5.52,37.28-11.21,56-16.67,2.92-.86,6-3.1,9.16-.28C469.23,319.17,470,323.62,469,328Z" transform="translate(98.09 8.09)" fill="#070037"/>
    <path d="M469,328V314c-2.89-4.85-1-10.15-1.43-15.23a8.7,8.7,0,0,1,.88-4.37A1.08,1.08,0,0,1,470,294l.09,162H469q0-54,0-108Q469,338,469,328Z" transform="translate(98.09 8.09)" fill="#002"/>
    <path d="M470,294h-1c-2.43-2.87-1.43-6.34-1.56-9.58-.13-3.48-.14-7,.07-10.47q-.3-20.37,0-40.74c-.2-9.53-.07-19.06-.06-28.58a9.68,9.68,0,0,1,.88-4.8A1.65,1.65,0,0,1,470,199Z" transform="translate(98.09 8.09)" fill="#00002e"/>
    <path d="M470,199H469l-.66-.71c-1.07-2-.92-4.2-.92-6.35,0-11.3-.1-22.61.06-33.91-.1-10.18-.2-20.36.05-30.54.17-4-.71-8.09.85-12A1.13,1.13,0,0,1,470,115q0,11,.08,22Q470,168,470,199Z" transform="translate(98.09 8.09)" fill="#000037"/>
    <path d="M470,115h-1c-2.16-2.4-1.29-5.34-1.44-8.11-.18-4.67-.14-9.34,0-14-.19-7.56-.14-15.12,0-22.68.1-6.87-.6-13.76.46-20.61A7,7,0,0,1,469,48h1Q470,81.5,470,115Z" transform="translate(98.09 8.09)" fill="#00003e"/>
    <path d="M55,49c0-.34,0-.67,0-1l282,0a1.18,1.18,0,0,1-.57,1.62c-2,1.06-4.18.93-6.32.92-10.78,0-21.56.15-32.34-.06-77.71.3-155.43.06-233.14.1C61.37,50.61,57.91,51.35,55,49Z" transform="translate(98.09 8.09)" fill="#00004a"/>
    <path d="M337,49V48l132,0c0,.33,0,.67,0,1-1.61,1.47-3.62,1.56-5.63,1.56-8.82,0-17.64.16-26.45,0-30.44.21-60.88.08-91.32.07C342.67,50.6,339.53,51.27,337,49Z" transform="translate(98.09 8.09)" fill="#004"/>
    <path d="M337,49H437c-.05,3.66-3.18,3.91-5.52,4.69C420,57.54,408.25,60.82,396.59,64.2c-17.75,5.13-35.34,10.77-53.07,16-18.68,5.46-37.3,11.15-55.93,16.8-16.87,5.12-33.8,10.08-50.66,15.26q-34.34,10.56-68.82,20.62c-17.56,5.13-34.93,10.9-52.5,16-17.24,5-34.39,10.41-51.66,15.34-2.86.82-5.53,3.44-8.94,1.8V125c1.15-2.47,3.26-3.56,5.76-4.32,30.84-9.43,61.75-18.64,92.62-28,31.5-9.54,63.06-18.9,94.52-28.58,15.57-4.8,31.25-9.19,46.86-13.85A8.75,8.75,0,0,0,298,49Z" transform="translate(98.09 8.09)" fill="#090053"/>
    <path d="M55,166c17.54-5.45,35-11,52.6-16.3,17.1-5.19,34.29-10.08,51.39-15.23s34.12-10.49,51.21-15.64c17.26-5.19,34.59-10.16,51.84-15.38,18.51-5.61,36.93-11.55,55.46-17.1,32.34-9.67,64.74-19.13,97.09-28.72,5.87-1.74,11.68-3.68,17.51-5.53C434,51.5,436,51,437,49h32q0,10.5,0,21c-.92,1.86-2.73,2.3-4.49,2.82-25.85,7.63-51.63,15.46-77.41,23.28q-37,11.24-74.06,22.35c-26.46,7.88-52.81,16.16-79.37,23.72-4.67,1.33-9,3.32-13.62,4.86-18.74-3.2-37.65-3.05-56.52-2.48-9.25.28-18.53.69-27.77,1.16a4.42,4.42,0,0,0-1.87,1.52c-1.48,4.75.57,9.83-1.32,14.55-1.83,2-4.45,2.14-6.79,2.8-19.45,5.55-38.66,11.95-58.2,17.18-4.3,1.15-8,4.08-12.57,4.24q0-5,0-10T55,166Z" transform="translate(98.09 8.09)" fill="#090050"/>
    <path d="M298,49c-3.16,4.06-8.16,4.36-12.46,5.51-13.75,3.71-27.3,8-40.91,12.15q-39.45,12-78.9,23.93-35.14,10.62-70.33,21.15C83.84,115.2,72.28,118.66,60.68,122c-2.17.62-3.82,1.93-5.67,3V49Z" transform="translate(98.09 8.09)" fill="#090058"/>
    <path d="M55,324h-.83q-.16-25.51-.32-51,.16-11.49.32-23H55c2,2,1.57,4.62,1.61,7.07.17,10.62-.13,21.24-.06,31.87.19,9.65.07,19.31,0,29C56.57,320.05,56.73,322.29,55,324Z" transform="translate(98.09 8.09)" fill="#00002b"/>
    <path d="M55,289l0-39,0-2a4.54,4.54,0,0,0,1-2.26c.46-5.65,4.32-7.75,9.14-9,13.78-3.7,27.37-8,41-12.21,6.34-1.94,12.75-3.67,19.06-5.74,2.59-.85,5.48-2,7.66,1a295.8,295.8,0,0,1,0,39.16c-.95,2.1-3,2.44-4.91,3-12.23,3.72-24.46,7.45-36.71,11.09q-13.38,4-26.74,8c-3.68,1.11-6.95,2.33-7.71,6.7A1.47,1.47,0,0,1,55,289Z" transform="translate(98.09 8.09)" fill="#080049"/>
    <path d="M132,219c-6.8-.19-12.82,3-19.09,4.82-9.62,2.78-19.18,5.84-28.81,8.65-6.79,2-13.54,4.12-20.33,6.11-3.15.92-5.92,1.94-6.19,6A4.08,4.08,0,0,1,55,248V208c1.68-3.12,4.85-3.91,7.83-4.82C80,198,97.1,192.63,114.36,187.77c4.31-1.22,8.51-2.82,12.82-4,2-.58,4.26-1.4,5.73,1.17,1,10.33.35,20.68.38,31A3.9,3.9,0,0,1,132,219Z" transform="translate(98.09 8.09)" fill="#08004b"/>
    <path d="M132,184c-10.79,3.09-21.6,6.09-32.36,9.28-11.54,3.43-23,7.07-34.55,10.54A56.18,56.18,0,0,0,55,208V186c3.76-2.89,8.21-4.35,12.62-5.68,19.65-5.89,39.35-11.58,59-17.38A14,14,0,0,1,132,162,36.85,36.85,0,0,1,132,184Z" transform="translate(98.09 8.09)" fill="#09004f"/>
    <path d="M469,298v16c-11.93,3.47-23.87,6.88-35.77,10.43-20.81,6.2-41.58,12.51-62.39,18.73-28,8.36-55.94,16.63-83.89,25-16.52,5-33,10.16-49.5,15.11-23.66,7.09-47.39,14-71,21.1-13.32,4-26.49,8.56-39.83,12.54-16.51,4.93-33.17,9.37-49.67,14.31C69.5,433.46,62.31,436.39,55,439V418c1.64-3.74,4.94-5.19,8.55-6.25C93.46,403,123.24,393.9,153,384.82c30.11-9.18,60.28-18.15,90.46-27.11,16.89-5,33.64-10.53,50.78-15.21-2.49-1.37-5.21-2.15-7.43-3.81-.94-.71-3.27-1.42-.95-3.25a5.3,5.3,0,0,1,3.83.45,159.11,159.11,0,0,0,23.35,8,2.54,2.54,0,0,1,2.15,1.79c-.23.95-1.31.53-1.72,1,1.59.08,2.71-1.27,4.25-1.62,8.08.22,16.13,1.07,24.24-.26a119.13,119.13,0,0,0,15-3.3,6.74,6.74,0,0,1,2.27-.31c5.88-.24,10.18-3.59,14.28-7.33a5.7,5.7,0,0,1,1.18-.77c3-1.15,4.62-4,7.3-5.54,2.91-1.93,5.89-3.73,8.05-6.58a7.9,7.9,0,0,1,4.12-2.69c20.61-6.31,41.32-12.33,62-18.51,2.38-.71,4.71-1.62,7.14-2.15C465.25,297.14,467.22,296.43,469,298Z" transform="translate(98.09 8.09)" fill="#070039"/>
    <path d="M286.36,335.82c1.2,3.43,4.8,3.35,7.29,4.88,1.47.89,3.55.77,4.58,2.6-15.93,3.33-31.08,9-46.53,13.62-21.43,6.45-42.94,12.65-64.38,19.06-18.1,5.42-36.14,11-54.24,16.47Q98.6,402.8,64,412.92c-3.49,1-6.22,3-9,5.07q0-10.5,0-21c2.11-5,5.85-7.53,11.08-9.08,28.1-8.31,56.12-16.89,84.16-25.41,32.19-9.78,64.48-19.2,96.69-28.92,7-2.12,14-4.18,21.06-6.26,4.45-1.32,9.16-2.08,12.11-6.33a2.5,2.5,0,0,1,3.07-1c2.3,4,.55,8.43,1.31,12.59a3.38,3.38,0,0,0,.67,1.12,8.08,8.08,0,0,1,.93.92A1.8,1.8,0,0,1,286.36,335.82Z" transform="translate(98.09 8.09)" fill="#07003b"/>
    <path d="M283,320c-5.8,8.73-15.91,8.61-24.41,11.52-11.7,4-23.72,7.05-35.57,10.62q-33.56,10.13-67.06,20.38c-14.71,4.47-29.41,9-44.14,13.39-16,4.77-32,9.61-48.15,14-4.27,1.16-5.12,5.55-8.64,7.09l0-19c0-.34,0-.68,0-1a10.14,10.14,0,0,1,5.12-3.78c16.2-4.84,32.51-9.35,48.61-14.52,12-3.84,24.32-6.55,35.88-11.68,9.69-1,19.42.05,29.1-.61a4.39,4.39,0,0,0,1.3-.73c.34-.34.7-.68,1-1,1.28-2.18.05-5,1.76-7.07,7.36-3.6,15.4-5.09,23.16-7.39C225.5,322.93,249.81,315,274.4,308a12.22,12.22,0,0,0,6.28-3.83c.83-1,1.89-2.18,3.13-.3C284.33,309.26,285.6,314.73,283,320Z" transform="translate(98.09 8.09)" fill="#08003c"/>
    <path d="M55,289c.63-6.57,5.34-8.38,10.83-9.9,14.33-4,28.59-8.2,42.83-12.51,7.74-2.34,15.24-5.48,23.32-6.58l.66.71a3.74,3.74,0,0,1,.5,1.4c.3,16.95.66,33.91-.17,50.85-3.9,4.14-9.52,4.38-14.44,5.85-17.67,5.28-35.24,10.91-53,15.92-3.15.88-5.9,2.06-6.84,5.73-.41,1.57-1.58,3-3.7,2.53q0-9.5,0-19Q55,306.5,55,289Z" transform="translate(98.09 8.09)" fill="#080043"/>
    <path d="M55,343c.65-.5,1.79-.93,1.88-1.52,1.46-9.35,9.94-8.25,15.88-10.28,12.46-4.26,25.15-7.87,37.85-11.4,7.11-2,13.91-5.13,21.37-5.79,1.69,1.56,1.36,3.64,1.38,5.59.07,6.3,0,12.59,0,18.89,0,1.79-.38,3.67.76,5.3a4,4,0,0,0,1.55.7c11.12.29,22.23,0,33.34.13,2.14,0,4.34-.3,6.35.8l.65.67c0,.31-.06.62-.08.93-9.22,1.1-18.47.2-27.7.46-3.08.09-6.17,0-9.24.14,1.67-.13,3.32-.43,4.95.39-2.21,4.08-6.76,3.21-10.15,4.34-13.95,4.61-28.23,8.19-42.16,12.86-6.91,2.31-14.13,3.51-20.87,6.33-5.14,2.16-10.9,2.59-15.8,5.47Q55,360,55,343Z" transform="translate(98.09 8.09)" fill="#08003e"/>
    <path d="M469,298c-7.32.57-14,3.57-20.95,5.55-17.8,5.07-35.51,10.41-53.24,15.7-1.23.37-2.8,1-3.36,2-2.17,3.88-6.07,5.47-9.45,7.77a3,3,0,0,1-.79-2.78c1.92-5.41,5.31-10.22,6.54-15.9a11.46,11.46,0,0,0,.71-4.64,25,25,0,0,0,.21-3.57c0-2.6,0-5.2,0-7.81a7.65,7.65,0,0,1,.71-3.19,2.78,2.78,0,0,1,1.9-1.38c2,5.79,6,4,10,2.75,18-5.72,36.22-11,54.31-16.49,4.27-1.3,8.52-4,13.36-2q0,10,0,20C469,295.34,469,296.67,469,298Z" transform="translate(98.09 8.09)" fill="#070039"/>
    <path d="M469,199q0,17,0,34c-4,2.56-8.59,3.54-13,4.77-18.1,5-35.87,11-53.85,16.38-6.52,1.94-13.2,3.35-19.58,5.78-1.38.53-3.19.63-3.49,2.39-.75,4.35-3.22,2.55-5.48,1.71a6.09,6.09,0,0,1-1.75-1.27,4.51,4.51,0,0,0-4.58-1.89c-12.55-5.83-25.92-9.79-37.89-16.92a10.37,10.37,0,0,1-1.85-3.14c-.4-3.14-.77-6.28-1.23-9.42,1.76-6.84,7.22-8.67,13.24-9.72,3,0,6-.09,9.06,0,3.4.6,6.79,1.31,10.15,2.09,7,2.25,14.1,4.49,20.64,8,.55.3,1.06.67,1.58,1,.82.34,1.35.07,1.62-.79.47-2.79-.49-5.76,1.18-8.36,6.26-4.07,13.62-5.12,20.54-7.26,19.32-6,38.81-11.41,58.11-17.45,2.18-.68,4.42-1.77,6.6,0Z" transform="translate(98.09 8.09)" fill="#080041"/>
    <path d="M373.2,263c1.57-.16,2.92.41,5,2.55-1.72-4.6-.77-5.8,2.95-6.77,12.75-3.36,25.29-7.48,37.91-11.32q23-7,46-14A23.89,23.89,0,0,1,469,233q0,20.5,0,41c-7.94,1-15.33,4-22.94,6.22-13.8,4-27.48,8.44-41.2,12.69-4.21,1.31-8.8,1.43-12.25,4.73-1.36-2.79.49-5.58-1.59-7.64a5.15,5.15,0,0,1-1.5-4.39c.09-1.86-.79,0-1-.36-1.87-1-2-2.77-2.21-4.56-.78-1,2-3.22-1.17-3.45-3.22-3.72-7.09-6.81-10.24-10.58C374,265.64,372.27,264.88,373.2,263Z" transform="translate(98.09 8.09)" fill="#08003d"/>
    <path d="M469,127q0,15.5,0,31a4.6,4.6,0,0,1-3.12,2.23c-29.06,8.43-58,17.19-87,26-5.4,1.64-10.93,2.82-16.12,5.16-3.43,1.54-6.9,0-10.3-.48A81.24,81.24,0,0,0,319,193.57c-1,.3-2.41.34-2.67,1.86-1.43,2.39-4.25,2.25-6.34,3.45-5.44,3.11-10.75,6.37-15.07,11a11.83,11.83,0,0,1-5.29,3.48,42.49,42.49,0,0,0-15,3c-2.5,1-5.7,1-5.62-2.51.22-9-1.86-17.67-2.63-26.52,1-2.05,3-2.43,4.91-3,33.43-10.66,67.22-20.13,100.75-30.42,29.26-9,58.55-17.84,87.94-26.34C462.85,126.65,465.86,124.8,469,127Z" transform="translate(98.09 8.09)" fill="#080048"/>
    <path d="M469,127c-7.54.54-14.49,3.47-21.64,5.47-13.25,3.72-26.33,8.07-39.51,12.08-25.38,7.72-50.7,15.65-76.19,23Q299.21,176.88,267,187a.93.93,0,0,1-1.2.13c-2.39-3.1-1.86-7.85-5.76-10.1a2.28,2.28,0,0,1-.42-2.67c1.3-6.22,6.24-7.83,11.46-9.35,27.49-8,54.81-16.55,82.3-24.57,21.08-6.16,42-13,63-19.18C432.22,116.59,448,112,463.75,107c1.69-.54,3.5-1.32,5.24,0q0,4,0,8Z" transform="translate(98.09 8.09)" fill="#08004a"/>
    <path d="M315.74,195c-.44-.4-2.78.21-1.25-1,2-1.54,4.82-2.22,7.39-2.76,12.09-2.57,24.24-3.48,36.42-.6a5,5,0,0,0,3.41,0c11.93-5.59,24.88-8.05,37.35-11.94,21-6.56,42.24-12.45,63.18-19.25,2.21-.72,4.72.07,6.75-1.4v41c-5.56.2-10.56,2.63-15.75,4.15C430.12,209.94,407.08,217,384,224c-1.91-1.87-1.29-4.29-1.38-6.53-.19-4.75.27-9.52-.29-14.25-.11-.22-.22-.45-.34-.66s-.33-.35-.5-.52c-1.91-1.84-4.51-2.18-6.86-3-1.49-.56-3.08-1-4.18-2.23-1.14-1.87-2.59-2.66-4.65-1.3a4.63,4.63,0,0,1-1.39.07c-3.54-.9-7.21-1.21-10.63-2.59a26.33,26.33,0,0,0-4.38-1.13,50.82,50.82,0,0,0-14.93,0c-1.72.48-3.58.34-5.25,1.13-2.59,1.15-5.44,1.32-8.14,2.07A13.57,13.57,0,0,1,315.74,195Z" transform="translate(98.09 8.09)" fill="#080044"/>
    <path d="M221,146c5.23-4.28,11.9-4.86,18-6.76,20.54-6.4,41.17-12.48,61.78-18.63,14.27-4.26,28.58-8.38,42.84-12.65,17.6-5.28,35.17-10.67,52.75-16Q432.67,81,469,70q0,11.5,0,23c-5.09,2.5-10.58,4-16,5.49-27.19,7.75-54.13,16.36-81.23,24.42q-58.61,17.4-117,35.32c-3.23,1-6.36,3.39-9.93,1a12.29,12.29,0,0,1-2-1,8,8,0,0,1-1.14-.85c-1.28-1.64-2.78-2.87-5-2.81a5.27,5.27,0,0,1-2.44-1.35c-2.82-2.44-6.43-3.14-9.73-4.54C223.12,148.06,220.89,148.5,221,146Z" transform="translate(98.09 8.09)" fill="#08004e"/>
    <path d="M244.21,158c4.17,2.44,7.79-.37,11.45-1.45,26.56-7.81,53.11-15.69,79.58-23.82q28.49-8.76,57.11-17.08c23.06-6.73,45.93-14.12,68.87-21.26,2.54-.79,5-1.7,7.77-1.39v14c-12,3.63-24.05,7.3-36.1,10.89-23.78,7.08-47.59,14-71.36,21.19-21.07,6.33-42.09,12.84-63.13,19.25-10.77,3.28-21.56,6.51-32.33,9.79-2.19.66-4.52,1-3.2,4.51,1,2.68-2.42,1.32-3,2.71-2.73-.42-3.39-2.7-4.3-4.76-.1-1.49-.48-2.78-2.22-3.11-2.92-1.23-4.52-4.05-7-5.83C245.4,160.55,243.24,160.18,244.21,158Z" transform="translate(98.09 8.09)" fill="#08004c"/>
    <path d="M221,146c3.51,1.33,7,2.68,10.52,4,1.53.57,3.29.86,3.48,3-4.08,1.5-7.22-2.12-11.05-2-3.28-1.28-6.52-2.76-10.17-2.63a12.7,12.7,0,0,1-4.58-.67c-1.74-1.33-3.76-1.45-5.84-1.33a32.17,32.17,0,0,1-6.72-.41,100.39,100.39,0,0,0-25,.19c-8.19.56-16.38.12-24.57.28-4.36-.56-9,1.25-13.08-1.44a3.11,3.11,0,0,1,2.69-1c20.58-.47,41.16-1.69,61.74-.88C206,143.41,213.48,145,221,146Z" transform="translate(98.09 8.09)" fill="#08004c"/>
    <path d="M132,184V162c.54-5.32-1.1-10.77,1-16l.67.72c1.13,2.36.74,4.89.74,7.35q.06,41.79,0,83.57c-.47,7.27.9,14.61-.8,21.84A1.17,1.17,0,0,1,132,260h0q0-20.5,0-41Z" transform="translate(98.09 8.09)" fill="#00003e"/>
    <path d="M134,145l13.32.2a1.5,1.5,0,0,1-.78,1.45c-4,1.21-8,.84-12.09.33a7.15,7.15,0,0,1-1.47-1h0Z" transform="translate(98.09 8.09)" fill="#090053"/>
    <path d="M387,280l1.89,5.15a7.16,7.16,0,0,1,1.18,5.83c-.05,1-.1,2-.16,3a18.24,18.24,0,0,0,0,9c.13,1.16.46,2.37-.91,3.08-.71,1.27-.08,2.6-.2,3.89-.74,6.07-4.19,11-6.84,16.26-1.68,3.21-4.49,5.39-7.09,7.76a1.91,1.91,0,0,0-.9.29c-3.23,3.41-7.42,5.25-11.6,7.11-1.35.42-3.11-1.35-4.13.79-11.74,4.73-24,5.26-36.4,4.38-1.64-.12-3.28-.28-4.91-.42-.65.4-1.27.5-1.78-.22a167,167,0,0,1-28.83-10.08q-.17-.42-.36-.81a8.24,8.24,0,0,1-1.34-4.68q-.12-11.37,0-22.73a6.53,6.53,0,0,1,1.21-4.19c3.84-2.48,6.33.4,9.07,2.29.67,2.9,2.95,1.54,4.65,1.75,2.21.19,4.22,1.13,6.36,1.59,7.68,2,15.32,4.14,23.4,3.59,4.53-.3,8.85-1.1,12.38-4.26,3.77-3.24,3.26-7.35,2.36-11.55-.37-1.54-1.27-2.89-1.62-4.44-.48-3.2-2.69-4.83-5.43-6a5.38,5.38,0,0,1-1.12-.84,6.73,6.73,0,0,0-.69-.72c-4.76-3.85-4.5-4.18,1.2-6.89,8.85-4.2,17.86-8.06,26.55-12.6,2.3-1.2,3.15-4,5.76-4.59,1.38-.41,2.3.44,3.26,1.18l1.2,1.06c3.47,5.43,9.58,8.56,12.56,14.4C386.76,278,387.5,278.7,387,280Z" transform="translate(98.09 8.09)" fill="#80bafa"/>
    <path d="M362,340.81c4.48-1.32,8-4.46,12-6.55a17.93,17.93,0,0,1-14,7.81A1.53,1.53,0,0,1,362,340.81Z" transform="translate(98.09 8.09)" fill="#080a2f"/>
    <path d="M374.91,334c1.13-3.72,4.48-5.41,7.09-7.76V329C379.27,330.13,378.33,333.82,374.91,334Z" transform="translate(98.09 8.09)" fill="#070037"/>
    <path d="M362,340.81l-2,1.26-1.72.09C358.74,339.63,360.16,339.68,362,340.81Z" transform="translate(98.09 8.09)" fill="#85c1f2"/>
    <path d="M315.19,345.9l1.78.22c-1.25,1.21-2.63,1.11-4.72.22Z" transform="translate(98.09 8.09)" fill="#000023"/>
    <path d="M287,303c-1.83,3.46-.89,7.18-1,10.79-.15,7.08-.05,14.17-.05,21.25a1.13,1.13,0,0,1-.87-.21c-.32-.38-.79-.71-.81-1.22-.31-10.44-.92-20.88.33-31.29a2.06,2.06,0,0,1,1.67-.67A.88.88,0,0,1,287,303Z" transform="translate(98.09 8.09)" fill="#94d7fd"/>
    <path d="M286,302c-1.19.52-1,1.6-1,2.55q0,15.12.13,30.24a1.64,1.64,0,0,1-.72.16c-1.69-1.24-.83-3-.85-4.55-.14-9.23.06-18.47-.13-27.71,0-1.05.4-1.92,1.56-2C285.7,300.69,286,301.28,286,302Z" transform="translate(98.09 8.09)" fill="#4d6ca8"/>
    <path d="M283.86,302q.27,16.47.55,32.93c-2.87-2.67-.89-6.09-1.36-9.13A40.45,40.45,0,0,1,283,320V303C282.71,302.17,283.07,301.9,283.86,302Z" transform="translate(98.09 8.09)" fill="#000021"/>
    <path d="M283.86,302c-.29.32-.58.65-.88,1-3.13,6.92-10.2,6.59-15.94,8.39-22.13,6.94-44.34,13.61-66.55,20.3-7.45,2.24-15,4.21-22.49,6.31a4.41,4.41,0,0,1-1.33-3.6c.05-8.42-.51-16.85.3-25.25,1-2.56,3.49-2.9,5.66-3.55,24.63-7.47,49.35-14.65,74-22.18,12.55-3.84,25.06-7.78,37.68-11.37,2.17-.62,3.38-1.21,1.48-3.39,1.29-3.58,3.39-1.52,5-.54a96.13,96.13,0,0,0,15.49,7.66,42.2,42.2,0,0,0,4.05,1.55c5.8,2.41,12,4.09,16.73,8.56l.09,0c2.78,1.26,5.16,2.91,6.1,6,.55,1.36,1.1,2.71,1.66,4.06,0,4.35.8,8.81-1.88,12.75-2.93,4-7.38,4.71-11.79,5.13-9.05.86-17.76-.85-26.22-4-6.19-2.4-12.11-5.45-18.37-7.71l-.34,0L286,302C285.26,301.05,284.56,301.15,283.86,302Z" transform="translate(98.09 8.09)" fill="#08003f"/>
    <path d="M178,308v30c-.44,2.65,1,5.54-1,8-1.85-2.11-1.38-4.69-1.39-7.14-.09-18.58.08-37.15-.11-55.73,2.63-4.43,7-1.74,10.48-2.54,2.6,0,5.21-.08,7.81.08,1.72.1,3.71-.14,4.4,2.15-2.95,2.74-6.61,1.56-10,1.63-8.62.18-8.62.07-8.77,8.77,0,.66,0,1.33.06,2C179.18,299.5,180.67,304,178,308Z" transform="translate(98.09 8.09)" fill="#010035"/>
    <path d="M176.15,283c1.41,1.57.82,3.49.83,5.25q.06,28.88,0,57.76a7.3,7.3,0,0,0-.93.08l-.17-.18c-1.37-1.49-1.29-3.35-1.29-5.17q-.06-26.1,0-52.22C174.62,286.57,174.34,284.47,176.15,283Z" transform="translate(98.09 8.09)" fill="#080042"/>
    <path d="M144,348h-8.84v-1H176c-1.47,1.62-3.41.95-5.15,1C161.89,348,152.94,348,144,348Z" transform="translate(98.09 8.09)" fill="#000030"/>
    <path d="M132,260h1c1.79,1.72,1.41,4,1.41,6.1q.06,36.87,0,73.73c0,2.14.23,4.36-1.38,6.16-1.67-1.46-1-3.41-1-5.15-.07-9,0-17.9,0-26.85Q132,287,132,260Z" transform="translate(98.09 8.09)" fill="#003"/>
    <path d="M176.15,283q-.12,31.45-.25,62.91l-41.77,0c-.82-.8-.61-1.84-.61-2.81,0-16.22-.12-32.44.08-48.66a1.09,1.09,0,0,1,1.6-.46c1.62,2,1.17,4.39,1.18,6.66.06,12.06,0,24.11,0,36.16,0,2.1-.5,4.36,1.46,6,1.68,1.07,3.56.75,5.36.76q11.73,0,23.45,0c6.41,0,6.88-.46,6.89-6.71,0-16.29,0-32.59,0-48.88,0-2.3-.38-4.68.89-6.83,3.5-2.45,7.23-1.75,11-.77.68.43.73.92.13,1.47C182.44,282.12,179,280.42,176.15,283Z" transform="translate(98.09 8.09)" fill="#81b5eb"/>
    <path d="M134.17,294l0,51.94L133,346q0-43,0-86,0-11,0-22a1.21,1.21,0,0,1,1.64.59,2.68,2.68,0,0,1,.38.92c.69,17.42.43,34.84.14,52.26A3.9,3.9,0,0,1,134.17,294Z" transform="translate(98.09 8.09)" fill="#111250"/>
    <path d="M390.11,291c-.39-1.94-.79-3.89-1.18-5.83.31-.3.07-2.17,1-.61A8.56,8.56,0,0,1,391,290Z" transform="translate(98.09 8.09)" fill="#05062e"/>
    <path d="M390,303a9.35,9.35,0,0,1,0-9A23.89,23.89,0,0,1,390,303Z" transform="translate(98.09 8.09)" fill="#8fd0fe"/>
    <path d="M388.84,310c-1-1.35-1.62-2.68.2-3.89C390,307.41,390.31,308.73,388.84,310Z" transform="translate(98.09 8.09)" fill="#90d2fe"/>
    <path d="M337,285.89l-17.36-7.69c-.72-1.8-2.3-1.29-3.66-1.34-5.54-1.72-10.54-4.54-15.51-7.45-1.36-.79-2.49-2.28-4.4-1.72a2.68,2.68,0,0,1-.95-1c-.3-1.74-2.31-3.17-.92-5.21,7.34-3.91,15.08-7,22.49-10.74,4.52-2.29,9.31-4.11,13.07-7.7A60.8,60.8,0,0,0,342.06,249c8.86,3.16,17.25,7.4,25.9,11,.44.29,1.06.42,1,1.14-5.59,7.95-15.09,9.4-22.92,13.55-4.31,2.28-8.4,5.2-13.95,5.78C333.71,283.11,337.09,283,337,285.89Z" transform="translate(98.09 8.09)" fill="#84bcfa"/>
    <path d="M375,198.11c2.71,0,4.85,1.33,6.87,2.94,1.07,9.3.41,18.63.43,27.95,0,1.71-.45,3.33-2.31,4.06L359,225c-7.26-3.47-14.93-3.85-22.62-2.32a13.46,13.46,0,0,0-10.32,8.36,3.92,3.92,0,0,1-.55,1.41,9.87,9.87,0,0,1-4.09,3.58c-11.33,4.79-21.84,11.32-33.37,15.69a6.06,6.06,0,0,1-3.37.72c-1.79-.81-1.71-2.41-1.68-4,.37-1.82-.2-3.63-.15-5.45a3.92,3.92,0,0,1,2.9-4.11c11.73-3.85,22.42-10,33.55-15.19,14.91-6.92,29.82-13.86,44.6-21.07,1.94-.95,4.05-1.7,5.59-3.23S373,197.9,375,198.11Z" transform="translate(98.09 8.09)" fill="#87bdfa"/>
    <path d="M284.65,252.11c10.45-5,20.83-10.16,31.4-14.88A44,44,0,0,0,325,232c1.51,1.26,1,3.24,1.7,4.77.23.34.45.69.66,1,.63.83.22,1.93.73,2.8L329.8,243c-1,3-3.18,4.49-6.1,5.76-8.16,3.54-16.12,7.56-24.15,11.41-1.77.86-3.45,2-5.56,1.79-2.91.54-4.15-2.95-6.89-2.84C285.45,257.1,284,255,284.65,252.11Z" transform="translate(98.09 8.09)" fill="#86bdfa"/>
    <path d="M325,231c6.87-10.21,22.46-13.66,33.49-7.38.32.18.34.89.5,1.36a40.44,40.44,0,0,1-10-2.08,23.39,23.39,0,0,0-10,0c-5.28,1.35-10.32,3-12,9.12l-.46.31a1.15,1.15,0,0,1-1-.4A2.77,2.77,0,0,0,325,231Z" transform="translate(98.09 8.09)" fill="#89bffb"/>
    <path d="M380,233.06c2-3.91.91-8.09,1-12.14.1-6.22-.18-12.45-.31-18.68,0-.86.54-1.07,1.22-1.19l.22-.1c1.37,1.94.89,4.17.91,6.29,0,7.48.09,15,0,22.43,0,1.57.88,3.88-1.94,4.34Z" transform="translate(98.09 8.09)" fill="#97d8fd"/>
    <path d="M381,234c1.85-1.16.93-3,.95-4.48.11-9.52.09-19.05.12-28.58a3.89,3.89,0,0,1,.9.05,243,243,0,0,1,.13,32.94C382.43,234.78,381.73,235,381,234Z" transform="translate(98.09 8.09)" fill="#425896"/>
    <path d="M383.1,233.94Q383,217.47,383,201c2.2,4,.66,8.39,1,12.58.26,3.45.06,6.94.06,10.42C383.58,227.3,384.93,230.77,383.1,233.94Z" transform="translate(98.09 8.09)" fill="#000028"/>
    <path d="M328.08,240.6l-1.18-2.52a5.88,5.88,0,0,1,0-6.18l.19.13C328.26,234.78,329,237.59,328.08,240.6Z" transform="translate(98.09 8.09)" fill="#070935"/>
    <path d="M339,222.91a12,12,0,0,1,10,0Z" transform="translate(98.09 8.09)" fill="#87bdfa"/>
    <path d="M369,261.16,368,260c2.07-.88,3.56-.54,4,1.92Z" transform="translate(98.09 8.09)" fill="#08003d"/>
    <path d="M387,280l-1.28-2.6c.37-.63.83-.93,1.29-.15S388.38,279.09,387,280Z" transform="translate(98.09 8.09)" fill="#04042a"/>
    <path d="M375,198.11c-3.1.17-4.77,2.89-7.33,4.08q-20.08,9.33-40.09,18.81c-11.51,5.44-23,11-34.48,16.46-1.05.5-2,1.37-3.13,1.5-5.09.65-7.28,3-5.39,8.21.07.18-.65.65-1,1-2-.39-2.38-1.82-2.25-3.56.59-2.77.29-5.59.35-8.38,0-1.47,0-2.94.12-4.41a30.74,30.74,0,0,1,3.49-11,63.77,63.77,0,0,1,5-8.69c3.66-1.42,5-5.29,8.21-7.46A89.62,89.62,0,0,1,315.74,195a8.57,8.57,0,0,1,5.29-.83c6.25-.64,12.27-2.49,18.65-2.69,8.75-.27,17,1.83,25.44,3.49a1,1,0,0,0,.88-.25c2-.86,3.51.22,5,1.4Z" transform="translate(98.09 8.09)" fill="#89bffb"/>
    <path d="M290.31,212.09c-.17,3.59-2.88,5.93-4.31,8.9-3.65,4.14-4,9.22-4,14.36-.05,13.09.87,10.89-10.79,14-2.88.76-5.66,1.83-8.52,2.64-4.81,1.37-5.42.78-4.67-4.34a11.3,11.3,0,0,1,.1-1.42c.53-3.19,3.18-5.42,3.9-8.53a10.62,10.62,0,0,1,.5-1.21,9.73,9.73,0,0,0,1.33-4.89,8.64,8.64,0,0,1,.51-2.61,10.7,10.7,0,0,0,1.51-5.1,11,11,0,0,1,.4-2.13c.4-1.19.65-2.43,1-3.64.52-5.62.8-11.22-.23-16.81-.93-4-2.32-7.92-2.18-12.12A3.25,3.25,0,0,1,266,187h1c2,8.5,3.72,17,3,25.84-.23,2.82,1,3.57,3.61,2.4A33.53,33.53,0,0,1,290.31,212.09Z" transform="translate(98.09 8.09)" fill="#080045"/>
    <path d="M256.21,170l3.62,5.38c.05.8.16,1.56,1,1.92a1.32,1.32,0,0,1,.21,1.91,17.47,17.47,0,0,0-7,2.09,264.79,264.79,0,0,1-24.87,11.45,11.63,11.63,0,0,0-4.87,3.69c-4-.9-4.09-5.27-6.65-7.44-.94-1.19-2.1-2.21-2.94-3.49a6.53,6.53,0,0,1-.46-1.13c-.36-1.38-1.61-1.6-2.69-2a6.57,6.57,0,0,1-1.6-1.23c-3-3.68.1-5,2.62-6.14,6.15-2.84,12.35-5.51,18.38-8.63,4.59-2.38,9.77-3.72,12-9.13l1.23.83c.91,1.08,1.82,2.16,2.72,3.25,2.65,2.5,4.5,5.94,8.33,7A1.54,1.54,0,0,1,256.21,170Z" transform="translate(98.09 8.09)" fill="#95c5fc"/>
    <path d="M261.16,179l-.3-1.69c2.47-1.59,2.16,1.12,2.65,2A16,16,0,0,1,266,187c0,.77-.09,1.53-.14,2.29C262.32,186.74,261.9,182.77,261.16,179Z" transform="translate(98.09 8.09)" fill="#080048"/>
    <path d="M365.12,195c-8.69-1-17.32-2.46-26.15-2.05-5.14.24-10.25.25-15.21,1.73-1,.31-1.95.43-2.73-.48,2.41-1.71,5.46-1,8-2.15,2.66-1,5.63-.21,8.25-1.44,3.4-.1,6.8-.06,10.2,0,2,1.17,4.38.58,6.44,1.45C357.6,193.29,361.7,192.83,365.12,195Z" transform="translate(98.09 8.09)" fill="#90c7fd"/>
    <path d="M348,191.13a40.81,40.81,0,0,0-11,0c-1,.45-2.05.68-3-.22a30.89,30.89,0,0,1,16,0A1.36,1.36,0,0,1,348,191.13Z" transform="translate(98.09 8.09)" fill="#080048"/>
    <path d="M371,196.11l-5-1.4C368.17,192.42,369.25,192.73,371,196.11Z" transform="translate(98.09 8.09)" fill="#080a3b"/>
    <path d="M334,190.89l3,.22c-2.47,1.78-5.29.54-7.92.9Z" transform="translate(98.09 8.09)" fill="#89bffb"/>
    <path d="M348,191.13l2-.26c1.26.57,2.86,0,4,1.13C352,191.75,349.81,192.71,348,191.13Z" transform="translate(98.09 8.09)" fill="#89bffb"/>
    <path d="M243,157.17c.45,5.68-3.89,6.93-7.85,8.7-7.8,3.49-15.5,7.23-23.32,10.68-2.75,1.21-2.47,2.53-.81,4.34-3.48,1.52-5.9-.91-8.61-2.3-2.72-1.87-5.83-2.21-9-2.26-3.65-.05-7.3.06-10.95-.05-1.92-.06-4.72.56-5.26-1.64-.61-2.52,2.33-3.18,4.1-4.23a42.71,42.71,0,0,1,4-2c13-5.94,25.83-12.09,38.7-18.24,4.13-.83,7.2,2.46,11,2.82l2,1c2.22,0,3.61,1.42,5,2.85Z" transform="translate(98.09 8.09)" fill="#99c7fc"/>
    <path d="M242,156.83c-2-.39-3.48-1.64-5-2.85C239.92,152.73,241.27,154.23,242,156.83Z" transform="translate(98.09 8.09)" fill="#08004c"/>
    <path d="M254.9,169a14.7,14.7,0,0,1-8-7.76c3.08,1.06,4.49,4.14,7,5.84C254.74,167.51,255.66,167.85,254.9,169Z" transform="translate(98.09 8.09)" fill="#a1d4f8"/>
    <path d="M254.9,169l-.94-1.92c2.48-.4,3.06.69,2.25,2.87Z" transform="translate(98.09 8.09)" fill="#020238"/>
    <path d="M224,150.16c-4.12,4.72-10.1,6.21-15.42,8.79-10.28,5-20.66,9.78-31,14.65l.23,1.4c5.33,0,10.67-.17,16,.06,3.25.14,6.89-.37,9.2,2.95a2.89,2.89,0,0,1-2,1,7,7,0,0,1-2.28-.25c-1.24-.41-2.53-.64-3.77-1-6.32-.79-12.68.15-19-.54-2.61-1-4.8.23-7.07,1.29-9.15,4.27-18.23,8.68-27.41,12.89-1.9.87-4.16,2.64-6.26.05-1.06-4.46-.71-8.93-.25-13.41.7-2.15,2.59-2.87,4.42-3.68,16.51-7.34,32.55-15.66,49.09-22.94,3.21-1.41,6-3.56,9-5.17a60.23,60.23,0,0,1,8.91,0c2.4,1.21,4.85,2,7.54,1C217.54,147.4,221.08,147.73,224,150.16Z" transform="translate(98.09 8.09)" fill="#9dc9fd"/>
    <path d="M146.65,145.8l.68-.62,24.69-.31a173.28,173.28,0,0,1,25,0l6.59.25q1,.85-.24,1.29c-16.7,1.67-33.45.81-50.18,1C150.9,147.4,148.42,147.94,146.65,145.8Z" transform="translate(98.09 8.09)" fill="#9fcafd"/>
    <path d="M197,144.88H172A73.65,73.65,0,0,1,197,144.88Z" transform="translate(98.09 8.09)" fill="#090053"/>
    <path d="M214,147.16c-2.35,1.28-4.69,1.46-7-.15a.8.8,0,0,1-.34-.71c0-.28.08-.41.15-.41,1.06-.5,1.57.35,2.19.91Z" transform="translate(98.09 8.09)" fill="#a2cff8"/>
    <path d="M209,146.8l-2-.74c-.95.52-1.88.79-2.69-.22l-.74-.71C205.45,145.44,208,143.69,209,146.8Z" transform="translate(98.09 8.09)" fill="#090050"/>
    <path d="M133.83,238H133l0-92h1a6.2,6.2,0,0,1,1,1.69,26.4,26.4,0,0,1,.37,6.93c-.33,23.39,0,46.77,0,70.16C134.76,229.17,136.88,233.9,133.83,238Z" transform="translate(98.09 8.09)" fill="#121258"/>
    <path d="M134.13,147l-.12-1,12.64-.2,57.66,0,2.69.22V147H197c-2.51,1.67-5.36,1.59-8.19,1.59-14.8,0-29.6,0-44.41,0-6.45,0-6.74.34-6.8,6.74,0,5,0,10,0,15,0,2.36-.2,4.66-1.58,6.68q0,7.5,0,15c.8,1.15.95,2.24-.26,3.23a1,1,0,0,1-1.2-1.06c-.06-14.09,0-28.17,0-42.25C134.49,150.28,134.83,148.6,134.13,147Z" transform="translate(98.09 8.09)" fill="#a8d8fe"/>
    <path d="M286.63,302.14c6.59,1.46,12.85,3.71,18.37,7.71l-6-1.67a4.08,4.08,0,0,1-3.66-1.35L287,303A2.73,2.73,0,0,1,286.63,302.14Z" transform="translate(98.09 8.09)" fill="#090b34"/>
    <path d="M343,308.77c1.59-4.1.07-8.67,1.88-12.75C346.44,300.6,347.18,305.05,343,308.77Z" transform="translate(98.09 8.09)" fill="#050630"/>
    <path d="M343.23,292l-6.1-6C340.92,286.16,343,288.1,343.23,292Z" transform="translate(98.09 8.09)" fill="#88c4f3"/>
    <path d="M295.31,306.83l3.66,1.35C297.14,309.37,295.76,309.35,295.31,306.83Z" transform="translate(98.09 8.09)" fill="#86c2f0"/>
    <path d="M296.07,266.71c0,.33,0,.65,0,1l3.45,4.17c-26.5,7.93-53.56,16-80.62,24.15-12.36,3.7-24.71,7.44-37.08,11.13-1.26.38-2.57.58-3.86.86V295c2.51-3.37,6.55-3.81,10.1-4.81,30.33-8.58,60.31-18.36,90.52-27.34a39.16,39.16,0,0,1,10.3-1.4c2.54.77,4,3.07,6.1,4.42A7.16,7.16,0,0,0,296.07,266.71Z" transform="translate(98.09 8.09)" fill="#080042"/>
    <path d="M316,276.86c2.65-1,3.37-.78,3.66,1.34Z" transform="translate(98.09 8.09)" fill="#88c4f3"/>
    <path d="M289.91,262c-17.92,3.54-35.1,9.64-52.51,14.95q-27.32,8.35-54.65,16.64c-1.58.48-3.17.94-4.75,1.41,0-12,0-12,12.12-12H198c7.58-3,15.84-3.64,23.43-6.65,2.15-1,5-.69,6.4-3.19,4.91-4,10.62-6.76,15.45-10.83,3.61-2.6,5.88-6.73,10-8.75,1.74-.27,2.17-1.51,2.24-3,.67-1.61,1.09-3.47,3.35-3.61,2.42,1.66-1.09,2.74-.22,4.64,6.82-1.87,13.74-3.75,20.64-5.68,2.6-.72,1.71-3,1.67-4.61-.21-7.38.24-14.61,4.06-21.2.07-.11.23-.17.35-.25.21.39.43.77.64,1.15q-1.54,5-3.08,10c-.88,1.8-.24,3.71-.44,5.56-.05,2.78.13,5.55-.1,8.33-1,1.59.46,2.29,1.18,3.25.24,1.35,0,2.84,1.09,4l3.46,6.5a2.68,2.68,0,0,1,2.41,2.18A1.82,1.82,0,0,1,289.91,262Z" transform="translate(98.09 8.09)" fill="#080042"/>
    <path d="M222,277c-3.85,2.39-8.28,2.94-12.55,4.05-2.88.76-6.19.2-8.47,3.14-1.14,1.47-2.29,0-3-1.19-4-2.14-8.31-.31-12.4-1.14.24-.23.49-.45.74-.67,2-2.31,4.79-1.27,7.25-1.56,2.41-.06,4.84.27,7.2-.51a22.18,22.18,0,0,1,3.89-.52c3-.69,6-.8,9-1.63,2.75-.24,5.24-2.2,8.17-1.29A.88.88,0,0,1,222,277Z" transform="translate(98.09 8.09)" fill="#080042"/>
    <path d="M222,276.07,214,278c-3.26-.29-6.37,1-9.6,1-8,1.31-16,1.46-24.09,1.52-1.76,0-3.62-.56-5.3.5,0,19.74-.08,39.48.07,59.22,0,3.65-.93,4.92-4.73,4.85-11.44-.23-22.89-.09-34.33-.08a1.11,1.11,0,0,1,.43-1.59c4.33-1.77,8.86-.82,13.3-.95,5.81-.17,11.63-.14,17.44,0,3.82.08,5.3-1.48,5.29-5.3-.06-12.62-.14-25.25,0-37.86.22-3.29.14-6.59.17-9.89,0-3.14-1.2-3.6-4-2.38-9.08,4-17.72,8.88-26.93,12.56-2,.8-4.16,2.53-6.18-.09.35-3.9-1-7.74-.37-11.64a2.81,2.81,0,0,1,1.67-1.73c17.12-6.92,33.46-15.54,50.2-23.3s33.75-15.72,50.43-24c7.14-3.56,14.55-6.55,21.64-10.24,1.94-1,4.26-2.58,6,.48-.09,1,.6,2-.2,2.94a8.08,8.08,0,0,0-1.71,5.18l0-.06c-1.76,2.81-3.94,5.4-4.39,8.86a1.11,1.11,0,0,1,0,1l-2.62,4.1a1.59,1.59,0,0,1-.94,1.66c-5,2.05-7.78,6.55-11.32,10.21-4.59,4.9-10.71,7.51-16.3,10.91C226,275.12,224.28,276.29,222,276.07Z" transform="translate(98.09 8.09)" fill="#89bffb"/>
    <path d="M136,287v13c2.79,4.48,1.15,9.41,1.47,14.15.28,8.08.1,16.17.1,24.26,0,2-.11,4-1.56,5.59v1c-1.66-1.47-1-3.43-1-5.16-.06-15.28,0-30.57,0-45.85-1-2.74-.44-5.58-.44-8.37,0-16.27-.08-32.53,0-48.8a1.07,1.07,0,0,1,1.29-1.05,4.38,4.38,0,0,1,1.53,3.44c.35,7.24.21,14.48.1,21.73.13,6.89.19,13.79,0,20.68C137.45,283.55,137.42,285.46,136,287Z" transform="translate(98.09 8.09)" fill="#97cffe"/>
    <path d="M135,236l0,58h-.82q-.16-28-.34-56,.16-6.5.34-13a1.11,1.11,0,0,1,1.49.58C136.54,229.11,137.17,232.64,135,236Z" transform="translate(98.09 8.09)" fill="#86b5ee"/>
    <path d="M175,281c1.11-1.42,2.69-1,4.12-1A193.26,193.26,0,0,0,205,278a1.22,1.22,0,0,1,0,1.88l-3.51.21c-2.41,1-5.06-.22-7.47.81l-7.68.29Z" transform="translate(98.09 8.09)" fill="#8bc0fb"/>
    <path d="M289.92,261.33l-1.81-2.72c3.16-1,3.58,2.85,5.88,3.39.86,1.5,2.3,2.74,2.08,4.71a1.6,1.6,0,0,1-.9.24C293.61,264.89,291.39,263.46,289.92,261.33Z" transform="translate(98.09 8.09)" fill="#91cefa"/>
    <path d="M325,231l1.06,1.11a10.68,10.68,0,0,1,.14,5.8c-2.22-1.61-.8-4-1.22-5.94C325,231.68,325,231.35,325,231Z" transform="translate(98.09 8.09)" fill="#99d7fe"/>
    <path d="M326.21,237.94c0-1.94-.09-3.87-.14-5.8q.39-.13.78-.24,0,3.09,0,6.18A4.22,4.22,0,0,0,326.21,237.94Z" transform="translate(98.09 8.09)" fill="#4a65a1"/>
    <path d="M282.38,244.91c-.09-2.84-.17-5.67-.25-8.51a1.15,1.15,0,0,1,.67-.77C282.87,238.73,283.63,241.87,282.38,244.91Z" transform="translate(98.09 8.09)" fill="#86bdfa"/>
    <path d="M282.8,235.63l-.67.77c.07-1.82-.79-3.78.79-5.38Z" transform="translate(98.09 8.09)" fill="#080045"/>
    <path d="M261.16,179c2.49,3,2.84,7,4.7,10.33q1.14,5.88,2.29,11.75a2.6,2.6,0,0,1,.16,2.08c-.43,1.07-.22,2.47-1.53,3.11-.16,0-.4,0-.47-.13-3.29-4.7-3.29-4.71-9-1.83-7.39,3.72-14.86,7.27-22.45,10.56-3.64,1.58-6,3.53-6.83,7.61-.34,1.78-.78,5.34-4.35,2.59-.47-2.67,1-5,1.44-7.46a29.84,29.84,0,0,0-.07-12.27c-.43-3.06-2.76-5.82-1.44-9.15.81-2.7,3.08-3.67,5.4-4.63a264.05,264.05,0,0,0,26.45-12.39C257.62,177.94,259.25,178.35,261.16,179Z" transform="translate(98.09 8.09)" fill="#90c3fb"/>
    <path d="M136,287v-5c8.08-4.65,16.66-8.27,25.05-12.29,15.14-7.25,30.37-14.3,45.54-21.48,17.28-8.19,34.5-16.48,51.88-24.45,2.88-1.32,4.06-5,7.71-4.86,1.57,1.49-.49,3.53.77,5.07-.13,1.86.26,3.9-1.8,5.07-1.81-1.3-3.38-.43-5.09.38-21.78,10.3-43.39,21-65.35,30.89-17.83,8.06-35.34,16.83-53,25.33A10.63,10.63,0,0,1,136,287Z" transform="translate(98.09 8.09)" fill="#8bc0fb"/>
    <path d="M267.92,203c.08-.67.15-1.33.23-2a38.83,38.83,0,0,1,0,18,3.35,3.35,0,0,1-1.29-2.21,9.14,9.14,0,0,1-.17-1.73A35,35,0,0,1,267.92,203Z" transform="translate(98.09 8.09)" fill="#080048"/>
    <path d="M258.88,246c-.4-3.88,1.38-6.67,4.39-8.86C262.8,240.57,260.55,243.13,258.88,246Z" transform="translate(98.09 8.09)" fill="#8bc0fb"/>
    <path d="M263.24,237.18c-1.06-2.26-1.06-4.18,1.71-5.18A8.42,8.42,0,0,1,263.24,237.18Z" transform="translate(98.09 8.09)" fill="#8bc0fb"/>
    <path d="M267,224c-1.61-1.41-.71-3.31-1-5-.47-1.27-.63-2.31,1.33-1.79a12,12,0,0,1-.19,5.23Z" transform="translate(98.09 8.09)" fill="#92caf6"/>
    <path d="M267.13,222.44c-.05-1.81-.09-3.63-.13-5.44a.52.52,0,0,1,.88,0l.23,2Z" transform="translate(98.09 8.09)" fill="#8bc0fb"/>
    <path d="M223.62,196.14l2.55,8.89a2.72,2.72,0,0,1,.12,2.13,27.18,27.18,0,0,0,0,8.68,2.86,2.86,0,0,1-.1,2.13L224.11,225c1.06,4.54-2.21,7.2-4.58,10.14-1.31,1.62-3,3-4.49,4.48a14,14,0,0,1-3.63,2.46,18.18,18.18,0,0,1-5,2,12.59,12.59,0,0,1-2.53.11c-6.48,1.59-13.18,1-19.73,2-5.83.93-7.56-.73-7.51-6.69.09-11.77-.51-23.54.31-35.29,1.35-3.09,4.45-3.32,7.06-3.93,10.82-2.51,21-7.33,32-9,1.63-.24,1-1.4,1.23-2.23a2.44,2.44,0,0,1,.76-1.18C220.86,190,221.7,193.44,223.62,196.14Z" transform="translate(98.09 8.09)" fill="#080049"/>
    <path d="M218,189c.55,1.33,1.09,2.67,1.75,4.26-6.62-2.22-12.2,1.43-18,3.07-7.91,2.24-15.71,4.9-23.76,6.65-1.54-1.42-1.36-3.32-1.38-5.13-.06-5-.11-10,0-15s.84-5.7,5.82-5.89a92.22,92.22,0,0,1,12.44.74c2,.07,4,1.11,6.08.46l2-.18c2.67,1,5,2.79,8,2.88l1.11,1.09c1,.6,2.54.46,2.67,2.12.1.28.19.57.27.86C215.63,186.61,217.21,187.52,218,189Z" transform="translate(98.09 8.09)" fill="#08004b"/>
    <path d="M218,189c-1.18-1.21-3.65-1.48-2.95-4.06a6.3,6.3,0,0,1,3,2.95C218,188.28,218,188.65,218,189Z" transform="translate(98.09 8.09)" fill="#05053a"/>
    <path d="M214.78,184.1c-.89-.7-2.46-.55-2.67-2.12C214.12,181.27,215.55,181.29,214.78,184.1Z" transform="translate(98.09 8.09)" fill="#99c7fc"/>
    <path d="M136,177c0-8.46.17-16.92-.09-25.36-.12-3.84,1.27-4.73,4.88-4.7,18.73.15,37.46.07,56.2.07-1.95,3.56-5.78,4.38-9,5.92-15.44,7.38-31,14.57-46.48,21.8C139.73,175.57,137.85,176.25,136,177Z" transform="translate(98.09 8.09)" fill="#9fcafd"/>
    <path d="M136,195c0-1,0-2,0-3,11.71-4.08,22.29-10.64,33.73-15.32,1.64-.67,3.22-2.85,5.27-.68a3.52,3.52,0,0,1,.45,1.55c-.43,3.72.53,7.54-.82,11.2-7.39,4.67-15.47,8-23.29,11.82-3.4,1.67-6.83,3.33-10.35,4.74-1.82.73-3.89,2.35-5.75-.12C135.18,201.76,134.16,198.27,136,195Z" transform="translate(98.09 8.09)" fill="#9ac7fc"/>
    <path d="M175,177v-1c7,.48,14.07-1,21,.86-1.07,1.39-2.63,1-4.06,1.1a54.83,54.83,0,0,0-14.59-.12,3.54,3.54,0,0,1-1.7-.26Z" transform="translate(98.09 8.09)" fill="#99c7fc"/>
    <path d="M192,177.09l4-.23c.93.52,2.29-.07,3,1.13-.93.79-2.05.39-3.09.49C194.61,178,192.5,179.76,192,177.09Z" transform="translate(98.09 8.09)" fill="#08004b"/>
    <path d="M196,178.06,199,178l2,.2c-1.48,1.38-3.3.6-5,.8q-.51-.31-.33-.63C195.79,178.16,195.9,178.06,196,178.06Z" transform="translate(98.09 8.09)" fill="#000035"/>
    <path d="M135,225l-.81,0q0-39,0-78c1.44,1.55.83,3.47.84,5.23.06,14.25,0,28.5.05,42.75.59,8.65,1.78,17.26,1.35,25.95C136.29,222.43,136.23,223.92,135,225Z" transform="translate(98.09 8.09)" fill="#92bcef"/>
    <path d="M135,225q0-15,0-30h1c0,3.66,0,7.33,0,11,2.89,4.76,1.07,10,1.45,15-.34,5,1.44,10.25-1.47,15h-1Q135,230.5,135,225Z" transform="translate(98.09 8.09)" fill="#a1d4fe"/>
    <path d="M289.92,261.33c2.15,1.5,4.53,2.78,5.25,5.62-2-1.43-4.82-1.9-5.26-4.95A1.68,1.68,0,0,0,289.92,261.33Z" transform="translate(98.09 8.09)" fill="#08003f"/>
    <path d="M244,262.91A25.77,25.77,0,0,1,254.91,252c.73,1.16-.17,1.52-.94,1.95C250.51,256.79,247.94,260.63,244,262.91Z" transform="translate(98.09 8.09)" fill="#94cffa"/>
    <path d="M222,276.07a15.14,15.14,0,0,1,5.68-2.25c-.81,3-3.32,2.95-5.68,3.18Z" transform="translate(98.09 8.09)" fill="#08003f"/>
    <path d="M254,253.94c.32-.65.63-1.3.94-1.95.45-.31.89-.63,1.33-1C257,253.21,256.41,254.29,254,253.94Z" transform="translate(98.09 8.09)" fill="#030330"/>
    <path d="M205,279.88V278c3,1.11,6-2.4,9,0A34.1,34.1,0,0,1,205,279.88Z" transform="translate(98.09 8.09)" fill="#8dc6f2"/>
    <path d="M194,280.9c2.33-1.76,5-.58,7.47-.8C199.09,281.13,196.55,281,194,280.9Z" transform="translate(98.09 8.09)" fill="#89bffb"/>
    <path d="M136,344q0-15,0-30c7.1-3.81,14.45-7.14,21.73-10.59,3.57-1.69,7.16-3.36,10.74-5,1.76-.81,3.57-2,5.52-.37,0,13.75-.11,27.5.09,41.25,0,3.68-1,4.9-4.76,4.82C158.22,343.86,147.11,344,136,344Z" transform="translate(98.09 8.09)" fill="#86bdfa"/>
    <path d="M174,298c-7.31,1.62-13.43,6-20.3,8.7-5.95,2.3-11.07,6.61-17.69,7.29V300c4.25-.33,7.79-2.69,11.51-4.35,7.55-3.37,14.9-7.2,22.31-10.88,2.58-1.29,4.17-1,4.17,2.29C174,290.71,174,294.36,174,298Z" transform="translate(98.09 8.09)" fill="#89bffb"/>
    <path d="M207,243l4-2c1.36,2.36,3.06,1.39,4.31.13s-1.55-1-1.19-2.12c3.78-4.35,8.38-8.11,10-14,3.19.93,2.64-1.8,2.86-3.24.59-4,2.48-6.05,6.39-7.68,9.32-3.88,18.33-8.51,27.36-13,3.39-1.69,5.94-2.89,5.35,2.76-.07.69.59,1.45.91,2.18,1.37,3.22-.33,6.74,1,10l-.06,1H267a2.08,2.08,0,0,0-1,2c-6.55,7.6-16.33,9.65-24.64,14.16-7.7,4.19-16,7.35-23.89,11.12-23.35,11.12-46.62,22.43-70.05,33.39-3.63,1.7-7,4.6-11.41,4.33V261c7.42-4.43,15.59-7.27,23.32-11.05,4.57-2.23,8.82-5.42,14.2-5.7.78.05,1.53.27,2.31.39a6.2,6.2,0,0,1,1.53.42c4.53,1.3,9-.22,13.54-.05,2.35-.29,4.76.63,7.08-.33a7,7,0,0,1,2.71-.47A7.67,7.67,0,0,0,207,243Z" transform="translate(98.09 8.09)" fill="#8bc0fb"/>
    <path d="M174,245c-9.69,2.81-18.11,8.49-27.4,12.21-3.49,1.4-6.74,3.43-10.6,3.79q0-11,0-22c11.1-6.3,22.82-11.35,34.33-16.82,1.55-.73,3.58-1.44,4.65,1,.84,6.05.29,12.13.34,18.2A4.34,4.34,0,0,1,174,245Z" transform="translate(98.09 8.09)" fill="#90c2fb"/>
    <path d="M174,222q-16.41,7.71-32.82,15.42c-1.65.78-3.22,1.78-5.16,1.58,0-1,0-2,0-3q0-7.5,0-15c1.63-2.08,4.15-2.64,6.39-3.62,8.47-3.74,16.73-7.92,25-12,2.43-1.19,5.18-2.84,7.46.48C175.25,211.3,176.62,216.77,174,222Z" transform="translate(98.09 8.09)" fill="#94c4fc"/>
    <path d="M226.19,218c-.08-.66-.16-1.32-.23-2a19.6,19.6,0,0,1,0-9l.22-2A21.33,21.33,0,0,1,226.19,218Z" transform="translate(98.09 8.09)" fill="#8bc0fb"/>
    <path d="M267.94,216c-1.92-3.18-.51-6.67-1-10,.06-1.08-.17-2.25.94-3A45.82,45.82,0,0,1,267.94,216Z" transform="translate(98.09 8.09)" fill="#92caf6"/>
    <path d="M192,245.89a99.43,99.43,0,0,1-15.91.06,2.83,2.83,0,0,1-.75-2.6q.58-31.84,0-63.7a2.9,2.9,0,0,1,.73-2.61l15.93.05c1.09,1.36,2.65.75,4,1,0,.32,0,.63,0,.94-4.64.38-9.09-1.34-13.77-1.1-3.16.16-4.4,1-4.3,4.28.2,6.93.06,13.88.06,20.83v36.24c0,5.84.71,6.83,6.1,5.59,6.32-1.45,12.93.2,19.08-2.24.5-.2,1.25.27,1.89.43-.5,2.42-2.54,1.69-4.07,2l-2.75.09C196.31,246.46,194,244.7,192,245.89Z" transform="translate(98.09 8.09)" fill="#00003f"/>
    <path d="M214.12,239c.9,2.11,3.11-2,3.82.8.22.85-5.1,5.16-6.08,4.89-2.39-.69-.69-2.43-.86-3.7Z" transform="translate(98.09 8.09)" fill="#8bc0fb"/>
    <path d="M201,245c1-1.36,3.29-.16,4.07-2l1.94,0C205.69,245.75,203.73,246.56,201,245Z" transform="translate(98.09 8.09)" fill="#90c6f2"/>
    <path d="M226,207a22.63,22.63,0,0,1,0,9A9.36,9.36,0,0,1,226,207Z" transform="translate(98.09 8.09)" fill="#00002f"/>
    <path d="M174,205c-2.43-.3-4.46.75-6.56,1.77C157.1,211.82,147,217.5,136,221V206c10.06-4.25,20-8.84,29.66-13.85A30.58,30.58,0,0,1,174,189,19.93,19.93,0,0,1,174,205Z" transform="translate(98.09 8.09)" fill="#97c6fc"/>
    <path d="M174,205V189c.53-4-1.08-8.14,1-12h0c1,2.35,1,4.84,1,7.33q0,27.16,0,54.33c0,2.49,0,5-1,7.33l-1-1q0-11.5,0-23Z" transform="translate(98.09 8.09)" fill="#a0d6fe"/>
    <path d="M175,246l0-69,1.06,0c0,.66.07,1.32.1,2,.7,16.87.17,33.74.27,50.6,0,4.79.44,9.59-.29,14.36,0,.66,0,1.31,0,2Z" transform="translate(98.09 8.09)" fill="#85afe6"/>
    <path d="M192,245.89c1.9-1.62,4.13-.69,6.23-.78C196.48,247.8,194.05,245.25,192,245.89Z" transform="translate(98.09 8.09)" fill="#080049"/>
    <path d="M176.16,244q0-32.47,0-65c1.09,1.08.81,2.47.81,3.78q0,28.71,0,57.41C177,241.52,177.27,242.91,176.16,244Z" transform="translate(98.09 8.09)" fill="#0a044b"/>
</svg>