<svg id="bcac46d6-325f-4755-933a-4260c5ad07f5" data-name="Layer 1" 
    xmlns="http://www.w3.org/2000/svg" viewBox="0 0 300.19 300.19">
    <title>snapseed</title>
    <path d="M277,274c-.07,1.94-1.32,3.4-2.05,5.08a20.6,20.6,0,0,1-17.53,8.9Q198.7,288,140,288a10.15,10.15,0,0,1-3-.32c-2.14-.12-3.12-1-2.06-3.2a15,15,0,0,1,3.21-3.8Q187.47,231.33,236.8,182c1.28-1.28,2.43-2.77,4.26-3.38,1.87,0,3,1.25,4.16,2.4q14.58,14.52,29.11,29.09a7.86,7.86,0,0,1,2.66,6.64q0,28.15,0,56.3Z" transform="translate(-0.93 -0.9)" fill="#ddd"/>
    <path d="M166,63.91c15.26,19.87,23.88,42.53,28.06,67.05a1.74,1.74,0,0,1-.59,1.94c-1,.94-2,1.77-2.92,2.73-20.55,21.11-42.5,40.8-63,62-4.75,4.9-10.29,8.95-15,13.88-1.44,1.49-3.51,3.39-4.74-.46-.41-29.57-.21-59.12-.12-88.66a6.83,6.83,0,0,1,.3-1.61c.72-1.94,2.31-3.21,3.71-4.62Q136,91.78,160.41,67.46C162,65.91,163.17,63.53,166,63.91Z" transform="translate(-0.93 -0.9)" fill="#add47f"/>
    <path d="M109.23,212.94c5.36-4.94,10.84-9.75,16-14.84q32.73-32,65.35-64.16c.7-.69,1.52-1.27,2.28-1.9,4.13,3.53,2.27,8.49,3.09,12.81A31.27,31.27,0,0,0,196,158c-.44,6.25-.24,12.59-2.3,18.63a6,6,0,0,0-1,5.38,7.13,7.13,0,0,1,0,1.46c-5,23.72-15.92,44.57-30.72,63.56a183.35,183.35,0,0,1-28.55,27.56c-5.24,3.24-9.91,7.31-15.32,10.3-1.61.88-3.16,1.83-5.06,1.9-2.36-.34-3.44,5.76-6.63,1.33a3.65,3.65,0,0,1,1.12-1.06,6,6,0,0,0,1.14-1c-1-1.13-.94-2.5-.94-3.82,0-21.82-.08-43.64,0-65.46a7.9,7.9,0,0,1,.38-2.46A3,3,0,0,1,109.23,212.94Z" transform="translate(-0.93 -0.9)" fill="#8ac149"/>
    <path d="M23.92,132.87c.44-8.69,3-17,5.36-25.23,2.56-9,6.48-17.52,10.69-25.9a4.3,4.3,0,0,1,4.5-2.8c7.48.15,15,0,22.45,0,1.09-.53,1.89.09,2.71.64,11.83,11.58,23.45,23.37,35.16,35.07,1.78,1.77,3.5,3.59,3.2,6.42-.09,29.57.22,59.12-.16,88.66-.78,2.09-2.16,1.59-3.59.79a23.58,23.58,0,0,1-5.37-4.43c-20.33-20.85-42-40.31-62.27-61.24C32.56,140.65,27.47,137.57,23.92,132.87Z" transform="translate(-0.93 -0.9)" fill="#0b8042"/>
    <path d="M23.92,132.87c5.09,2.32,8.59,6.66,12.54,10.3,7.7,7.1,14.85,14.79,22.36,22.1Q82.36,188.19,106,211a3.22,3.22,0,0,1,1.91,3.11c.12,23,0,46,0,68.94,0,1.64.29,3.37-1,4.77a2.73,2.73,0,0,0-.71.34C69.5,267,42.8,237.29,29.5,196.49,22.74,175.76,20.53,154.54,23.92,132.87Z" transform="translate(-0.93 -0.9)" fill="#0b552b"/>
    <path d="M276,215c-.28-.76-.35-1.72-.87-2.24Q258.1,195.84,241,179c-3.72-1.38-5.45-5.2-8.72-7.13-3-3-5.57-6.41-8.78-9.21-2.3-2.41-4.68-4.75-7.06-7.08s-4.68-4.75-7.08-7.07c-2.75-2.81-5.51-5.6-8.38-8.29a35.09,35.09,0,0,1-4.33-4.63c-1.05-1.51-1.58-3,1-3.51,21.29-.12,42.56-.15,63.83,0A34.17,34.17,0,0,1,270,136c3.13,2.79,7,5.06,7,10.06a4.57,4.57,0,0,1,.48,2.9c0,21.79.08,43.58-.05,65.37A.92.92,0,0,1,276,215Z" transform="translate(-0.93 -0.9)" fill="#e1e1e1"/>
    <path d="M166,63.91c-8,7.79-15.93,15.55-23.84,23.38Q125.7,103.61,109.3,120c-2-1.73-1.89-4.15-1.9-6.44q-.08-46.65,0-93.3c0-2.15-.08-4.36,1.53-6.13,8.79,5,17.76,9.64,25.4,16.51,6,5.35,12.85,9.66,17.7,16.22a11.19,11.19,0,0,1,3,3.18C159,54.42,163,58.76,166,63.91Z" transform="translate(-0.93 -0.9)" fill="#b1fe59"/>
    <path d="M108.93,14.16q0,50,0,99.91c0,2,.21,4,.32,6H109l-.23-.11c-1.11.53-1.32-.45-1.77-1q-16.5-16.69-33-33.4C72.31,83.72,70.68,81.83,69,80c-1.11-1.61-1-3.45-1-5.27,0-10.24-.08-20.48.07-30.72,9.36-10.56,20.69-18.68,32.58-26C103.21,16.38,105.55,14,108.93,14.16Z" transform="translate(-0.93 -0.9)" fill="#32ab71"/>
    <path d="M112.93,286.81l20-13a1.54,1.54,0,0,1,.34,1.42c-3.59,5.29-9.62,7.32-14,10.65,4.87.25,10.41-1.48,15.71,1.07q61.92,0,123.86.06c6.71,0,11.27-4.2,16.08-7.95-3.21,7.81-10.14,9.77-17.34,9.82-39.06.23-78.13.37-117.18-.12-7.72-.09-15.52-.62-23.29-.76A6.94,6.94,0,0,1,112.93,286.81Z" transform="translate(-0.93 -0.9)" fill="#b8b8b8"/>
    <path d="M191.9,183l-.14-1.09c-.15-1.64-.86-3.34.45-4.85,2.23-6.19,1.79-12.74,2.61-19.11a53.55,53.55,0,0,1,0-12.84c-.53-4.36-.24-8.85-1.93-13l1.17-1.08q31.86,0,63.71.08c1.73,0,3.68-.73,5.15.92l-.83.47c-20.27.13-40.54,0-60.81.08-1.8,0-3.65-.4-5.41.35.64,3.78,2.06,7.45,1.54,11.39.14,4.46.12,8.92,0,13.37a135.93,135.93,0,0,1-2,18c-.34,2.49-.63,5-2,7.2A1.13,1.13,0,0,1,191.9,183Z" transform="translate(-0.93 -0.9)" fill="#b7b7b7"/>
    <path d="M276.94,215l.06-68.95c1.71,1.24,1,3.06,1,4.61Q278,210,278,269.35c0,1.58.64,3.37-1,4.64h.05c-.7-.86-.53-1.89-.53-2.86q0-26.87,0-53.71A4.54,4.54,0,0,1,276.94,215Z" transform="translate(-0.93 -0.9)" fill="#bdbdbd"/>
    <path d="M68.08,44c1.52,1.52.88,3.44.89,5.19C69,59.47,69,69.73,69,80l-2.08-1.09c.93-9.7.14-19.43.43-29.14C67.41,47.84,66.81,45.8,68.08,44Z" transform="translate(-0.93 -0.9)" fill="#2ea168"/>
    <path d="M270,136a21.93,21.93,0,0,1-7-3c-.34-.22-.47-.46-.37-.7s.2-.38.31-.38v0C265.63,132.72,268.33,133.47,270,136Z" transform="translate(-0.93 -0.9)" fill="#e8e8e8"/>
    <path d="M155,50.07a6.22,6.22,0,0,1-3-3.18C153.73,47.29,154.92,48.17,155,50.07Z" transform="translate(-0.93 -0.9)" fill="#a8ef54"/>
    <path d="M135,287H116L133,275c4.8-5.43,11-9.37,16.07-14.49,4.41-4.43,8.25-9.35,12.47-13.93,5.53-7,10.13-14.61,15.18-21.93a45.71,45.71,0,0,0,8.43-7q21.15-21.25,42.39-42.41c1.64-1.63,3.09-3.53,5.44-4.27a37.19,37.19,0,0,1,8,8c-1.32,1.48-2.56,3-4,4.44q-49.17,49.22-98.36,98.42C137.21,283.34,135.12,284.46,135,287Z" transform="translate(-0.93 -0.9)" fill="#dadada"/>
    <path d="M276.94,215q0,29.49.11,59c-1.72-1.43-1-3.4-1-5.14,0-17.95,0-35.89,0-53.84Z" transform="translate(-0.93 -0.9)" fill="#e0e0e0"/>
    <path d="M107,118.89l1.77,1q.12,31.33.24,62.67c0,10.11.12,20.23.18,30.34l-.42,1.09a.78.78,0,0,1-.93.25c-.37-.39-.52-.93-.85-1.35-.33-.65-.66-1.3-1-2,1.69-1.67.93-3.79.93-5.69Q107.07,162.09,107,118.89Z" transform="translate(-0.93 -0.9)" fill="#067f41"/>
    <path d="M177,225a214.88,214.88,0,0,1-15,22,.68.68,0,0,1-1.16-.06c5.45-8.32,11.55-16.19,16.3-25,6.68-12.35,11.08-25.51,14.76-39l1.1,0c1.55,4.35-.78,8.12-1.79,12.09A148.17,148.17,0,0,1,181,220C179.92,221.88,178.92,223.78,177,225Z" transform="translate(-0.93 -0.9)" fill="#d2d2d2"/>
    <path d="M107,212.93l1,1.06c.72,1,.47,2.25.48,3.39q0,33.62,0,67.24c0,1.14.25,2.34-.49,3.38l-1-.2Q107,250.36,107,212.93Z" transform="translate(-0.93 -0.9)" fill="#04532b"/>
    <path d="M108,288q0-37,0-74l.81,0q.06,36.39.12,72.79a7.83,7.83,0,0,1-.25,1.42Z" transform="translate(-0.93 -0.9)" fill="#1b471b"/>
    <path d="M160.84,246.94,162,247a141.41,141.41,0,0,1-29,28l-.09-1.18A280,280,0,0,0,160.84,246.94Z" transform="translate(-0.93 -0.9)" fill="#d4d4d4"/>
    <path d="M194.84,145.08q0,6.42,0,12.84A20.86,20.86,0,0,1,194.84,145.08Z" transform="translate(-0.93 -0.9)" fill="#86bc44"/>
    <path d="M192.21,177l-.45,4.85C190.7,180.15,190.34,178.49,192.21,177Z" transform="translate(-0.93 -0.9)" fill="#88c040"/>
    <path d="M177,225a191.59,191.59,0,0,0,13-30c11.19-9.49,20.91-20.49,31.42-30.68.83-.8,1.44-1.84,2.56-2.33,3.77,2.23,5.84,6.16,9,9-7.78,7.93-15.51,15.91-23.33,23.8-8.76,8.85-17.61,17.61-26.4,26.44C181.49,223,179.69,224.72,177,225Z" transform="translate(-0.93 -0.9)" fill="#d7d7d7"/>
    <path d="M224,162c0,2.11-1.67,3.14-2.93,4.4q-12.8,12.87-25.64,25.67c-1.52,1.52-2.88,3.3-5.41,2.94q1.48-6,3-12,.51-3.5,1-7c6.31-4.86,11.45-10.94,17.19-16.39,1.79-1.7,3.44-3.59,5.77-4.61A29.27,29.27,0,0,1,224,162Z" transform="translate(-0.93 -0.9)" fill="#d4d4d4"/>
    <path d="M217,155c-6.15,7.34-13.34,13.67-20.13,20.38-.58.57-1.87.43-2.83.62l2-18c3-3,6.51-5.44,9.48-8.49A5.13,5.13,0,0,1,210,148,29.09,29.09,0,0,1,217,155Z" transform="translate(-0.93 -0.9)" fill="#d2d2d2"/>
    <path d="M210,148c-3.9,1.56-6.08,5.23-9.34,7.54-1.4,1-2.67,2.47-4.64,2.46q0-7,0-14c1.69-1.8,3.42-3.52,6-4A38.16,38.16,0,0,1,210,148Z" transform="translate(-0.93 -0.9)" fill="#cecece"/>
    <path d="M262.94,131.92,263,133l-67,0c-.34.47-.65.42-.93-.07,1.46-1.68,3.42-.93,5.14-.93C221.1,132,242,132,262.94,131.92Z" transform="translate(-0.93 -0.9)" fill="#ebebeb"/>
    <path d="M195,133l.93.07,6,7a10.15,10.15,0,0,1-6,4C196.59,140.24,195,136.68,195,133Z" transform="translate(-0.93 -0.9)" fill="#cdcdcc"/>
</svg>