<svg id="a1d1d347-e680-47e7-b687-122fad080db2" data-name="Layer 1" 
    xmlns="http://www.w3.org/2000/svg" viewBox="0 0 700.14 700.14">
    <title>typescript</title>
    <path d="M701,55V647a1.57,1.57,0,0,1-1.83-.36c-1.42-1.46-1.28-3.36-1.39-5.17-.15-2.33-.1-4.66-.1-7q0-283.47.05-566.94c0-4.07-1-8.35,1.43-12.18A1.61,1.61,0,0,1,701,55Z" transform="translate(-0.93 -0.93)" fill="#74b6e2"/>
    <path d="M55,1H647a1.57,1.57,0,0,1-.36,1.83c-1.46,1.42-3.36,1.28-5.17,1.39-2.33.16-4.66.1-7,.1Q351,4.32,67.53,4.27c-4.07,0-8.35,1-12.18-1.43A1.61,1.61,0,0,1,55,1Z" transform="translate(-0.93 -0.93)" fill="#74b6e2"/>
    <path d="M647,701H55a1.57,1.57,0,0,1,.36-1.83c1.46-1.42,3.36-1.28,5.17-1.39,2.33-.15,4.66-.1,7-.1q283.47,0,566.94.05c4.07,0,8.35-1,12.18,1.43A1.61,1.61,0,0,1,647,701Z" transform="translate(-0.93 -0.93)" fill="#74b6e2"/>
    <path d="M1,647V55a1.57,1.57,0,0,1,1.83.36c1.42,1.46,1.28,3.36,1.39,5.17.16,2.33.1,4.66.1,7q0,283.47-.05,566.94c0,4.07,1,8.35-1.43,12.18A1.61,1.61,0,0,1,1,647Z" transform="translate(-0.93 -0.93)" fill="#74b6e2"/>
    <path d="M700.11,647.1c0,8.13-.35,16.24-2.27,24.18-3.65,15.09-15.62,25.27-31.9,27.67-6.28.93-12.56.9-18.84,1.16-4.5,0-9-.12-13.49-.12H60.89c-2,0-4,.08-6,.13-8.13,0-16.24-.35-24.18-2.27-15.09-3.65-25.27-15.62-27.67-31.9-.93-6.28-.9-12.56-1.16-18.84,0-4.5.12-9,.12-13.49Q2,347.25,2,60.89c0-2-.08-4-.13-6,0-8.13.35-16.24,2.27-24.18C7.81,15.63,19.78,5.45,36.06,3.05c6.28-.93,12.56-.9,18.84-1.16,4.5,0,9,.12,13.49.12H641.11c2,0,4-.08,6-.13,8.13,0,16.24.35,24.18,2.27,15.09,3.65,25.27,15.62,27.67,31.9.93,6.28.9,12.56,1.16,18.84,0,4.5-.12,9-.12,13.49q0,286.37,0,572.72C700,643.1,700.06,645.1,700.11,647.1Z" transform="translate(-0.93 -0.93)" fill="#0079cb"/>
    <path d="M467.12,475.94a98.6,98.6,0,0,1-26-46.22c-.8-.47-.7-1.06-.22-1.7-.33-5.64-.64-11.28-1-16.92-1.3-21.08,4.66-40,16.85-57.12-.16-1.67,1-2.31,2.24-2.9,16-18.25,36.66-27.82,60.18-32,.52-.75,1.13-.69,1.77-.17,12,0,23.92-.61,35.85.85,21.51,2.64,40.43,10.74,55.87,26.27,1,1.05,2.16,2,3.24,3,1.61.85,3.15,1.76,3.3,3.86,3.83,4.87,7.72,9.68,11.1,14.9,1.44,2.24,1.56,3.61-.82,5.21-7.15,4.8-14.12,9.86-21.28,14.65-7.73,5.17-15.71,10-23.33,15.3-3.19,2.22-4.95,1.39-6.85-1.33-1.6-2.3-3.36-4.48-5.06-6.71a4.82,4.82,0,0,1-2.88-3.52A34.8,34.8,0,0,0,545,378.1c-4.65.2-9.29.19-13.94,0-19.86,2.16-31.29,21.47-23.16,39.13.81.75,1.68,1.47,1.17,2.77,3.3,8.48,10.81,12.57,18,16.76,9.62,5.61,19.93,9.85,30.16,14.21a504.9,504.9,0,0,1,48.89,24.39c4.62,2.6,8.64,6.26,12.93,9.43,1.66-.13,2.33,1,2.82,2.29l9.1,9c1.29.53,2.38,1.22,2.3,2.85,15.79,21.17,20.49,45.21,18.3,71-.79,9.33-3.37,18.24-6.51,27a9.5,9.5,0,0,1-3.26,6.58q-4.44,6.45-8.9,12.89a24.34,24.34,0,0,1-9.84,9.79,105.18,105.18,0,0,1-52.14,23.51c-43.71,6.33-85.35.8-121.36-27.81-1.17-.92-2.37-1.8-3.56-2.7a20.71,20.71,0,0,1-9.22-9.22A235.76,235.76,0,0,1,421,587.24c-1.32-2.21-1.52-3.63,1.11-5.15q24.76-14.31,49.36-28.91c1.86-1.1,2.86-.78,4,.93,1.36,2.06,3,3.93,4.51,5.88,1.15.69,2.39,1.31,2.19,3l1.78,2.09c2.92,1.64,4.75,4.49,7.24,6.61,1.46,1.88,3.74,3.05,4.66,5.39,10,9.93,22.56,13.64,36.15,14.86a92.37,92.37,0,0,1,15,0c14.5-1.17,26.92-6.08,35.08-19,6.24-9.91,3.2-27.85-6.45-36.53-4.86-4.38-10.57-7.48-16.31-10.5-16.78-8.83-34.45-15.73-51.58-23.79-9.62-4.53-18.71-10-27.81-15.42-2.79-1.66-5.15-4.46-7.94-6.45C469.43,479.85,468.28,477.89,467.12,475.94Z" transform="translate(-0.93 -0.93)" fill="#fefefe"/>
    <path d="M356.63,322.19c12.91.23,25.83.43,38.74.72,7.38.16,6.6-1.13,7,7,.1,2.14.3,4.28.45,6.42,1.23,1.25.66,2.82.66,4.24q.07,18.12,0,36.23c0,1.94.47,4-1.54,5.43-22.63.51-45.27,0-67.9.25-8.31.09-16.63-.63-24.92.46-.06,2-.17,4-.17,6q0,126.87.1,253.75c0,4.49-1.12,5.49-5.46,5.43-18.82-.26-37.63-.09-56.45-.14-1.71,0-3.74.77-5-1.23-1.25-1.82-.61-3.88-.61-5.82q0-126.39-.08-252.79c0-1.85,1-4-.93-5.58-28.75-.21-57.5,0-86.24-.13-1.72,0-3.66.82-5.19-.76Q149,366.87,149,352c-.5-9.64-1.23-19.28.39-28.88q45.3-.28,90.6-.57c2.14,0,4.28-.24,6.42-.37,1.09-1.14,2.51-.67,3.78-.67q51.36,0,102.71,0C354.12,321.52,355.53,321.05,356.63,322.19Z" transform="translate(-0.93 -0.93)" fill="#fefefe"/>
    <path d="M241,382c2.13.87,1.42,2.77,1.42,4.28q.06,129,0,258.08a20.61,20.61,0,0,1-.29,2.46c-2.28-1.34-1.07-3.54-1.07-5.26q-.13-129.24-.11-258.47C240.32,382.67,240.33,382.3,241,382Z" transform="translate(-0.93 -0.93)" fill="#0061c1"/>
    <path d="M311,383V646.27h-1V383A.62.62,0,0,1,311,383Z" transform="translate(-0.93 -0.93)" fill="#0072c8"/>
    <path d="M356.63,322.19c-20.29.05-40.58.14-60.88.14-16.46,0-32.92-.09-49.39-.14l-88.47-.2a18.75,18.75,0,0,1-5.93-.64H399.12v.84Z" transform="translate(-0.93 -0.93)" fill="#0769c5"/>
    <path d="M311,383h-1l-.86,0c.29-1.79,1.74-1.24,2.75-1.24q44.94,0,89.89.15c.45-.46.83-.41,1.12.17-1.93,1.41-4.16.91-6.27.91Q353.81,383,311,383Z" transform="translate(-0.93 -0.93)" fill="#0067c4"/>
    <path d="M241,382l0,1.09q-42.87,0-85.75-.07c-2.1,0-4.39.6-6.12-1.28q43.22,0,86.43,0C237.35,381.74,239.17,381.88,241,382Z" transform="translate(-0.93 -0.93)" fill="#0066c4"/>
    <ellipse cx="275.07" cy="648.57" rx="44.2" ry="0.34" fill="#006ec6"/>
    <path d="M402.89,382.07l-1.12-.17c1.35-1.59.75-3.5.77-5.26.12-13.42.18-26.84.27-40.27v-10.6c1.74.83,1.16,2,1.16,2.9q.06,24.09,0,48.2C404,378.67,404.24,380.55,402.89,382.07Z" transform="translate(-0.93 -0.93)" fill="#0969c5"/>
    <path d="M148,352v28.17c-.36-9.39-2.26-18.81,0-28.17Z" transform="translate(-0.93 -0.93)" fill="#006bc5"/>
    <path d="M149.34,323.13,149,352H148c0-7.78,0-15.55,0-23.32C148,326.75,147.53,324.65,149.34,323.13Z" transform="translate(-0.93 -0.93)" fill="#0064c3"/>
    <path d="M531,378.1a33.75,33.75,0,0,1,13.94,0A23.42,23.42,0,0,1,531,378.1Z" transform="translate(-0.93 -0.93)" fill="#0064c3"/>
    <path d="M547,591.94a43,43,0,0,1-15,0A25.46,25.46,0,0,1,547,591.94Z" transform="translate(-0.93 -0.93)" fill="#0063c3"/>
    <path d="M436.75,610q4.61,4.62,9.22,9.22A12,12,0,0,1,436.75,610Z" transform="translate(-0.93 -0.93)" fill="#0068c5"/>
    <path d="M623,626.25l9.84-9.79C631.12,621.26,628.29,625,623,626.25Z" transform="translate(-0.93 -0.93)" fill="#0169c5"/>
    <path d="M438.82,399.92v14.17h-.49V399.92Z" transform="translate(-0.93 -0.93)" fill="#006cc6"/>
    <path d="M490.57,572.15a29.05,29.05,0,0,1-6.6-7.08c4,.81,5.56,4.37,8,6.93A1,1,0,0,1,490.57,572.15Z" transform="translate(-0.93 -0.93)" fill="#0167c4"/>
    <path d="M653.82,553.89v10.19l-.48,0V553.93Z" transform="translate(-0.93 -0.93)" fill="#006dc7"/>
    <path d="M641.77,603.57c1.09-2.19,2.17-4.38,3.26-6.58C645.55,600,644.93,602.4,641.77,603.57Z" transform="translate(-0.93 -0.93)" fill="#056bc6"/>
    <path d="M467.12,475.94l4.86,4.28C468.82,480.54,467.37,478.92,467.12,475.94Z" transform="translate(-0.93 -0.93)" fill="#0269c5"/>
    <path d="M490.57,572.15,492,572c1.48,1.54,4.31,2.06,3.87,5.07A18.7,18.7,0,0,1,490.57,572.15Z" transform="translate(-0.93 -0.93)" fill="#0167c4"/>
    <path d="M619.25,353l-3.3-3.86C618.67,349,619.72,350.34,619.25,353Z" transform="translate(-0.93 -0.93)" fill="#0268c4"/>
    <path d="M459,351.08c-.75,1-1.5,1.93-2.24,2.9C456.13,351.92,456.71,350.82,459,351.08Z" transform="translate(-0.93 -0.93)" fill="#0267c4"/>
    <path d="M570.13,391.47A8.38,8.38,0,0,1,573,395C570.28,395.27,570.39,393.22,570.13,391.47Z" transform="translate(-0.93 -0.93)" fill="#0368c4"/>
    <path d="M621.84,487.08,619,484.79C621.07,484.18,622.25,484.65,621.84,487.08Z" transform="translate(-0.93 -0.93)" fill="#0067c4"/>
    <path d="M633.24,499l-2.3-2.85C633.32,495.77,633.83,496.93,633.24,499Z" transform="translate(-0.93 -0.93)" fill="#0167c4"/>
    <path d="M482.19,563,480,560C482.35,559.8,483,560.89,482.19,563Z" transform="translate(-0.93 -0.93)" fill="#0367c4"/>
    <path d="M521,319l-1.77.17-1.76-.65C518.79,317.51,519.89,318.22,521,319Z" transform="translate(-0.93 -0.93)" fill="#0065c3"/>
    <path d="M509,420a3.67,3.67,0,0,1-1.17-2.77C510.29,417.3,509.78,418.6,509,420Z" transform="translate(-0.93 -0.93)" fill="#0469c5"/>
    <path d="M440.93,428l.22,1.7-.62,1.79C439.45,430.21,440.26,429.12,440.93,428Z" transform="translate(-0.93 -0.93)" fill="#0064c3"/>
</svg>